<svg width="61" height="22" viewBox="0 0 61 22" fill="none" xmlns="http://www.w3.org/2000/svg">
<g opacity="0.56" clip-path="url(#clip0_2077_276)">
<path d="M14.6947 21.9745H0V14.4833L2.86204 17.2099L14.6947 5.5451V21.9745Z" fill="white" fill-opacity="0.7"/>
<path d="M14.6947 0.0119324V2.69341L2.86204 14.4817L0 11.6317V0.0119324H14.6947Z" fill="white" fill-opacity="0.7"/>
<path d="M40.7521 0.0970459L42.5462 3.75747V0.0970459H43.6569V5.88562H42.3753L40.4958 2.05495V5.88562H39.4706V0.0970459H40.7521Z" fill="white" fill-opacity="0.7"/>
<path d="M43.9986 8.09891L45.7927 11.7168V8.09891H46.9034V13.8875H45.6219L43.7423 10.0568V13.8875H42.7171V8.09891H43.9986Z" fill="white" fill-opacity="0.7"/>
<path d="M34.43 21.8893V16.1008H36.8648C37.0947 16.1008 37.9191 16.5553 38.107 16.7358C39.0801 17.6722 39.0904 19.9672 38.2728 20.993C37.3945 22.0945 35.7072 22.0545 34.43 21.8885V21.8893ZM35.5406 20.953C38.4291 21.5139 38.436 16.3613 35.5406 17.1223V20.953Z" fill="white" fill-opacity="0.7"/>
<path d="M26.0574 13.8875V8.09891H28.4923C28.5376 8.09891 28.9032 8.24362 28.9938 8.28023C30.5299 8.89824 30.7555 10.9336 30.2599 12.3288C29.6525 14.0373 27.597 14.1097 26.0574 13.8875ZM27.1681 12.9511C29.1425 13.3827 29.8541 10.9481 28.9485 9.60224C28.6281 9.12638 27.6525 8.83865 27.1681 9.16298V12.9511Z" fill="white" fill-opacity="0.7"/>
<path d="M26.1223 0.0340395C29.8421 -0.50566 29.7234 5.61576 27.1177 5.96393C23.2714 6.47724 23.4799 0.417107 26.1223 0.0340395ZM26.2889 1.0513C25.0835 1.3237 25.086 4.63596 26.2069 4.92794C27.0425 5.14501 27.5833 4.6266 27.7285 3.84599C27.9199 2.81341 27.8396 0.699726 26.2898 1.0513H26.2889Z" fill="white" fill-opacity="0.7"/>
<path d="M22.1052 8.03335C25.7806 7.41108 25.79 13.6066 23.1031 13.9649C19.3124 14.4706 19.4713 8.47942 22.1052 8.03335ZM22.2735 9.05317C21.0604 9.33153 20.8844 13.2644 22.8494 12.946C24.2052 12.7264 24.2864 8.59178 22.2735 9.05317Z" fill="white" fill-opacity="0.7"/>
<path d="M50.4062 0.0970459V2.65083C51.1213 2.01494 51.5305 0.953415 51.944 0.0970459H53.3109L51.7056 2.76405L53.3964 5.88562H52.0294L50.8325 3.41697L50.4062 3.80003V5.88562H49.2955V0.0970459H50.4062Z" fill="white" fill-opacity="0.7"/>
<path d="M56.1302 8.09891V10.6527C56.8556 9.98615 57.1409 8.90165 57.7108 8.09891H59.035L57.3554 10.6953L59.1204 13.8875H57.7962L56.5566 11.504L56.1302 11.6742V13.8875H55.0196V8.09891H56.1302Z" fill="white" fill-opacity="0.7"/>
<path d="M21.3585 16.1008V18.6546C22.0736 17.9821 22.3615 16.9001 22.9391 16.1008H24.2633L22.5837 18.6971L24.3487 21.8893H23.0245L21.7849 19.5058L21.3585 19.6761V21.8893H20.2479V16.1008H21.3585Z" fill="white" fill-opacity="0.7"/>
<path d="M32.2941 21.8893L31.9003 20.4371L30.4949 20.4797L30.0779 21.8519L28.8767 21.8885L30.512 16.1127L31.9447 16.1093L33.491 21.8893H32.295H32.2941ZM31.6961 19.505L31.2262 17.3777C30.9383 18.0297 30.8451 18.8078 30.6709 19.505H31.6961Z" fill="white" fill-opacity="0.7"/>
<path d="M38.2745 0.0970459L38.1891 1.11856H36.1387V2.39545H38.1036L38.0182 3.41697H36.1387V4.86411H38.3599L38.2745 5.88562H35.028V0.0970459H38.2745Z" fill="white" fill-opacity="0.7"/>
<path d="M37.1639 8.09891L37.0784 9.12042H35.028V10.3973H36.9076V11.4188H35.028V12.866H37.2493L37.1639 13.8875H33.9174V8.09891H37.1639Z" fill="white" fill-opacity="0.7"/>
<path d="M30.8417 0.0970459L31.9097 4.52446L32.9776 0.0970459H34.1737L32.5948 5.80135L31.2322 5.88988L29.6457 0.0970459H30.8417Z" fill="white" fill-opacity="0.7"/>
<path d="M16.916 11.7593V13.8875H15.8053V8.09891H18.1548C18.253 8.09891 18.8886 8.44367 18.9963 8.53731C19.643 9.10254 19.6507 10.4663 19.1373 11.1209C18.5905 11.8181 17.7233 11.79 16.916 11.7593ZM16.916 10.7378C18.8485 11.1073 18.9203 8.70926 16.916 9.03529V10.7378Z" fill="white" fill-opacity="0.7"/>
<path d="M53.7381 8.2717L53.5664 9.29066C53.51 9.36216 52.3515 8.72031 51.8141 9.20298C50.9657 9.96486 52.7325 10.5011 53.1349 10.7855C54.4523 11.715 54.0448 13.7666 52.4045 13.9632C51.7253 14.045 51.0426 13.9496 50.4087 13.7121L50.5796 12.6966C51.1716 12.8617 52.6488 13.3588 52.718 12.3961C52.7727 11.6291 51.6885 11.4163 51.1828 11.0281C50.8735 10.7906 50.5804 10.4739 50.5121 10.0789C50.1721 8.09634 52.2464 7.6307 53.7381 8.2717Z" fill="white" fill-opacity="0.7"/>
<path d="M18.9664 0.269846L18.7955 1.28795C18.734 1.35435 17.5772 0.721015 17.0424 1.20113L16.8664 1.80212C17.0663 2.45589 18.8271 2.52824 19.0997 3.83663C19.5371 5.93414 17.1424 6.37169 15.6422 5.70685L15.8079 4.6947C16.4068 4.88453 17.9617 5.34081 17.9497 4.30908C17.942 3.63318 16.8844 3.39057 16.4111 3.02623C16.1018 2.78873 15.8087 2.47206 15.7404 2.07707C15.4004 0.0953378 17.4747 -0.371153 18.9664 0.269846Z" fill="white" fill-opacity="0.7"/>
<path d="M18.9664 16.2736L18.7955 17.2917C18.734 17.3581 17.5772 16.7247 17.0424 17.2048L16.8664 17.8058C17.0638 18.4494 18.8323 18.5575 19.0997 19.8404C19.5379 21.9438 17.1466 22.378 15.6422 21.7106L15.8079 20.6984C16.5982 20.9478 18.2308 21.3905 17.8968 20.0174C17.303 19.293 15.9249 19.1542 15.7404 18.0808C15.4004 16.0991 17.4747 15.6326 18.9664 16.2736Z" fill="white" fill-opacity="0.7"/>
<path d="M46.0712 1.22496C45.7466 1.56972 46.0524 2.00131 46.3626 2.21072C47.0119 2.65082 48.0405 2.84491 48.178 3.80684C48.4882 5.97415 46.4215 6.35807 44.7803 5.70345L44.8538 4.693C45.4407 4.8607 47.0802 5.34251 47.0794 4.30993C47.0794 3.46974 45.2861 3.35056 44.9119 2.29329C44.3301 0.65036 45.7825 -0.168554 47.2665 0.0323436C47.4852 0.0621378 47.9927 0.160033 48.02 0.394981C48.0345 0.524373 47.9089 1.26582 47.7996 1.2871C47.3886 1.06663 46.4155 0.858918 46.0721 1.22326L46.0712 1.22496Z" fill="white" fill-opacity="0.7"/>
<path d="M41.7773 8.09891V9.12042H40.4104V13.8875H39.2997V9.12042H37.9328L38.0609 8.09891H41.7773Z" fill="white" fill-opacity="0.7"/>
<path d="M26.2283 16.1008V20.8678H28.3641V21.8893H25.1176V16.1008H26.2283Z" fill="white" fill-opacity="0.7"/>
<path d="M21.3585 0.0970459V4.86411H23.4944L23.409 5.88562H20.2479V0.0970459H21.3585Z" fill="white" fill-opacity="0.7"/>
<path d="M32.6358 8.09891V13.5044C32.6358 13.5955 32.4043 14.1863 32.3402 14.3165C31.9472 15.1082 31.3475 15.3312 30.5008 15.4206L30.4154 14.3991C30.9246 14.5361 31.526 13.873 31.526 13.4201V8.09976H32.6367L32.6358 8.09891Z" fill="white" fill-opacity="0.7"/>
<path d="M49.2955 8.09891H48.1849V13.8875H49.2955V8.09891Z" fill="white" fill-opacity="0.7"/>
<path d="M61 8.09891H59.8893V13.8875H61V8.09891Z" fill="white" fill-opacity="0.7"/>
<path d="M55.3613 0.0970459H54.2507V5.88562H55.3613V0.0970459Z" fill="white" fill-opacity="0.7"/>
<path d="M51.6697 6.24401L52.1576 6.90544L52.6275 6.2687L53.3109 6.22614L52.5249 7.6554H51.7902L51.0042 6.22614L51.6697 6.24401Z" fill="white" fill-opacity="0.7"/>
</g>
<defs>
<clipPath id="clip0_2077_276">
<rect width="61" height="22" fill="white"/>
</clipPath>
</defs>
</svg>
