<svg width="226" height="22" viewBox="0 0 226 22" fill="none" xmlns="http://www.w3.org/2000/svg">
<g opacity="0.56" clip-path="url(#clip0_2077_683)">
<path d="M17.6192 2.06328C17.7135 2.44929 17.4789 2.79394 17.4559 3.16615C17.2604 6.23811 17.3225 9.61336 16.9292 12.6348C16.352 17.0577 13.0816 20.8535 8.77854 22C5.80712 21.1292 3.06569 18.9372 1.73178 16.1295C0.151774 12.8025 0.420857 7.7178 0.21617 4.02777C0.181672 3.42579 -0.126509 2.74109 0.0597797 2.07018C5.65303 -0.707684 12.0167 -0.668624 17.6215 2.06328H17.6192ZM6.95475 2.03571L6.67877 1.3602L6.40278 2.03571L5.72893 2.05179L6.0624 2.6308L5.72893 3.08344L6.40278 3.09952L6.59367 3.77273L6.95475 3.09952L7.62861 3.08344L7.29513 2.50443L7.62861 2.05179L6.95475 2.03571ZM11.0761 1.53482H10.7357L10.5655 1.96908L10.0412 2.05409V3.08344L10.5655 3.16845L10.7357 3.60271H11.0761L11.3521 3.09033L11.9408 3.26036L11.6074 2.50673L11.9408 2.05409L11.2371 1.97367L11.0761 1.53712V1.53482ZM16.2531 2.39644C16.2186 3.05357 16.2968 3.72448 16.2577 4.38161C16.1427 6.26109 16.0599 8.18422 15.9127 10.0683C15.5792 14.3488 14.5995 17.7034 10.6161 19.9413C8.92803 20.8902 8.47725 20.7845 6.82136 19.831C0.818732 16.3753 1.84677 9.61336 1.42359 3.68313C1.3891 3.21441 1.13151 2.74109 1.24651 2.22182L0.747437 2.41253C0.563448 3.08344 0.876229 3.77503 0.906127 4.37242C1.03262 6.80333 1.01192 9.3836 1.24191 11.7915C1.54779 14.9646 2.9806 17.816 5.57254 19.7C6.23949 20.1848 8.12308 21.3566 8.89353 21.3107C9.60878 21.267 11.8603 19.8862 12.4629 19.3738C16.8119 15.6746 16.2922 11.7961 16.5934 6.61263C16.6463 5.70276 16.7176 4.7837 16.7659 3.85545C16.7866 3.46255 17.1845 2.74798 16.7751 2.47686L16.2531 2.39644ZM9.03382 4.7814L8.66584 4.28971L8.50255 4.72856L7.8011 4.80897L8.12768 5.38339L7.8011 6.01294L8.50255 6.09336L8.66584 6.53221L9.03382 6.04052L9.87097 6.01294L9.51449 5.41096L9.87097 4.80897L9.03382 4.7814ZM10.7334 11.185L8.66584 7.73848L7.11114 11.185C6.97775 11.3412 6.1038 9.94652 5.98191 9.81555C5.83932 9.66161 5.81632 9.5789 5.56104 9.63404L2.8817 13.4344C2.8633 14.8175 4.05463 15.1507 5.26435 14.9393C5.75422 14.8543 6.1889 14.4683 6.68107 14.4476C7.40782 14.4177 7.92069 14.9255 8.57155 14.9853C9.56739 15.0772 10.0642 14.4499 10.8208 14.4499C11.3981 14.4499 11.8856 14.898 12.3778 14.9715C13.6588 15.1645 14.5397 14.852 14.8571 13.5332L11.8557 9.63634L10.7334 11.185ZM13.8382 15.6654C12.6745 16.2628 11.8626 15.3046 10.8208 15.3069C10.1217 15.3069 9.62258 15.8009 8.92343 15.8446C8.04488 15.902 7.7482 15.3782 7.03064 15.3138C5.89682 15.2127 5.43684 16.0468 4.29612 15.8055C4.08683 15.7619 3.79935 15.4402 3.65905 15.5804C4.06383 17.3197 5.93821 15.8262 6.85356 15.8262C7.38712 15.8262 7.7436 16.2742 8.23807 16.3478C9.47079 16.5339 9.96986 15.8262 10.8208 15.8262C11.3981 15.8262 11.8879 16.2765 12.3778 16.3478C12.7527 16.4029 13.1759 16.3225 13.5599 16.3616L13.8382 15.6631V15.6654ZM12.8033 17.2163C12.1501 17.2576 11.6051 16.7338 10.9956 16.6878C10.1171 16.6235 9.75827 17.2002 8.92573 17.2255C7.8126 17.2576 7.38482 16.3891 6.0693 16.7751L4.87108 17.4713C6.04631 18.4938 7.32273 19.6863 8.91653 19.9735C10.4459 19.4404 11.8373 18.5259 12.8056 17.214L12.8033 17.2163Z" fill="white" fill-opacity="0.7"/>
<path d="M119.229 7.56385L120.763 7.58223L121.991 10.4911C122.242 10.4727 122.26 10.2337 122.341 10.066C122.72 9.25262 123.077 8.42088 123.392 7.58223L124.924 7.56155V14.1099H123.716V9.45712L122.578 11.8788L121.494 11.8513L120.441 9.62944V14.1099H119.234V7.56155L119.229 7.56385Z" fill="white" fill-opacity="0.7"/>
<path d="M128.889 7.56387L130.595 7.58225L132.856 12.5613V7.56387C133.295 7.58225 133.783 7.42371 134.063 7.8212V14.1122L132.177 14.1007L130.096 9.45943V14.1122H128.889V7.56387Z" fill="white" fill-opacity="0.7"/>
<path d="M210.303 7.56387L211.946 7.73389L214.098 12.3889V7.8212C214.379 7.42371 214.866 7.58225 215.306 7.56387V14.1122L213.491 13.9444L211.338 9.2871V14.1122H210.303V7.56387Z" fill="white" fill-opacity="0.7"/>
<path d="M198.057 7.56387L199.699 7.7339L201.852 12.3889V7.56387H203.059V14.1122L201.244 13.9444L199.092 9.28711V14.1122H198.057V7.56387Z" fill="white" fill-opacity="0.7"/>
<path d="M150.71 7.56385C150.914 7.59143 151.625 7.86944 151.825 8.00041C152.938 8.73336 152.674 10.8702 151.496 11.4377L152.867 14.1099L151.333 14.0915C151.128 13.6411 150.321 11.6468 149.997 11.548C149.764 11.479 149.486 11.5411 149.242 11.525V14.1099H147.862V7.81889L148.12 7.56156C148.936 7.64197 149.921 7.45127 150.707 7.56156L150.71 7.56385ZM149.242 10.4957C149.875 10.4497 150.988 10.7714 151.14 9.89137C151.404 8.34505 150.342 8.82526 149.242 8.77012V10.4957Z" fill="white" fill-opacity="0.7"/>
<path d="M170.755 7.60293C172.112 7.36627 173.685 7.47196 174.134 8.97463C174.442 10.0063 174.472 11.3941 174.212 12.4349C173.759 14.2454 172.087 14.6383 170.458 14.0249C168.929 13.4504 168.961 11.4538 169.072 10.0545C169.157 8.96543 169.55 7.81201 170.757 7.60293H170.755ZM172.666 12.8714C173.216 12.3062 173.186 9.69379 172.705 9.02517C172.301 8.45995 171.312 8.42089 170.808 8.86204C170.136 9.44794 170.136 12.7703 171.091 13.053C171.475 13.1104 172.406 13.1426 172.666 12.8737V12.8714Z" fill="white" fill-opacity="0.7"/>
<path d="M207.534 7.57535L209.441 14.1145L208.07 14.1053L207.61 12.7267L205.483 12.7451L205.113 14.0984L203.749 14.1145L205.729 7.73389L207.534 7.57535ZM207.371 11.6996L206.943 9.80177L206.511 8.77013L205.821 11.6996H207.373H207.371Z" fill="white" fill-opacity="0.7"/>
<path d="M187.707 14.1122L186.344 14.0961L185.884 12.7244L183.846 12.752L183.386 14.1007L182.015 14.1099L184.078 7.642L185.727 7.72931L187.705 14.1099L187.707 14.1122ZM185.638 11.6996L184.777 8.77244C184.754 9.22508 183.917 11.5434 184.085 11.7019H185.638V11.6996Z" fill="white" fill-opacity="0.7"/>
<path d="M226 7.56387V8.77014H223.24V10.3211H225.655V11.355H223.24V13.0782H226V14.1122H221.86V7.56387H226Z" fill="white" fill-opacity="0.7"/>
<path d="M165.804 12.9059C166.047 12.9472 166.047 12.6049 166.098 12.428C166.551 10.884 166.834 9.28249 167.262 7.72928L168.561 7.56385L166.82 14.0961L165.042 14.119L163.214 7.56155L164.511 7.72928L165.801 12.9036L165.804 12.9059Z" fill="white" fill-opacity="0.7"/>
<path d="M141.644 7.74768L141.653 8.77243C141.473 8.96773 139.155 8.00731 139.056 9.20668C138.976 10.1878 140.029 10.1556 140.737 10.4635C141.103 10.622 141.558 10.8173 141.807 11.1183C142.159 11.6491 142.067 13.2781 141.614 13.7331C140.869 14.4821 138.631 14.3029 137.683 13.9421L137.858 12.9082C138.628 13.0093 140.643 13.524 140.76 12.4487C140.878 11.3734 138.58 11.3917 138.047 10.5646C137.6 9.86841 137.635 8.45305 138.311 7.93379C139.128 7.30653 140.685 7.55927 141.641 7.74997L141.644 7.74768Z" fill="white" fill-opacity="0.7"/>
<path d="M157.349 8.94474C156.708 8.53346 154.67 8.23017 154.792 9.34913C154.914 10.4681 156.97 10.1924 157.501 11.1206C157.986 11.9684 157.887 13.6687 156.839 14.0363C155.79 14.404 154.734 14.3121 153.718 14.0363C153.423 13.8571 153.488 12.9817 153.826 12.9151C154.479 13.1127 156.42 13.3999 156.496 12.4716C156.583 11.4193 155.181 11.4653 154.468 11.0448C153.308 10.3601 153.127 8.5909 154.251 7.83038C154.81 7.45127 157.365 7.35477 157.503 8.0119L157.347 8.94244L157.349 8.94474Z" fill="white" fill-opacity="0.7"/>
<path d="M181.498 7.56387C181.477 7.87176 181.539 8.20492 181.493 8.50591C181.325 9.57891 179.046 11.9133 178.565 13.0782H181.498V14.1122H177.186C177.206 13.8043 177.144 13.4711 177.19 13.1701C177.356 12.1109 179.531 9.95113 179.945 8.77014H177.358V7.56387H181.498Z" fill="white" fill-opacity="0.7"/>
<path d="M191.675 8.77014V10.3211H194.089V11.5273H191.675V14.1122H190.467V7.56387H194.349C194.738 7.85567 194.738 8.47834 194.349 8.77014H191.677H191.675Z" fill="white" fill-opacity="0.7"/>
<path d="M220.823 7.74077L220.653 8.77241C219.818 8.60698 219.045 8.43926 218.24 8.85973C217.509 9.39048 217.569 12.0489 218.155 12.7336C218.622 13.2781 219.926 13.1265 220.556 12.9174L220.807 13.1885L220.812 13.9283C219.455 14.5073 217.267 14.4476 216.679 12.8301C216.21 11.5411 216.198 8.8873 217.385 8.005C218.291 7.32949 219.777 7.49492 220.823 7.74077Z" fill="white" fill-opacity="0.7"/>
<path d="M99.048 7.56387L100.065 7.58455L103.015 13.2506V7.56387H103.705V14.1122L102.516 14.0938L99.7379 8.59782V14.1122H99.048V7.56387Z" fill="white" fill-opacity="0.7"/>
<path d="M46.9562 14.1122V7.56387H49.6286C49.6815 7.56387 50.4635 7.91771 50.5739 7.99813C51.4202 8.6116 51.25 10.1901 50.406 10.753C51.3121 11.3412 51.549 12.7772 50.8337 13.5952C50.7555 13.6848 50.0242 14.1145 49.9736 14.1145H46.9562V14.1122ZM47.6461 10.4957C48.5132 10.4244 50.1093 10.8541 50.3715 9.6869C50.7762 7.88554 48.8237 8.25776 47.6461 8.25547V10.498V10.4957ZM47.6461 13.5952C48.711 13.6274 50.5647 13.8043 50.5647 12.3039C50.5647 10.8036 48.7041 11.0264 47.6461 11.0103V13.5952Z" fill="white" fill-opacity="0.7"/>
<path d="M161.144 8.77014V14.1122H159.764V8.77014H158.212V7.56387H162.609C162.954 7.75917 162.991 8.50361 162.706 8.69432L161.144 8.77014Z" fill="white" fill-opacity="0.7"/>
<path d="M27.3798 7.56386C27.9387 7.64198 28.5297 8.04636 28.8172 8.54036C28.8425 9.30318 29.0426 10.282 28.4193 10.8449C28.2146 11.0287 27.6328 11.185 27.6328 11.2746L29.0173 14.1122L28.1732 14.0938L26.9267 11.3757L25.3927 11.3573V14.1145H24.7028V7.56615C25.5422 7.64887 26.5656 7.45127 27.3752 7.56615L27.3798 7.56386ZM25.395 8.25315V10.6657C26.1793 10.5462 27.9295 11.0632 28.1157 10.0292C28.5251 7.73848 27.0808 8.3014 25.395 8.25315Z" fill="white" fill-opacity="0.7"/>
<path d="M147 7.56387V8.77244L145.275 8.77014V14.1122H144.068V8.77014L142.343 8.77244V7.56387H147Z" fill="white" fill-opacity="0.7"/>
<path d="M83.8159 7.59834C85.4258 7.2422 86.7781 7.69944 87.1346 9.38821C87.3899 10.5991 87.406 13.2345 86.1756 13.9215C85.1522 14.4913 83.3307 14.3948 82.6844 13.3172C82.1945 12.5015 82.1899 10.22 82.3923 9.28252C82.5303 8.64377 83.1582 7.74539 83.8136 7.60064L83.8159 7.59834ZM84.3403 8.11991C82.758 8.38873 82.8592 10.8748 83.0179 12.1201C83.2663 14.0547 85.9709 14.1352 86.3803 12.3981C86.5574 11.6491 86.5689 9.41348 86.1894 8.77933C85.8283 8.17965 84.9935 8.00732 84.3403 8.11761V8.11991Z" fill="white" fill-opacity="0.7"/>
<path d="M60.7553 10.4934C61.1532 10.5623 61.2912 10.406 61.5372 10.1533C62.1996 9.4755 62.7102 8.38411 63.338 7.64427L64.2051 7.56385L61.9558 10.7507L64.2051 14.1099L63.338 14.0294L61.3556 11.1849L60.7576 11.008V14.1099H59.8951V7.81889L60.155 7.56155C60.2125 7.56155 60.27 7.56155 60.3275 7.56155C60.4517 7.56155 60.7576 7.69712 60.7576 7.82119V10.4911L60.7553 10.4934Z" fill="white" fill-opacity="0.7"/>
<path d="M67.8112 7.57996L69.8972 14.1122L69.2257 14.0961L68.584 12.5819L66.0334 12.5544L65.5022 13.9467L64.7225 14.1145L66.8085 7.84189C66.9971 7.46967 67.4479 7.53631 67.8112 7.58226V7.57996ZM68.5173 11.872L67.3122 8.25317C67.234 8.76785 66.0886 11.6859 66.2772 11.872H68.5196H68.5173Z" fill="white" fill-opacity="0.7"/>
<path d="M112.838 7.57536L114.917 14.1145L114.137 13.9467L113.606 12.5544L111.056 12.5819L110.414 14.0961L109.742 14.1122L111.821 7.57306H112.838V7.57536ZM111.122 11.872H113.537C113.118 10.8311 112.797 9.75583 112.514 8.66904C112.442 8.39332 112.562 8.39102 112.157 8.42549L111.122 11.872Z" fill="white" fill-opacity="0.7"/>
<path d="M97.6681 7.56387V8.25317H94.3908V10.4934H97.1506V11.1827H94.3908V13.5952H97.6681V14.1122H93.7008V7.56387H97.6681Z" fill="white" fill-opacity="0.7"/>
<path d="M41.4365 7.56386V12.4762C41.4365 12.5153 41.7056 13.0897 41.7723 13.1747C42.3358 13.887 44.0216 13.7675 44.4563 12.9082C44.8035 12.2235 44.3896 9.06653 44.5367 7.99123C44.5942 7.57535 44.8426 7.51561 45.2313 7.56386V12.8209C45.2313 12.9794 44.654 13.7928 44.4333 13.9192C43.4213 14.5074 42.2645 14.2937 41.3077 13.7239C41.1767 13.6044 40.7466 12.6095 40.7466 12.4762V7.56386H41.4365Z" fill="white" fill-opacity="0.7"/>
<path d="M34.192 7.56387V8.25317H31.0872V10.4934H33.847V11.1827H31.0872V13.5952H34.192V14.1122H30.3972V7.56387H34.192Z" fill="white" fill-opacity="0.7"/>
<path d="M36.2619 14.1122H35.5719V7.82119C35.7329 7.57075 35.9054 7.57764 36.1676 7.55467C36.9541 7.49033 39.0608 7.49033 39.5208 8.18422C40.1923 9.19978 39.9784 11.1436 38.5847 11.3481C37.8373 11.4584 36.8276 11.093 36.2619 11.6123V14.1122ZM36.2619 10.838C37.4739 10.7783 39.2034 11.2929 39.2034 9.54673C39.2034 7.80051 37.4716 8.31289 36.2619 8.25545V10.8403V10.838Z" fill="white" fill-opacity="0.7"/>
<path d="M196.677 14.1122H195.297V7.56387C195.782 7.60063 196.359 7.39155 196.677 7.82121V14.1122Z" fill="white" fill-opacity="0.7"/>
<path d="M76.4334 7.75455L76.4495 8.42547C75.6008 8.06703 74.72 7.91079 73.8598 8.33586C72.4707 10.6795 75.8515 10.2935 76.53 11.3596C77.6086 14.165 74.996 14.767 72.8272 13.9375C72.8755 13.0943 73.4666 13.5722 73.9449 13.5998C74.904 13.6526 76.1183 13.7675 76.1183 12.4739C76.1183 10.6588 72.9054 11.5801 72.8157 9.3721C72.7306 7.3203 74.9684 7.29962 76.4334 7.75226V7.75455Z" fill="white" fill-opacity="0.7"/>
<path d="M90.2532 13.4229C90.5154 13.4734 90.4211 13.2253 90.4694 13.0392C90.9478 11.2585 91.4975 9.487 92.0655 7.73849L92.6681 7.56616L90.865 13.949L89.8347 14.1214L87.8407 7.56616L88.6226 7.73159L90.2555 13.4252L90.2532 13.4229Z" fill="white" fill-opacity="0.7"/>
<path d="M127.509 7.56387H126.301V14.1122H127.509V7.56387Z" fill="white" fill-opacity="0.7"/>
<path d="M136.651 7.56387H135.443V14.1122H136.651V7.56387Z" fill="white" fill-opacity="0.7"/>
<path d="M53.3383 7.56387V13.5952H56.4431V14.1122H52.6483V7.56387H53.3383Z" fill="white" fill-opacity="0.7"/>
<path d="M78.6942 7.56387V13.5952H81.799V14.1122H78.0043V7.56387H78.6942Z" fill="white" fill-opacity="0.7"/>
<path d="M108.88 7.56387V14.0249C108.88 14.1673 108.514 15.0772 108.369 15.238C108.194 15.4287 107.484 15.8354 107.242 15.8354C106.826 15.0841 107.53 15.1553 107.852 14.7211C107.921 14.6291 108.19 14.0639 108.19 14.0249V7.56387H108.88Z" fill="white" fill-opacity="0.7"/>
<path d="M58.168 7.56387H57.478V14.1122H58.168V7.56387Z" fill="white" fill-opacity="0.7"/>
<path d="M106.12 7.56387H105.43V14.1122H106.12V7.56387Z" fill="white" fill-opacity="0.7"/>
</g>
<defs>
<clipPath id="clip0_2077_683">
<rect width="226" height="22" fill="white"/>
</clipPath>
</defs>
</svg>
