<svg width="33" height="32" viewBox="0 0 33 32" fill="none" xmlns="http://www.w3.org/2000/svg">
<g opacity="0.56" clip-path="url(#clip0_2077_915)">
<mask id="mask0_2077_915" style="mask-type:luminance" maskUnits="userSpaceOnUse" x="0" y="0" width="33" height="32">
<path d="M32.0938 0H0.09375V32H32.0938V0Z" fill="white"/>
</mask>
<g mask="url(#mask0_2077_915)">
<path d="M2.5553 27.84V30.2605H3.21991V27.8646C3.21991 27.2821 3.58094 26.88 4.1635 26.88H4.29068C4.87325 26.88 5.23427 27.278 5.23427 27.8646V30.2605H5.89889V27.8646C5.89889 27.2821 6.26812 26.88 6.85068 26.88H6.96966C7.55222 26.88 7.92145 27.2862 7.92145 27.8646V30.2605H8.58607V27.84C8.58607 26.8636 7.9953 26.2564 7.01068 26.2564H6.8835C6.20248 26.2564 5.77991 26.5559 5.57478 26.9333C5.36555 26.5559 4.94299 26.2564 4.25786 26.2564H4.13889C3.15017 26.2564 2.5635 26.8636 2.5635 27.84H2.5553ZM9.88658 29.1241C9.88658 29.8462 10.4158 30.359 11.3471 30.359H11.7943C12.2743 30.359 12.6886 30.1744 12.9143 29.8133C13.0086 30.0677 13.2343 30.2605 13.6404 30.2605H13.9768V29.6985H13.7758C13.505 29.6985 13.3984 29.559 13.3984 29.2062V27.7908C13.3984 26.8472 12.8773 26.2523 11.7779 26.2523H11.6671C10.7809 26.2523 10.1573 26.6667 10.022 27.4831H10.6948C10.7727 27.1057 11.1091 26.839 11.6466 26.839H11.8312C12.4384 26.839 12.7584 27.1918 12.7584 27.6595V27.8728H11.3512C10.4158 27.8728 9.89068 28.3815 9.89068 29.1159L9.88658 29.1241ZM10.5594 29.1077C10.5594 28.7221 10.863 28.4308 11.4456 28.4308H12.7543V28.8533C12.7543 29.4605 12.3153 29.7887 11.7245 29.7887H11.4456C10.863 29.7887 10.5594 29.4892 10.5594 29.1036V29.1077ZM15.1461 27.9139V30.2564H15.8107V27.9836C15.8107 27.3846 16.2332 26.9621 16.8322 26.9621H17.4148V26.3467H16.8158C15.7943 26.3467 15.1461 26.9292 15.1461 27.9139ZM19.0845 26.3467H18.4199V28.9436C18.4199 29.8585 18.8753 30.2564 19.7122 30.2564H20.2004V29.6492H19.8476C19.3348 29.6492 19.0804 29.4195 19.0804 28.9723V26.3426L19.0845 26.3467ZM21.0127 27.8687V28.7426C21.0127 29.7395 21.6363 30.3549 22.6989 30.3549H22.945C23.8476 30.3549 24.4384 29.9077 24.5902 29.1569H23.905C23.7861 29.5098 23.4415 29.7477 22.945 29.7477H22.6989C22.0589 29.7477 21.6773 29.3703 21.6773 28.7508V28.6031H24.6271V27.8646C24.6271 26.8595 24.0117 26.2523 22.9491 26.2523H22.703C21.6404 26.2523 21.0168 26.8595 21.0168 27.8646L21.0127 27.8687ZM21.6773 27.8482C21.6773 27.2164 22.0589 26.8431 22.6989 26.8431H22.945C23.585 26.8431 23.9666 27.2205 23.9666 27.8482V28.041H21.6732V27.8482H21.6773ZM26.4404 29.1446H25.7758C25.784 29.8585 26.2968 30.359 27.2774 30.359H27.6999C28.6845 30.359 29.2179 29.9446 29.2179 29.239C29.2179 28.4226 28.6517 28.1928 27.9461 28.078C27.8025 28.0533 27.3799 27.9713 27.2445 27.9467C26.7973 27.8687 26.5102 27.7457 26.5102 27.3641C26.5102 27.0318 26.7563 26.8349 27.3635 26.8349H27.6425C28.2825 26.8349 28.4794 27.0974 28.4794 27.4339H29.1522C29.1522 26.7651 28.6476 26.2564 27.6835 26.2564H27.3225C26.3625 26.2564 25.8373 26.6626 25.8373 27.3477C25.8373 28.1477 26.3666 28.3692 27.0763 28.4923C27.2199 28.521 27.6343 28.599 27.7573 28.6236C28.2456 28.7015 28.5491 28.8246 28.5491 29.239C28.5491 29.5754 28.2948 29.7764 27.6712 29.7764H27.3184C26.662 29.7764 26.4486 29.5221 26.4404 29.1446Z" fill="white" fill-opacity="0.7"/>
<path d="M29.0537 1.95692C28.7296 1.69436 27.9912 1.36205 26.7235 2.05949L14.6784 8.64821C13.2835 9.41949 12.9881 9.48513 11.5604 8.8L5.99323 6.32205C5.08246 5.88718 4.21682 5.90359 3.5563 6.36308C2.78092 6.90462 2.4322 7.9959 2.60041 9.34974L3.53169 16.8369C3.67528 17.9979 4.22913 18.8923 5.04554 19.2903C5.75118 19.6308 6.55938 19.5774 7.31836 19.1385L11.6876 16.7631C12.5122 16.2872 12.8732 16.5046 14.0507 17.641C14.2189 17.801 14.3912 17.9692 14.5758 18.1415L19.3225 22.5272C19.9337 23.0892 20.623 23.3887 21.3204 23.3887C21.5214 23.3887 21.7184 23.3641 21.9153 23.3149C22.8794 23.0728 23.6589 22.2359 24.0568 21.0256L29.3819 4.78769C29.8127 3.47487 29.6978 2.46974 29.0578 1.95692H29.0537ZM28.3071 3.59385C28.3071 3.63487 28.2989 3.6759 28.2907 3.71692C28.2619 3.88103 28.2004 4.09026 28.1019 4.38564L22.7768 20.6236C22.5225 21.3949 22.0876 21.9118 21.5748 22.0431C21.1563 22.1497 20.6804 21.9815 20.2373 21.5713L15.4907 17.1856C15.3143 17.0215 15.146 16.8615 14.986 16.7056C14.1902 15.9385 13.4353 15.2082 12.4055 15.2082C11.9584 15.2082 11.503 15.3436 11.023 15.6226L6.65374 17.9979C6.2722 18.2154 5.93169 18.2564 5.6363 18.1128C5.23015 17.9159 4.94297 17.3908 4.85682 16.681L3.92554 9.19385C3.82297 8.35692 3.97477 7.6841 4.32759 7.43795C4.63938 7.22051 5.08656 7.3559 5.41477 7.51179L10.986 9.98974C12.8404 10.8759 13.6199 10.7364 15.3266 9.79282L27.3717 3.2041C27.4086 3.18359 27.6548 3.06872 27.7696 3.06872C28.065 3.06872 28.303 3.30256 28.303 3.58974L28.3071 3.59385Z" fill="white" fill-opacity="0.7"/>
</g>
</g>
<defs>
<clipPath id="clip0_2077_915">
<rect width="32" height="32" fill="white" transform="translate(0.09375)"/>
</clipPath>
</defs>
</svg>
