<svg width="115" height="22" viewBox="0 0 115 22" fill="none" xmlns="http://www.w3.org/2000/svg">
<g opacity="0.56" clip-path="url(#clip0_2077_806)">
<path d="M38.6503 0L27.7062 17.1292H8.13674L15.9489 4.87085H30.6764L25.9974 12.1771H16.2735L17.7108 9.83587L25.0073 9.80881L26.6075 7.30627H16.8836L12.2057 14.6937H26.9332L34.7443 2.43542H15.1748L4.06891 19.5646H26.119L24.6143 22H0L14.1989 0H38.6503Z" fill="white" fill-opacity="0.7"/>
<path d="M96.0971 13.3948V21.9188H92.4353V0H111.191C113.291 0 114.743 1.39739 114.897 3.4464C115.029 5.20856 115.04 8.27503 114.897 10.0285C114.735 11.9866 113.266 13.3948 111.273 13.3948H96.0982H96.0971ZM96.0971 10.5535H109.483C110.181 10.5535 110.889 9.97225 111.094 9.31956C111.333 8.55862 111.322 5.5506 111.232 4.66952C111.187 4.23439 110.965 3.53299 110.624 3.24615C110.324 2.99395 109.455 2.76015 109.077 2.76015H96.2209L96.0993 2.88138V10.5535H96.0971Z" fill="white" fill-opacity="0.7"/>
<path d="M70.7099 13.3948V21.9188H67.0481V0H85.8033C88.196 0 89.3685 1.64418 89.5096 3.8523C89.6149 5.49215 89.6974 9.90298 89.1601 11.3047C88.6694 12.583 87.143 13.3948 85.8033 13.3948H70.7088H70.7099ZM70.7099 10.5535H84.0142C84.329 10.5535 85.1433 10.2071 85.3582 9.94519C85.9618 9.20915 85.9086 6.39164 85.8489 5.39474C85.7979 4.55262 85.7382 3.45939 84.8708 3.04266C84.658 2.93983 83.8264 2.76015 83.6082 2.76015H70.711V10.5535H70.7099Z" fill="white" fill-opacity="0.7"/>
<path d="M47.2756 0V18.9151H63.9562V21.9188H43.6138V0H47.2756Z" fill="white" fill-opacity="0.7"/>
</g>
<defs>
<clipPath id="clip0_2077_806">
<rect width="115" height="22" fill="white"/>
</clipPath>
</defs>
</svg>
