<svg  viewBox="0 0 107 18" fill="none" xmlns="http://www.w3.org/2000/svg">
<g opacity="0.56" clip-path="url(#clip0_2077_201)">
<path d="M41.7552 5.66114H39.2401C38.9723 2.73878 35.3668 1.34587 33.121 2.9512C31.9137 3.81456 31.7865 5.73701 33.0337 6.6383C35.4349 8.37108 40.7699 7.68221 41.9076 11.4968C42.7997 14.4889 41.0169 17.0183 38.2074 17.7284C34.1048 18.7647 29.4179 16.8286 29.3261 12.0339L31.8398 11.8837C32.0854 14.9775 34.8978 16.2672 37.6467 15.4843C40.1219 14.7787 40.2092 11.9216 37.8953 10.7578C35.1952 9.39982 29.9963 9.64108 29.622 5.58679C29.156 0.534107 34.636 -1.01053 38.453 0.626663C40.3379 1.4354 41.6812 3.57937 41.7552 5.66114Z" fill="white" fill-opacity="0.7"/>
<path d="M102.403 15.6861L102.415 17.648C100.828 17.8012 99.2875 17.5342 99.0108 15.6754L98.2652 16.6526C95.7383 18.8724 89.8825 18.1927 90.4698 13.8152C90.9862 9.96424 96.1599 10.4968 98.8733 9.51967C98.8969 5.90996 94.17 5.47904 93.1507 8.70183L90.7288 8.54251C91.1844 4.39415 96.8345 3.30016 99.6811 5.50787C102.158 7.43031 100.915 12.1962 101.266 14.9593C101.394 15.5632 101.89 15.6056 102.408 15.6846L102.403 15.6861ZM98.8629 11.5787C98.7268 11.4315 95.4305 12.1097 94.9793 12.2235C94.3653 12.3798 93.6019 12.6135 93.2616 13.1931C92.5958 14.3296 93.2379 15.6906 94.494 15.8317C97.3627 16.1534 98.9768 14.4783 98.8629 11.5772V11.5787Z" fill="white" fill-opacity="0.7"/>
<path d="M47.3772 10.9718L53.0732 4.75073H55.9581L51.2534 10.1342L56.254 17.648H53.665L49.5224 11.7319L47.4038 14.1096C47.2337 15.0685 47.5385 16.3583 47.3787 17.2702C47.3476 17.4431 47.3017 17.5493 47.1553 17.648H44.8621V0.350494H47.1553L47.3772 0.578093V10.9718Z" fill="white" fill-opacity="0.7"/>
<path d="M89.2463 2.47474H86.9531C86.9147 2.47474 86.3569 2.80248 86.2918 2.85862C85.7962 3.30016 86.0462 4.28946 85.9915 4.90246H89.0984V6.87498H85.9915V17.4204L85.7695 17.648H83.4764V7.10258C83.2485 6.63676 81.8267 7.00547 81.701 6.87498V4.90094H83.4778C82.9526 0.936176 85.7074 0.0212303 89.0066 0.368697L89.1827 0.4916L89.2478 2.47322L89.2463 2.47474Z" fill="white" fill-opacity="0.7"/>
<path d="M66.4624 0.350494V14.9927C66.4624 15.6345 67.7895 15.545 68.2378 15.5237V17.648C67.1799 17.6723 65.4238 17.7056 64.6219 16.8802C64.474 16.7285 63.9473 15.7498 63.9473 15.5996V0.350494H66.4624Z" fill="white" fill-opacity="0.7"/>
<path d="M17.4918 14.6133V16.9652L17.2492 17.1715L0.173108 17.126C-0.0340186 16.9849 -0.107992 14.8834 0.255958 14.6133H17.4918Z" fill="white" fill-opacity="0.7"/>
<path d="M0.181975 2.62649L0.0340271 0.19877C2.47368 0.163872 4.92369 0.245807 7.36482 0.206357C9.9613 0.165389 17.5022 0.1138 17.5022 0.1138C17.7078 0.254911 17.5658 2.62649 17.5658 2.62649H0.181975Z" fill="white" fill-opacity="0.7"/>
<path d="M72.8242 0.350494V14.8409C72.8242 14.9304 73.1955 15.4554 73.3671 15.4979L74.7475 15.5237V17.648H72.6022C72.3774 17.648 71.4971 17.2216 71.2707 17.041C71 16.8256 70.457 16.0609 70.457 15.7513V0.350494H72.8242Z" fill="white" fill-opacity="0.7"/>
<path d="M60.5445 4.75073H58.1774V17.648H60.5445V4.75073Z" fill="white" fill-opacity="0.7"/>
<path d="M79.3338 4.75073H76.9667V17.648H79.3338V4.75073Z" fill="white" fill-opacity="0.7"/>
<path d="M106.852 4.75073H104.485V17.648H106.852V4.75073Z" fill="white" fill-opacity="0.7"/>
<path d="M0.0340271 7.33017V5.05419L8.39454 4.90094L8.69783 5.04509V7.33928L8.52177 7.46218L0.0340271 7.33017Z" fill="white" fill-opacity="0.7"/>
<path d="M17.3439 9.7579V12.1098L17.1012 12.3161L8.97596 12.1947C8.83985 11.9853 8.79546 10.0113 9.13278 9.7579H17.3439Z" fill="white" fill-opacity="0.7"/>
<path d="M107 0.350494L106.948 2.55365L106.778 2.77821H104.337V0.350494H107Z" fill="white" fill-opacity="0.7"/>
<path d="M79.3338 0.350494C79.2673 1.16074 79.4418 1.99375 79.3338 2.77821H76.8187V0.350494H79.3338Z" fill="white" fill-opacity="0.7"/>
<path d="M60.5445 0.350494H58.0294V2.77821H60.5445V0.350494Z" fill="white" fill-opacity="0.7"/>
</g>
<defs>
<clipPath id="clip0_2077_201">
<rect width="107" height="18" fill="white"/>
</clipPath>
</defs>
</svg>