<svg width="55" height="22" viewBox="0 0 55 22" fill="none" xmlns="http://www.w3.org/2000/svg">
<g opacity="0.56" clip-path="url(#clip0_2078_950)">
<path d="M53.7661 13.9162C52.593 17.8632 49.5482 21.2071 45.3743 21.821C44.8345 21.9007 44.3414 21.9188 43.8 21.9333H26.8264C26.8092 21.9333 26.7916 21.9333 26.7745 21.9333H9.69701C5.54081 21.7579 1.56992 18.6344 0.613269 14.8989C-0.556198 10.3328 0.613269 6.98523 0.613269 6.98523C1.75055 3.63925 4.54316 0.9967 8.03547 0.234815C8.45332 0.143782 8.90699 0.0501632 9.33366 0.054301C9.34301 0.054301 9.41412 0.109645 9.50911 0.109645C15.9217 0.124128 22.3348 0.0910246 28.7469 0.106024C28.7521 0.137576 28.7454 0.175334 28.7469 0.209471H28.6431L28.695 0.778428H9.74892L28.7469 0.830151L9.51326 0.879805C-2.19491 2.01979 -1.92084 20.0655 9.72089 21.1078L28.3836 21.1574H10.0858L9.90464 21.2091H44.0076C44.019 21.1181 43.8903 21.16 43.8265 21.1574C43.0536 21.1254 42.2417 21.159 41.4642 21.1574C41.5181 21.0716 41.6609 21.1057 41.7491 21.1047C44.5786 21.07 46.5988 21.1486 49.0286 19.4619C55.9073 14.6858 54.1061 2.55978 45.6173 0.985321L45.6432 0.934115L44.5033 0.775842L33.4186 0.778428V0.105507L45.2337 0.161368C45.2923 0.190851 45.3998 0.105507 45.4091 0.106024C46.1337 0.14792 47.2482 0.539466 47.9193 0.837392C50.917 2.1672 52.933 4.83923 53.7661 7.96797C53.7661 7.96797 54.5022 11.4391 53.7661 13.9162Z" fill="white" fill-opacity="0.4"/>
<path d="M6.27124 10.9679C6.32003 9.41468 6.65016 8.11694 7.5575 6.84455C9.12042 4.65251 11.7007 3.6677 14.3687 3.88235V7.19264H17.4313C17.4276 9.77726 16.8535 13.0891 19.6103 14.4608C23.4566 16.3751 27.1415 11.4184 24.1802 8.30366C22.4455 6.47886 19.6503 7.47557 17.4313 7.14092C17.4328 6.05525 17.4302 4.96751 17.4313 3.88183C19.5797 4.00545 21.9352 3.55442 23.9856 4.30803C28.256 5.87732 29.9336 11.104 27.4192 14.8948C24.2041 19.7418 16.798 18.8288 14.7975 13.4119C14.0775 11.4624 14.4694 9.28382 14.3693 7.24385H12.8899C11.6966 7.24385 10.3169 8.56383 9.90526 9.62312L9.84089 9.58433C9.78847 9.80829 9.59381 10.2717 9.59381 10.4766V17.8989H6.37557L9.64572 17.9506H6.27176C6.35792 17.8968 6.32367 17.7545 6.3247 17.6666C6.35066 15.5822 6.26242 13.4874 6.32107 11.405C6.32419 11.2933 6.46382 10.9297 6.27176 10.9679H6.27124Z" fill="white" fill-opacity="0.4"/>
<path d="M36.2735 11.7955C36.2735 11.7862 36.33 11.7164 36.329 11.6207C36.3191 10.1941 36.2761 8.79347 36.3207 7.36901L36.4287 7.29453C36.4344 7.28729 36.3882 7.20195 36.3773 7.19212H39.2322C39.2488 9.68467 38.5802 13.1305 41.2898 14.4261C44.3419 15.8853 47.4117 12.6624 46.2407 9.59622C45.0904 6.58385 41.8478 7.19212 39.2322 7.19212C39.227 6.4442 39.1611 5.69473 39.1777 4.93957C39.1855 4.58992 39.3043 4.24544 39.1803 3.88183C41.3526 3.96872 43.5394 3.56218 45.583 4.45803C49.5892 6.21352 51.1251 11.2679 48.6803 14.9263C45.8566 19.1521 39.7907 18.9778 37.2187 14.603C36.7977 13.8877 36.2797 12.6241 36.2729 11.7955H36.2735Z" fill="white" fill-opacity="0.4"/>
<path d="M29.5774 0.0543158L32.6404 0.0020752V3.88184L32.5361 0.157762V3.93357C32.587 3.91701 32.6487 3.98529 32.6659 3.98529H36.2215V7.14041L36.0134 7.16627L36.2215 7.24386H32.6399V11.6662C32.6399 11.9388 32.9519 12.6583 33.0983 12.9164C33.7507 14.0662 34.9389 14.7634 36.2734 14.7437V18.0023C32.5288 17.9056 29.7539 14.8875 29.5774 11.2266C29.7342 11.2555 29.6781 11.1474 29.6812 11.0481C29.6989 10.5148 29.675 9.97278 29.6698 9.44262C29.6402 6.43128 29.6641 3.37237 29.6283 0.33776C29.6272 0.256037 29.6724 0.185176 29.6812 0.106039H32.588L29.5774 0.0543158Z" fill="white" fill-opacity="0.4"/>
<path d="M33.3668 1.91633L33.3144 1.39858L44.3473 1.39651C55.5104 2.4165 55.5016 19.4883 44.3473 20.5388H9.61673C-1.34137 19.4438 -1.37979 2.36633 9.67176 1.39962H28.7476V1.91685H28.4357L9.56742 1.86461L9.7491 1.91633L8.44156 2.13926C-0.692536 4.32612 -0.0686129 18.6866 9.31464 19.9611L44.0358 20.0216C54.6441 19.2607 55.0977 3.11425 44.3192 1.91633H33.3668Z" fill="white" fill-opacity="0.7"/>
<path d="M17.4311 7.19213C17.4311 7.17507 17.4311 7.15748 17.4311 7.14041C19.6502 7.47454 22.4459 6.47784 24.1801 8.30315C27.1409 11.4184 23.4565 16.3746 19.6102 14.4603C16.8534 13.0881 17.4275 9.77675 17.4311 7.19213Z" fill="white" fill-opacity="0.7"/>
<path d="M9.33374 0.0543179L28.7159 0.00156008C28.7735 -0.00464672 28.7408 0.0688004 28.747 0.106041C22.3354 0.0910414 15.9218 0.124662 9.50919 0.109662C9.4142 0.109662 9.34308 0.0543179 9.33374 0.0543179Z" fill="white" fill-opacity="0.4"/>
<path d="M44.9421 0.0543095L45.1497 0.106033C45.2302 0.117929 45.3257 0.0977571 45.4093 0.106033C45.3999 0.105516 45.2925 0.190859 45.2338 0.161377L33.4187 0.105516V0.778436L44.5035 0.77585L45.6434 0.934123L45.6174 0.985329C45.5406 0.970847 45.4378 0.997743 45.3579 0.985329L45.2541 0.933606C45.1721 0.922744 45.0786 0.941365 44.9945 0.933606L44.7869 0.881883C44.7013 0.87671 44.6135 0.885503 44.5274 0.881883H33.4192C33.385 0.880331 33.3497 0.884469 33.3154 0.881883V0.00206893L44.4002 0C44.5793 0.0299995 44.7635 0.0341374 44.9426 0.0543095H44.9421Z" fill="white" fill-opacity="0.4"/>
<path d="M41.4643 21.1574C42.2419 21.159 43.0537 21.1253 43.8266 21.1574C43.8904 21.16 44.0192 21.1181 44.0078 21.2091H9.90479L10.0859 21.1574H28.3837C30.7455 21.1574 33.1088 21.16 35.4711 21.16H40.4542C40.7848 21.1114 41.1238 21.1569 41.4643 21.1574Z" fill="white" fill-opacity="0.4"/>
<path d="M32.6399 3.88183H36.274L36.2698 7.11764C36.2506 7.22936 36.3669 7.18177 36.3773 7.19212C36.3876 7.20246 36.4344 7.28729 36.4286 7.29453L36.3207 7.36901C36.276 8.79347 36.3191 10.1941 36.329 11.6207C36.3295 11.7164 36.2734 11.7862 36.2734 11.7955C36.2651 11.7303 36.2854 11.6491 36.2734 11.5886L36.2215 11.3817C36.1458 10.0271 36.2781 8.6052 36.2215 7.24384L36.0134 7.16626L36.2215 7.1404V3.98527H32.6659C32.6488 3.98527 32.587 3.917 32.5361 3.93355V0.157745L32.6399 3.88183Z" fill="white" fill-opacity="0.4"/>
<path d="M29.5774 0.0543213L32.588 0.106045H29.6812C29.6729 0.185181 29.6277 0.256042 29.6283 0.337765C29.6641 3.37186 29.6402 6.43129 29.6698 9.44262C29.675 9.97279 29.6989 10.5148 29.6812 11.0481C29.6781 11.1479 29.7342 11.2555 29.5774 11.2266V0.0543213Z" fill="white" fill-opacity="0.4"/>
<path d="M28.747 0.209473C28.7574 0.414814 28.7398 0.624811 28.747 0.830152L9.74902 0.778429H28.6951L28.6432 0.20999H28.747V0.209473Z" fill="white" fill-opacity="0.4"/>
<path d="M28.4356 1.91635H9.74903L9.56787 1.86411L28.4356 1.91635Z" fill="white" fill-opacity="0.7"/>
<path d="M9.90468 9.62311C9.86316 9.72966 9.82994 9.8719 9.80087 9.98518L9.74896 10.0886C9.69186 10.3524 9.71159 10.67 9.64307 10.94L9.64515 17.9506L6.375 17.8988H9.59324V10.4765C9.59324 10.2717 9.78841 9.80828 9.84032 9.58432L9.90468 9.62311Z" fill="white" fill-opacity="0.4"/>
<path d="M44.5268 0.881867C40.8658 0.731352 37.0704 1.05928 33.4187 0.881867H44.5268Z" fill="white" fill-opacity="0.4"/>
<path d="M6.27112 10.9679C6.4637 10.9297 6.32355 11.2933 6.32043 11.405C6.26126 13.4879 6.35002 15.5822 6.32407 17.6666C6.32303 17.754 6.35729 17.8968 6.27112 17.9506C6.32562 15.6272 6.19845 13.2903 6.27112 10.9679Z" fill="white" fill-opacity="0.4"/>
<path d="M45.1495 0.106045L44.9419 0.0543213C45.0421 0.0657004 45.1168 0.10139 45.1495 0.106045Z" fill="white" fill-opacity="0.4"/>
<path d="M44.994 0.93359C44.8964 0.92428 44.7973 0.882384 44.7864 0.881866L44.994 0.93359Z" fill="white" fill-opacity="0.4"/>
<path d="M36.2736 11.5886C36.2637 11.5374 36.2284 11.5022 36.2217 11.3817L36.2736 11.5886Z" fill="white" fill-opacity="0.4"/>
<path d="M45.3572 0.985317C45.269 0.971869 45.2591 0.934111 45.2534 0.933594L45.3572 0.985317Z" fill="white" fill-opacity="0.4"/>
<path d="M9.74902 10.0886L9.80093 9.9852C9.7838 10.0514 9.75006 10.083 9.74902 10.0886Z" fill="white" fill-opacity="0.4"/>
<path d="M26.7745 21.9333C21.0828 21.9317 15.3886 21.9343 9.69702 21.9333H26.7745Z" fill="white" fill-opacity="0.4"/>
<path d="M43.8 21.9333C38.1936 22.0828 32.4485 21.9338 26.8264 21.9333H43.8Z" fill="white" fill-opacity="0.4"/>
<path d="M39.2323 7.19212C41.8479 7.19212 45.0906 6.58386 46.2408 9.59622C47.4119 12.6624 44.3421 15.8853 41.2899 14.4261C38.5804 13.1305 39.2489 9.68467 39.2323 7.19212Z" fill="white" fill-opacity="0.7"/>
</g>
<defs>
<clipPath id="clip0_2078_950">
<rect width="54" height="22" fill="white" transform="translate(0.09375)"/>
</clipPath>
</defs>
</svg>
