<svg width="93" height="22" viewBox="0 0 93 22" fill="none" xmlns="http://www.w3.org/2000/svg">
<g opacity="0.56" clip-path="url(#clip0_2077_724)">
<path d="M11.7332 1.39789C11.7717 1.67048 11.6083 1.87675 11.5899 2.14934C11.432 4.47918 11.5863 7.47943 10.9803 9.68772C10.3193 12.0949 8.26097 14.0435 5.907 14.771C3.02606 14.0122 0.839184 11.4687 0.444408 8.5053C0.213051 6.76298 0.253447 4.76097 0.172655 2.97629C0.150621 2.50112 -0.145001 1.91727 0.0900279 1.385C0.477459 1.23766 0.844692 1.02033 1.22845 0.869303C4.22875 -0.298382 7.64585 -0.303908 10.6333 0.906138C11.0005 1.05532 11.3274 1.33896 11.7313 1.39421L11.7332 1.39789ZM4.57762 1.39421L4.29852 0.979809L4.15897 1.3279L3.88906 1.40526L3.9827 1.7423L3.74584 2.08303L4.28567 2.10145L4.29669 2.3593H4.57211L4.65107 2.07567L5.12296 2.08303L4.85855 1.7202L4.98525 1.25423L4.57578 1.39053L4.57762 1.39421ZM7.87905 1.25792L7.54486 1.39237L7.25842 0.981651L6.97198 1.39237L6.6378 1.25792V2.08672L7.05828 2.14749L7.32452 2.50112L7.45489 2.14749L7.87721 2.08672C7.63116 1.75704 7.82947 1.60049 7.87721 1.25792H7.87905ZM0.855709 1.53418C0.152458 1.5876 0.547233 2.08303 0.578448 2.43481C0.745539 4.32447 0.672093 6.34306 0.859382 8.23088C1.07789 10.4355 2.54865 12.6696 4.47847 13.7175C5.32127 14.1761 5.81152 14.4321 6.73879 13.9975C9.22496 12.8298 10.7067 10.3802 10.9069 7.68019C11.0189 6.16809 11.0978 4.63573 11.1915 3.131C11.219 2.67608 11.3678 1.49366 10.7728 1.53603C10.7416 2.20091 10.8114 2.87868 10.7784 3.5454C10.7655 3.78852 10.6425 3.97822 10.6278 4.22317C10.5562 5.46453 10.6168 6.87165 10.4937 8.09459C10.2606 10.4097 8.49049 13.0434 6.23568 13.7673C5.4957 14.0048 4.25629 13.2018 3.6779 12.7266C0.688618 10.2752 1.25232 6.56775 0.99893 3.11627C0.962207 2.62451 0.741867 2.08856 0.855709 1.53418ZM6.50192 3.19178L6.15305 3.3115L5.94924 2.91551L5.67014 3.32991L5.26067 3.19362L5.38737 3.65959L5.12296 4.02242C5.50121 3.95059 5.67197 4.09609 5.94924 4.29869L5.96025 4.04084L6.50192 4.02242C6.25771 3.69274 6.45051 3.53619 6.50192 3.19362V3.19178ZM7.19048 7.47391L5.88313 5.26378L4.64372 7.47391L4.0231 6.50698C3.81377 6.46462 3.73298 6.57328 3.60812 6.71141C3.0536 7.3192 2.62577 8.24193 2.02718 8.85524C1.70218 9.52196 2.38707 10.0377 2.99484 10.1003C3.52733 10.1537 3.97719 9.67299 4.50601 9.67299C4.96505 9.67299 5.4296 10.0819 5.74909 10.1058C6.14938 10.1353 6.7443 9.70614 7.12805 9.68035C7.51181 9.65457 7.92495 10.0045 8.24628 10.0782C8.80264 10.2053 9.81069 9.83691 9.81253 9.20333C9.81253 8.79262 8.21874 7.02636 7.94882 6.51066C7.74684 6.45172 7.20334 7.26579 7.19232 7.47759L7.19048 7.47391ZM9.25617 10.5128C8.98442 10.4594 8.76775 10.6749 8.50518 10.6565C8.12142 10.6307 7.53201 10.2034 7.12805 10.231C6.7241 10.2587 6.15305 10.6841 5.75093 10.6565C5.34881 10.6289 4.90446 10.2237 4.50601 10.2274C3.84315 10.2329 3.63567 10.7523 2.78736 10.5791C2.66066 10.5534 2.36504 10.4318 2.50826 10.721C2.84244 11.3932 4.07635 10.5828 4.64005 10.6547C5.00177 10.7007 5.58567 11.0672 5.8813 11.0672C6.3385 11.0672 6.74613 10.5626 7.39613 10.6528C7.71379 10.697 8.18018 11.0709 8.49783 11.0672C8.66125 11.0654 8.83753 10.8959 9.03032 10.9309L9.25617 10.5147V10.5128ZM8.4299 11.4798C7.97269 11.5811 7.69176 11.2146 7.26209 11.1961C6.69288 11.1704 6.29627 11.5976 5.47 11.4798C5.22762 11.4448 5.08256 11.268 4.89895 11.2256C4.38849 11.1077 4.09471 11.3214 3.64852 11.4521C3.4447 11.5111 3.28679 11.3803 3.33453 11.6879C3.38227 11.9955 3.90925 12.3196 4.16815 12.5093C4.69513 12.8961 5.26251 13.2055 5.88313 13.4155C6.72593 13.1245 7.64769 12.5885 8.22608 11.8942C8.34176 11.7542 8.48865 11.7174 8.43173 11.4798H8.4299Z" fill="white" fill-opacity="0.7"/>
<path d="M55.5275 16.1763L56.7008 16.3107L57.797 18.9408L58.144 19.4915V16.3826L58.3552 16.18H58.7591L58.9703 16.3826V20.5966L57.74 20.5873L57.1139 19.0753L56.3537 17.5576V20.5966H55.5275V16.1763Z" fill="white" fill-opacity="0.7"/>
<path d="M64.7543 16.1763L65.9294 16.3089L67.0238 18.9408L67.3708 19.4915V16.3826L67.5838 16.1781L68.1971 16.3144V20.5966L66.9669 20.5873L65.5805 17.5576V20.5966H64.7543V16.1763Z" fill="white" fill-opacity="0.7"/>
<path d="M43.1334 20.5966V16.1763C43.3593 16.1763 43.5098 16.3108 43.7504 16.3237C44.0809 16.3421 44.3214 16.1505 44.573 16.1708C44.8245 16.191 45.5535 16.3807 45.7481 16.5244C46.0933 16.7823 46.22 17.2059 46.1649 17.6258C46.1209 17.9481 45.7151 18.3036 45.7555 18.4435C46.3063 18.7879 46.3687 19.8562 45.9593 20.3203C45.9115 20.3737 45.57 20.5947 45.5443 20.5947H43.1353L43.1334 20.5966ZM45.1954 17.9684L45.0669 17.0696L43.9597 17.0051V18.1102L45.1954 17.9684ZM43.9597 19.9059C44.9549 20.0514 45.974 19.8009 44.9751 18.8174L43.9597 18.799V19.9041V19.9059Z" fill="white" fill-opacity="0.7"/>
<path d="M23.4406 8.85526L24.4119 8.91787L25.2308 10.7891C25.4346 10.7744 25.4475 10.5828 25.5099 10.4484C25.7449 9.94374 25.9524 9.42252 26.1856 8.91603L27.157 8.85526V13.2755H26.4684V10.0985C26.2095 10.1353 26.2352 10.3913 26.1617 10.5497C25.8827 11.1409 25.7376 12.1815 24.8838 11.6198L24.1291 10.0985V13.2755H23.4406V8.85526Z" fill="white" fill-opacity="0.7"/>
<path d="M31.1524 20.5966V16.3826C31.3929 16.005 31.5894 16.3237 31.9089 16.3255C32.1567 16.3255 32.3495 16.1505 32.5901 16.1708C32.8618 16.1929 33.3007 16.3863 33.6367 16.3752C34.7494 16.7141 34.6521 19.5523 34.1123 20.1822C34.0572 20.2466 33.4623 20.5947 33.4219 20.5947H31.1487L31.1524 20.5966ZM32.1163 19.9059C33.8956 20.3203 33.8919 18.3975 33.3594 17.2077C32.9775 16.9388 32.5589 16.9996 32.1163 17.0051V19.9059Z" fill="white" fill-opacity="0.7"/>
<path d="M38.3135 20.5966C37.9958 20.6113 37.6708 20.591 37.3532 20.5929L36.7326 18.9371L35.9724 17.5576V20.5966H35.1461V16.3826C35.1461 16.0713 36.1321 16.1487 36.3653 16.3347C36.7821 17.1617 37.0704 18.0586 37.4597 18.8966C37.5588 19.1066 37.658 19.4178 37.9004 19.4915V16.1763H38.5889C38.5908 16.3586 38.5853 16.5447 38.5889 16.7288C38.3502 16.843 38.4531 17.2611 38.4512 17.4895C38.4439 18.2704 38.4733 19.0568 38.4512 19.8378C38.4439 20.1103 38.4916 20.3571 38.3135 20.5966Z" fill="white" fill-opacity="0.7"/>
<path d="M28.0805 16.2039C29.0941 16.029 29.9608 16.2076 30.2968 17.2427C30.6328 18.2778 30.5851 20.4234 29.2704 20.7126C28.176 20.9539 27.1092 20.5837 26.9091 19.3957C26.731 18.3422 26.764 16.4323 28.0805 16.2039ZM28.4882 16.8854C28.2825 16.983 27.9336 17.1414 27.8657 17.3698C27.8253 17.5079 27.7262 18.0291 27.7115 18.182C27.6637 18.6811 27.8308 19.1452 27.9116 19.6333C28.3578 20.2319 29.3144 20.1545 29.476 19.3994C29.566 18.9776 29.5862 17.2961 29.23 17.0677L28.4863 16.8854H28.4882Z" fill="white" fill-opacity="0.7"/>
<path d="M29.913 8.85527L31.0863 8.98972L32.1825 11.6198L32.5295 12.1705V8.85527H33.2181V13.2755L32.1255 13.2663C31.7179 12.3602 31.369 11.4116 30.9486 10.5092C30.8733 10.3471 30.8035 10.1316 30.6015 10.0966V13.2737H29.913V8.85342V8.85527Z" fill="white" fill-opacity="0.7"/>
<path d="M85.2312 16.2039C86.7002 15.9442 87.4916 16.576 87.6201 18.0365C87.6697 18.6075 87.5026 19.8893 87.1335 20.3221C86.6598 20.8765 85.3451 20.8378 84.7245 20.5266C83.8394 19.9943 83.856 17.8302 84.2379 17.0033C84.4417 16.5631 84.752 16.2887 85.2312 16.2039ZM85.1505 17.0198C84.7722 17.7989 84.5519 19.7807 85.6389 20.0256C86.0685 20.1214 86.5331 19.8322 86.6267 19.3994C86.7002 19.0532 86.7002 17.8597 86.6267 17.5116C86.4817 16.832 85.6848 16.8228 85.1505 17.0198Z" fill="white" fill-opacity="0.7"/>
<path d="M44.8557 8.85526C44.9108 8.86447 45.3441 9.0689 45.4139 9.12416C45.8013 9.43542 45.827 10.2421 45.7279 10.697C45.6507 11.0543 45.1917 11.2993 45.1917 11.5479L46.0253 13.2755L45.054 13.2129L44.3581 11.6327C44.1469 11.57 43.989 11.4872 43.7558 11.4761C43.4914 11.4632 43.5575 11.4595 43.5465 11.6842C43.5226 12.2128 43.563 12.7488 43.5465 13.2755H42.7202V8.85526C43.3739 8.93261 44.2314 8.75028 44.8538 8.85526H44.8557ZM43.5465 10.7891L44.7914 10.7247C45.3147 9.67116 44.4444 9.44278 43.5465 9.54408V10.7873V10.7891Z" fill="white" fill-opacity="0.7"/>
<path d="M57.9604 8.87734C58.2744 8.8092 59.2531 8.8092 59.5671 8.87734C59.9123 8.95285 60.1399 9.23833 60.2813 9.54222C60.6559 10.3489 60.711 12.8685 59.6662 13.2129C59.0842 13.4044 58.4433 13.4044 57.8613 13.2129C57.505 13.095 57.1452 12.5683 57.0644 12.2165C56.8954 11.489 56.8954 10.6454 57.0699 9.91794C57.1764 9.47592 57.4867 8.98232 57.9604 8.87734ZM58.368 9.56248C58.1881 9.61405 57.931 10.0045 57.8925 10.1887C57.7805 10.7025 57.7529 12.3878 58.368 12.5664C58.7316 12.6033 59.2659 12.6769 59.4551 12.3104C59.725 11.7818 59.8241 9.90321 59.2494 9.61037C59.007 9.52012 58.6049 9.49434 58.368 9.56248Z" fill="white" fill-opacity="0.7"/>
<path d="M80.1322 8.87736C80.4351 8.81106 81.3 8.81106 81.6011 8.87736C81.9591 8.95656 82.3007 9.35254 82.4531 9.68038C82.8277 10.4908 82.835 13.014 81.7388 13.2516C80.9456 13.4229 79.5776 13.3695 79.2765 12.4522C78.9754 11.535 78.8817 9.14995 80.1322 8.87736ZM81.535 12.4265C81.9059 11.5111 81.9757 10.4613 81.423 9.60671C81.0227 9.46121 80.5765 9.53304 80.1964 9.70248C80.0018 9.89771 79.9651 11.7708 80.0569 12.0821C80.2221 12.6456 81.0815 12.7046 81.535 12.4246V12.4265Z" fill="white" fill-opacity="0.7"/>
<path d="M72.1448 8.87737C72.4147 8.81843 73.5109 8.8037 73.7551 8.87368C73.8084 8.88842 74.2784 9.21257 74.3262 9.26782C74.8201 9.83325 74.8219 12.2939 74.3262 12.8611C74.2784 12.9164 73.8065 13.2387 73.7551 13.2553C73.3365 13.3768 72.1522 13.316 71.7812 13.0637C71.313 12.7451 71.1239 11.8297 71.0835 11.279C71.0303 10.5663 71.3277 9.05786 72.1448 8.87737ZM72.5524 9.56251C71.941 9.73932 71.9832 11.303 72.053 11.8242C72.0897 12.0894 72.2678 12.3436 72.4625 12.5186C72.7636 12.6733 73.3181 12.5941 73.5715 12.3804C73.9314 12.0784 74.0159 9.96402 73.4338 9.61039C73.2355 9.5091 72.7618 9.50173 72.5524 9.56251Z" fill="white" fill-opacity="0.7"/>
<path d="M72.6039 16.3826C72.681 16.0861 73.1107 16.3384 73.3641 16.3237C73.9002 16.2905 73.8268 16.2003 74.4658 16.3108C74.6328 16.3402 74.8201 16.2831 74.9927 16.3329C75.0184 16.3402 75.4499 16.5944 75.4701 16.6147C75.7456 16.8983 75.8117 18.6793 75.0901 18.6701L75.909 20.5947L74.9376 20.5321C74.4382 19.9077 74.4602 18.6995 73.4302 18.9371V20.5947H72.6039V16.3808V16.3826ZM74.7999 17.1506L73.4302 17.0051V18.2483C74.3978 18.3257 74.9762 18.2833 74.7999 17.1506Z" fill="white" fill-opacity="0.7"/>
<path d="M68.1934 8.85893L69.4365 13.2755H68.4743L68.3311 12.3123L66.9007 12.3196L66.539 13.2681L65.7201 13.2737L66.9668 8.86077L68.1952 8.85709L68.1934 8.85893ZM68.0594 11.6179L67.8886 10.7541L67.5783 9.82218C67.1615 10.3121 67.2331 11.0543 66.9577 11.6179H68.0594Z" fill="white" fill-opacity="0.7"/>
<path d="M71.9153 16.3145V17.0051H69.9873V18.1102L71.6399 18.182V18.8008H69.9873V19.9059H71.9153V20.5966H69.0233V16.3826L69.229 16.1837C69.2841 16.1837 69.33 16.3126 69.3667 16.3126H71.9153V16.3145Z" fill="white" fill-opacity="0.7"/>
<path d="M75.4959 8.85526H76.3221L76.3919 10.651C76.6269 10.6915 76.6618 10.465 76.761 10.3305C77.0988 9.88112 77.3761 9.38016 77.6919 8.91603L78.6632 8.85526L77.2971 10.8757L78.6632 13.2755L77.6919 13.2129C77.3632 12.6677 77.0474 12.1115 76.7169 11.5663C76.6141 11.3951 76.5388 11.2993 76.3203 11.3417V13.2755H75.494V8.85526H75.4959Z" fill="white" fill-opacity="0.7"/>
<path d="M79.6272 20.4584C78.5071 20.871 77.13 21.0165 76.5222 19.7751C76.2615 18.8229 76.1936 16.9406 77.1888 16.4231C77.9214 16.0437 78.7201 16.1505 79.4895 16.3163L79.4821 16.7896L79.2783 16.9996C78.4245 16.8246 77.3816 16.7896 77.2824 17.8965C77.1833 19.0034 77.2145 20.0661 78.5898 20.0367C78.9754 19.9262 78.7422 18.7345 78.8028 18.3846H79.629V20.4566L79.6272 20.4584Z" fill="white" fill-opacity="0.7"/>
<path d="M91.3327 8.85526V9.54592L89.6233 9.55697L89.469 9.67853L89.4048 10.651L90.9765 10.662C91.1289 10.7394 91.1822 10.8204 91.1987 10.9936C91.274 11.8131 89.9317 11.3766 89.4048 11.4798L89.537 12.5222L91.3327 12.5848V13.2755H88.5785V8.85526H91.3327Z" fill="white" fill-opacity="0.7"/>
<path d="M61.1737 16.1763C62.0863 16.121 63.0393 16.5612 63.928 16.1763V17.0051H62V18.1102H63.7902V18.729L62 18.8008V19.9059L63.8472 19.9169L64.0565 20.1214L64.0657 20.5966H61.1737V16.1763Z" fill="white" fill-opacity="0.7"/>
<path d="M23.4406 16.1763C24.265 16.1376 25.0821 16.2021 25.879 16.4231C26.6649 16.7749 26.5675 17.8597 26.2627 18.5246C25.9598 19.0145 24.8012 19.1103 24.2668 19.0771V20.5966H23.4406V16.1763ZM24.2668 18.2483C25.0656 18.3146 25.901 18.3073 25.5797 17.2777L25.2841 17.0217L24.2687 17.0033V18.2465L24.2668 18.2483Z" fill="white" fill-opacity="0.7"/>
<path d="M53.8695 8.86078L54.7031 12.3086C54.9803 12.257 54.9308 12.0231 54.9895 11.8352C55.2796 10.8867 55.5128 9.82403 55.6689 8.85526H56.6311L55.511 13.049L55.3109 13.2626L54.1596 13.2681L53.0505 8.85526L53.8713 8.86078H53.8695Z" fill="white" fill-opacity="0.7"/>
<path d="M51.6716 16.3144V17.0051H49.7436V18.1102L51.3962 18.182V18.8008H49.7436V19.9059H51.6716V20.5966H48.7796C48.7117 20.4124 48.9173 20.2706 48.9173 20.2503V16.5207C48.9173 16.4765 48.7796 16.4305 48.7796 16.3826L48.9853 16.1763C49.033 16.1763 49.0789 16.3144 49.123 16.3144H51.6716Z" fill="white" fill-opacity="0.7"/>
<path d="M39.5529 16.3145C39.786 16.3771 39.988 16.1855 40.179 16.1708C40.4048 16.1524 40.5554 16.3016 40.7262 16.3126C41.2495 16.3458 41.7838 16.2942 42.3071 16.3145V17.0051H40.3791V18.1102L42.0317 18.182V18.8008H40.3791V19.9059H42.3071V20.5966H39.5529V16.3145Z" fill="white" fill-opacity="0.7"/>
<path d="M38.4512 9.68406C38.3796 9.75589 36.6921 9.12968 36.6903 10.0303C36.6903 10.5921 37.7516 10.7007 38.1353 10.8978C39.0957 11.3914 38.8643 13.1337 37.8305 13.2755C37.5459 13.3142 36.1339 13.3179 35.9668 13.2111C35.7263 13.0563 35.7979 12.5167 36.0476 12.4486C36.2478 12.3951 36.4167 12.5701 36.5948 12.5812C37.2834 12.6272 37.9389 12.7396 37.7461 11.8389C37.3072 11.2017 36.1964 11.4337 35.9044 10.6473C35.6786 10.0395 35.8401 9.13705 36.5158 8.9142C37.1218 8.71528 37.6157 8.80737 38.2327 8.86447C38.5503 9.02286 38.442 9.36911 38.4512 9.68037V9.68406Z" fill="white" fill-opacity="0.7"/>
<path d="M49.055 9.68406C48.9926 9.74852 47.5567 9.2494 47.4116 9.76325C47.1509 10.686 48.1773 10.6105 48.7392 10.8978C49.694 11.3877 49.5159 13.1282 48.4344 13.2755C48.1479 13.3142 46.7451 13.3197 46.5725 13.2092C46.2861 13.0287 46.6515 12.7119 46.5762 12.4467L48.1461 12.572L48.3022 12.4522C48.8861 11.4485 47.788 11.5571 47.1674 11.2348C46.4678 10.8702 46.2291 9.94559 46.6459 9.2715C47.0242 8.66187 48.2232 8.7908 48.8365 8.86815C49.1542 9.02654 49.0458 9.3728 49.055 9.68406Z" fill="white" fill-opacity="0.7"/>
<path d="M65.3051 8.85526C65.3069 9.14441 65.3363 9.40595 65.2427 9.69142C65.037 10.3139 64.0069 11.4098 63.6489 12.0986C63.5644 12.2607 63.4506 12.3436 63.513 12.5848H65.441C65.4851 12.7727 65.4208 13.2755 65.2353 13.2755H62.4113C62.3985 12.9329 62.3764 12.6677 62.5196 12.3491C62.9163 11.4724 63.8839 10.5092 64.3393 9.61591L62.549 9.54776V8.8571H65.3033L65.3051 8.85526Z" fill="white" fill-opacity="0.7"/>
<path d="M38.4512 5.81634V1.60236C38.4512 1.51764 38.6697 1.40713 38.7909 1.39055C40.4655 1.16033 42.1107 1.81416 40.9337 3.6633C41.4717 3.9672 41.4974 5.13304 41.1375 5.54007C41.0897 5.59348 40.7482 5.8145 40.7225 5.8145H38.4493L38.4512 5.81634ZM40.6399 1.96335L39.002 1.81048V3.46808L40.6399 3.31521C40.851 2.84371 40.8492 2.433 40.6399 1.96335ZM39.002 5.40194L40.6619 5.33932C41.064 4.97465 41.0218 3.95615 40.4526 3.87879C40.0101 3.81801 39.4611 3.93036 39.002 3.88247V5.40194Z" fill="white" fill-opacity="0.7"/>
<path d="M42.1693 8.85526V9.54592H41.0676V13.2755H40.1037V9.54592H39.002V8.85526H42.1693Z" fill="white" fill-opacity="0.7"/>
<path d="M73.5679 1.60235C73.6303 1.3666 74.1683 1.28556 74.3262 1.53236C74.8495 2.68715 75.5142 3.78485 76.0228 4.94517C76.1036 5.12935 76.0081 5.16987 76.3221 5.12382V1.39607L76.7353 1.60235V5.81633L75.9182 5.80712C75.4224 4.7039 74.9175 3.55647 74.3262 2.49929C74.2399 2.34458 74.1922 2.11805 73.981 2.08674V5.81633H73.5679V1.60235Z" fill="white" fill-opacity="0.7"/>
<path d="M65.1416 1.69811C65.2481 1.7994 65.5089 2.4164 65.5529 2.59689C65.7035 3.21757 65.6943 4.01506 65.5786 4.63942C65.2426 6.44068 62.5875 6.49409 62.3048 4.47366C62.1505 3.3686 62.1946 1.57839 63.5864 1.3979C63.9922 1.34448 64.846 1.41447 65.1416 1.69811ZM63.6066 1.83256C63.2871 1.90438 62.9199 2.2709 62.8501 2.59137C62.7693 2.96156 62.773 4.24344 62.8281 4.64126C62.9548 5.57136 64.0363 5.73343 64.7597 5.33561C65.3197 4.70757 65.3565 2.53427 64.756 2.01489C64.4255 1.78651 63.9977 1.74415 63.6066 1.83071V1.83256Z" fill="white" fill-opacity="0.7"/>
<path d="M23.5783 1.39606C24.511 1.41632 25.5558 1.21557 26.2664 1.94675C26.5492 2.66688 26.4353 3.79405 25.5062 3.8843L26.4702 5.81816C26.2315 5.81816 26.0369 5.88262 25.8478 5.68187C25.6586 5.48112 25.128 4.0298 25.0141 4.01506L23.9896 4.02059V5.81632H23.5764V1.39606H23.5783ZM23.9914 3.60619C24.467 3.6375 25.7449 3.65408 25.9028 3.10523C26.2499 1.88781 25.0784 1.61523 24.1236 1.87308L23.9914 3.60619Z" fill="white" fill-opacity="0.7"/>
<path d="M52.7732 8.85526V9.54592H51.6715V13.2755H50.8452V9.75404C50.8452 9.4612 49.8666 9.55329 49.6058 9.54776V8.8571H52.7732V8.85526Z" fill="white" fill-opacity="0.7"/>
<path d="M36.9364 1.39605C37.3936 1.27449 37.4652 1.61522 37.4927 2.0112C37.5515 2.81053 37.5588 4.76834 37.1383 5.39823C36.6701 6.09994 35.2012 6.16072 34.6632 5.54189C34.4428 5.28772 34.5218 4.90279 34.3198 4.6431V1.60233L34.5273 1.39605L34.8707 1.60233V4.91753C34.8707 4.94331 35.091 5.28588 35.1443 5.33377C35.6988 5.82736 36.5673 5.45348 36.9364 4.91753V1.39605Z" fill="white" fill-opacity="0.7"/>
<path d="M30.0508 1.81046H27.8474V3.46805H29.7753C29.8451 4.25449 28.0218 3.70748 27.8474 3.88245V5.40192H29.8451L30.0508 5.81632H27.2965V1.60234L27.5022 1.39606H29.8433L30.0489 1.81046H30.0508Z" fill="white" fill-opacity="0.7"/>
<path d="M47.127 16.1763C47.4392 16.1855 47.7825 16.0769 47.9423 16.3955C47.8688 17.7253 48.08 19.2263 47.9588 20.534C47.889 21.2836 47.3639 21.7993 46.6478 21.9798L46.3136 21.3554C46.4366 21.151 46.7157 21.127 46.8589 20.952C46.9122 20.8857 47.1252 20.4216 47.1252 20.3903V16.1763H47.127Z" fill="white" fill-opacity="0.7"/>
<path d="M83.2077 16.1763V20.9428C83.2077 21.208 82.2235 22.1566 81.8306 21.9797L81.6929 21.1509C82.106 21.2246 82.3263 20.9152 82.3814 20.5284C82.5577 19.2834 82.2419 17.6847 82.3943 16.3973C82.5522 16.0787 82.8974 16.1874 83.2095 16.1782L83.2077 16.1763Z" fill="white" fill-opacity="0.7"/>
<path d="M30.877 1.60236C30.9559 1.30399 32.0374 1.3703 32.3202 1.39792C32.4763 1.41266 32.9941 1.51027 33.1299 1.55263C33.3337 1.61525 33.6991 2.10148 33.7469 2.31513C33.9764 4.08323 32.8563 4.12927 31.4278 4.01877V5.8145H30.877V1.60236ZM31.4278 3.60621C31.9731 3.54359 33.1171 3.86774 33.2217 3.12551C33.4127 1.76996 32.5185 1.78285 31.4278 1.81048V3.60621Z" fill="white" fill-opacity="0.7"/>
<path d="M87.6146 8.85526V13.6218C87.6146 13.9514 86.6561 14.725 86.2411 14.5169L86.1052 13.8354L86.7883 13.3455V8.85526H87.6146Z" fill="white" fill-opacity="0.7"/>
<path d="M84.3094 8.85526V12.5848H86.0997V13.2755H83.4832V8.85526H84.3094Z" fill="white" fill-opacity="0.7"/>
<path d="M72.6038 1.39606V1.81046H70.5382V3.46805H72.3284V3.88245H70.5382V5.40192H72.6038V5.81632H69.9873V1.60234L70.1948 1.39606H72.6038Z" fill="white" fill-opacity="0.7"/>
<path d="M84.3094 5.81634L83.764 5.81265L83.6153 4.85493L81.7736 4.86046L81.4119 5.81081L80.8666 5.81449L82.1372 1.90809L82.4567 1.39792L82.868 1.52684L84.3094 5.81265V5.81634ZM83.3454 4.43501L82.9047 2.73689L82.521 1.94861L81.8324 4.43501H83.3472H83.3454Z" fill="white" fill-opacity="0.7"/>
<path d="M52.3546 1.40158L53.7373 5.81632L53.2507 5.68187L53.0413 4.85491H51.1262L50.8361 5.80895L50.2926 5.81632L51.8846 1.40526L52.3509 1.40158H52.3546ZM52.7733 4.43498C52.8687 4.34105 52.3454 2.56374 52.2279 2.28747C52.1673 2.1475 52.1435 1.96516 51.947 1.94859L51.2584 4.43498H52.7733Z" fill="white" fill-opacity="0.7"/>
<path d="M47.6779 1.39606V3.32992C48.5244 3.46069 48.8475 2.27643 49.3286 1.73863C49.5324 1.51025 49.6757 1.32975 50.019 1.39606L48.6345 3.5362L50.019 5.81632C49.7748 5.81632 49.593 5.87894 49.3984 5.68003C49.0477 5.3172 48.6529 4.45156 48.2912 4.02795C47.9295 3.60435 47.7201 3.64855 47.6742 4.22502C47.6338 4.73888 47.711 5.29878 47.6779 5.81816H47.2648V1.39606H47.6779Z" fill="white" fill-opacity="0.7"/>
<path d="M81.4175 20.5966H80.4535V16.3826C80.4535 16.099 81.4175 16.099 81.4175 16.3826V20.5966Z" fill="white" fill-opacity="0.7"/>
<path d="M58.1423 1.53789V1.94861C57.4684 1.74417 56.139 1.56367 56.2088 2.56744C56.3961 3.59331 57.7163 3.30047 58.2084 4.02613C58.5609 4.54551 58.4305 5.00411 58.2157 5.54559C57.4959 6.13496 56.6458 5.99314 55.8012 5.81633V5.40378C55.8911 5.31353 57.7457 5.94894 57.8705 5.06305C58.1056 3.39256 55.9903 4.20294 55.8012 2.84923C55.5863 1.30214 56.9708 1.18795 58.1404 1.54157L58.1423 1.53789Z" fill="white" fill-opacity="0.7"/>
<path d="M66.5408 1.39792L67.6462 5.26381C67.8537 5.23986 67.8647 5.06858 67.9179 4.91571C68.254 3.9451 68.4082 2.60244 68.8562 1.71287C68.9554 1.51395 69.038 1.34819 69.2987 1.39608L68.1787 5.59164L67.9785 5.80529L67.3781 5.81081L66.1313 1.39792H66.5408Z" fill="white" fill-opacity="0.7"/>
<path d="M35.0084 8.85526H34.1821V13.2755H35.0084V8.85526Z" fill="white" fill-opacity="0.7"/>
<path d="M54.5636 16.1763H53.7373V20.5966H54.5636V16.1763Z" fill="white" fill-opacity="0.7"/>
<path d="M28.949 8.85526H28.1227V13.2755H28.949V8.85526Z" fill="white" fill-opacity="0.7"/>
<path d="M42.7203 5.40192H44.786V5.81632H42.3071V1.39606L42.7221 1.46236L42.8616 1.73679C42.7955 2.78107 42.9333 3.89166 42.8616 4.9249C42.847 5.12749 42.8066 5.23063 42.7184 5.40192H42.7203Z" fill="white" fill-opacity="0.7"/>
<path d="M80.1781 1.39608V6.02262C80.1781 6.05393 79.9651 6.51437 79.91 6.58252C79.7576 6.77406 79.3922 6.9435 79.1443 6.91956C78.8193 6.43517 79.405 6.52542 79.5593 6.23074C79.9265 5.53271 79.6492 4.98938 79.6199 4.3687C79.5721 3.38151 79.5905 2.35564 79.7649 1.3924H80.1762L80.1781 1.39608Z" fill="white" fill-opacity="0.7"/>
<path d="M59.6589 1.39606V5.40192H61.7246V5.81632H59.2457V1.39606H59.6589Z" fill="white" fill-opacity="0.7"/>
<path d="M78.3878 1.39606V5.81632H77.8369V1.60234L78.0444 1.39606H78.3878Z" fill="white" fill-opacity="0.7"/>
<path d="M46.0253 1.39606H45.6122V5.81632H46.0253V1.39606Z" fill="white" fill-opacity="0.7"/>
<path d="M92.159 14.1043L92.304 13.3492L92.0121 13.1982L92.0323 12.5259C92.1223 12.2054 92.8824 12.2073 92.9724 12.5259C93.1083 12.804 92.6896 14.2406 92.5023 14.2406L92.159 14.1043Z" fill="white" fill-opacity="0.7"/>
<path d="M38.5889 16.7289C38.6109 18.0163 38.5724 19.3092 38.5889 20.5966C38.4971 20.6003 38.4053 20.5929 38.3135 20.5966C38.4916 20.3571 38.4438 20.1103 38.4512 19.8378C38.4732 19.0569 38.4438 18.2704 38.4512 17.4895C38.453 17.263 38.3502 16.8449 38.5889 16.7289Z" fill="white" fill-opacity="0.7"/>
</g>
<defs>
<clipPath id="clip0_2077_724">
<rect width="93" height="22" fill="white"/>
</clipPath>
</defs>
</svg>
