<svg width="76" height="22" viewBox="0 0 76 22" fill="none" xmlns="http://www.w3.org/2000/svg">
<g opacity="0.56" clip-path="url(#clip0_2077_237)">
<path d="M28.1407 7.23334C28.1258 7.267 28.093 7.28878 28.0562 7.28779C28.0145 7.28086 27.9757 7.26007 27.9479 7.22839C27.8117 7.11059 27.6546 7.02051 27.4837 6.9621C27.2024 6.87796 26.9022 6.88093 26.6239 6.972C26.5056 7.01457 26.3972 7.0799 26.3058 7.16504C26.2213 7.24522 26.1557 7.34124 26.111 7.44815C26.0662 7.55507 26.0444 7.67089 26.0444 7.78671C26.0394 7.92134 26.0732 8.05498 26.1428 8.16981C26.2104 8.27276 26.2998 8.36086 26.4032 8.42719C26.5185 8.50143 26.6418 8.56182 26.771 8.60636C26.9081 8.65487 27.0493 8.70238 27.1944 8.7499C27.3395 8.79742 27.4797 8.84889 27.6169 8.90631C27.7491 8.95976 27.8723 9.03203 27.9846 9.12013C28.093 9.20625 28.1814 9.31515 28.2451 9.4379C28.3156 9.58341 28.3494 9.74477 28.3435 9.90712C28.3445 10.0912 28.3117 10.2744 28.2451 10.4466C28.1814 10.6119 28.084 10.7614 27.9588 10.8861C27.8276 11.0148 27.6715 11.1148 27.4996 11.1811C27.3008 11.2564 27.09 11.293 26.8783 11.289C26.61 11.296 26.3426 11.2415 26.098 11.1297C25.8804 11.0228 25.6855 10.8753 25.5255 10.6931L25.616 10.5516C25.6368 10.5219 25.6706 10.504 25.7064 10.5031C25.7352 10.507 25.7611 10.5209 25.781 10.5417C25.8108 10.5674 25.8476 10.5991 25.8913 10.6367C25.934 10.6743 25.9867 10.7149 26.0464 10.7594C26.113 10.807 26.1835 10.8475 26.2571 10.8822C26.3456 10.9228 26.438 10.9545 26.5324 10.9772C26.6477 11.004 26.767 11.0168 26.8853 11.0158C27.0513 11.0188 27.2153 10.9911 27.3713 10.9337C27.5055 10.8842 27.6288 10.8079 27.7322 10.7099C27.8306 10.6149 27.9071 10.5001 27.9568 10.3734C28.0095 10.2407 28.0353 10.0992 28.0343 9.95562C28.0403 9.81605 28.0055 9.67845 27.9359 9.55768C27.8693 9.45274 27.7799 9.36365 27.6755 9.29634C27.5602 9.22308 27.4369 9.16468 27.3077 9.12112C27.1706 9.0736 27.0294 9.02807 26.8853 8.98253C26.7402 8.937 26.6 8.88651 26.4618 8.83107C26.3296 8.77861 26.2054 8.70634 26.0941 8.61725C25.9847 8.52915 25.8953 8.41729 25.8327 8.29157C25.7621 8.13912 25.7283 7.97182 25.7342 7.80354C25.7342 7.65208 25.7641 7.50161 25.8217 7.36203C25.8794 7.22047 25.9668 7.09277 26.0772 6.98685C26.1974 6.87301 26.3386 6.78491 26.4937 6.72551C26.6746 6.65721 26.8654 6.62355 27.0592 6.62751C27.2779 6.62355 27.4946 6.66216 27.6994 6.74036C27.8932 6.81856 28.0691 6.93637 28.2162 7.08485L28.1387 7.23334H28.1407Z" fill="white" fill-opacity="0.7"/>
<path d="M31.571 10.9584H33.7418V11.2386H31.241V6.67899H31.571V10.9584Z" fill="white" fill-opacity="0.7"/>
<path d="M40.31 8.95777C40.314 9.28445 40.2603 9.60914 40.151 9.91602C40.0536 10.1882 39.9015 10.4387 39.7047 10.6505C39.5109 10.8545 39.2763 11.0148 39.0159 11.1208C38.4453 11.3425 37.8131 11.3425 37.2426 11.1208C36.9822 11.0148 36.7466 10.8545 36.5538 10.6505C36.356 10.4387 36.2039 10.1882 36.1055 9.91602C35.8918 9.29534 35.8918 8.62219 36.1055 8.0025C36.2039 7.73027 36.356 7.47982 36.5538 7.26798C36.7476 7.06406 36.9822 6.9027 37.2426 6.79579C37.5229 6.68195 37.8231 6.62453 38.1262 6.62849C38.4304 6.62453 38.7336 6.68096 39.0159 6.79381C39.2773 6.89973 39.5119 7.06109 39.7047 7.266C39.9015 7.47883 40.0536 7.72928 40.151 8.0025C40.2603 8.30938 40.314 8.63209 40.31 8.95777ZM39.9671 8.95777C39.9711 8.66674 39.9263 8.37669 39.8339 8.1005C39.7544 7.86292 39.6272 7.64316 39.4602 7.45606C39.2991 7.27986 39.1003 7.14127 38.8797 7.05218C38.6401 6.95615 38.3837 6.90864 38.1262 6.9126C37.8708 6.90963 37.6173 6.95714 37.3808 7.05317C37.1591 7.14424 36.9603 7.28184 36.7983 7.45705C36.6293 7.64415 36.5001 7.86292 36.4196 8.10149C36.2407 8.65981 36.2407 9.2597 36.4196 9.81703C36.5001 10.0546 36.6293 10.2734 36.7983 10.4595C36.9603 10.6347 37.1591 10.7723 37.3808 10.8624C37.6173 10.9564 37.8708 11.0039 38.1262 11.001C38.3837 11.0039 38.6401 10.9574 38.8797 10.8624C39.1013 10.7733 39.3001 10.6357 39.4602 10.4595C39.6272 10.2724 39.7544 10.0536 39.8339 9.81703C39.9263 9.53985 39.9711 9.2498 39.9671 8.95777Z" fill="white" fill-opacity="0.7"/>
<path d="M42.5455 6.67898H42.8079C42.8348 6.67799 42.8616 6.68591 42.8825 6.70274C42.9024 6.71957 42.9183 6.74135 42.9282 6.7651L44.4878 10.5486C44.5295 10.6505 44.5633 10.7565 44.5882 10.8644C44.609 10.7565 44.6408 10.6505 44.6816 10.5486L46.2382 6.7651C46.2491 6.74135 46.265 6.72056 46.2849 6.70373C46.3058 6.68591 46.3336 6.677 46.3614 6.67799H46.6199L44.7313 11.2376H44.4371L42.5475 6.67799L42.5455 6.67898Z" fill="white" fill-opacity="0.7"/>
<path d="M52.0251 6.67899V6.95319H49.6147V8.79643H51.6206V9.0637H49.6147V10.9653H52.0251V11.2396H49.2817V6.68097H52.0251V6.67899Z" fill="white" fill-opacity="0.7"/>
<path d="M55.2744 6.69085C55.2963 6.70273 55.3152 6.71956 55.3291 6.74035L58.2932 10.6911C58.2862 10.6268 58.2832 10.5644 58.2832 10.504V6.67996H58.5745V11.2395H58.4154C58.3667 11.2395 58.322 11.2158 58.2962 11.1752L55.3202 7.21848C55.3271 7.28282 55.3301 7.3442 55.3301 7.4026V11.2405H55.0428V6.68095H55.2049C55.2287 6.68095 55.2526 6.68392 55.2754 6.69184L55.2744 6.69085Z" fill="white" fill-opacity="0.7"/>
<path d="M62.3218 11.2386H61.9888V6.67899H62.3218V11.2386Z" fill="white" fill-opacity="0.7"/>
<path d="M69.1832 11.2385H68.9278C68.901 11.2395 68.8741 11.2316 68.8532 11.2148C68.8334 11.198 68.8175 11.1762 68.8085 11.1524L68.2688 9.82791H66.0194L65.4826 11.1524C65.4737 11.1762 65.4578 11.198 65.4379 11.2138C65.416 11.2316 65.3882 11.2405 65.3604 11.2395H65.1079L66.9816 6.67996H67.3116L69.1842 11.2395L69.1832 11.2385ZM66.1198 9.58241H68.1714L67.236 7.27787C67.2211 7.24125 67.2062 7.19967 67.1903 7.15413C67.1744 7.1086 67.1605 7.0591 67.1456 7.00763C67.1307 7.0591 67.1158 7.10761 67.1008 7.15413C67.0859 7.20066 67.071 7.24224 67.0551 7.28183L66.1198 9.58241Z" fill="white" fill-opacity="0.7"/>
<path d="M72.0757 6.69085C72.0976 6.70273 72.1165 6.71956 72.1304 6.74035L75.0944 10.6911C75.0875 10.6268 75.0845 10.5644 75.0845 10.504V6.67996H75.3757V11.2395H75.2167C75.168 11.2395 75.1233 11.2158 75.0974 11.1752L72.1214 7.21848C72.1284 7.28282 72.1314 7.3442 72.1314 7.4026V11.2405H71.8441V6.68095H72.0061C72.03 6.68095 72.0538 6.68392 72.0767 6.69184L72.0757 6.69085Z" fill="white" fill-opacity="0.7"/>
<path d="M25.5414 17.8819V13.3224H26.8584C27.087 13.3184 27.3146 13.3441 27.5363 13.3996C27.7083 13.4421 27.8693 13.5193 28.0104 13.6263C28.1327 13.7233 28.2291 13.849 28.2907 13.9915C28.3544 14.147 28.3862 14.3133 28.3832 14.4816C28.3832 14.6003 28.3623 14.7181 28.3206 14.83C28.2778 14.9429 28.2162 15.0478 28.1377 15.1389C28.0542 15.2369 27.9558 15.32 27.8444 15.3854C27.7212 15.4586 27.588 15.5121 27.4478 15.5447C27.756 15.5754 28.0462 15.7001 28.2798 15.9021C28.4766 16.0931 28.583 16.3594 28.571 16.6336C28.574 16.8128 28.5382 16.991 28.4677 17.1553C28.4001 17.3088 28.2967 17.4434 28.1665 17.5483C28.0224 17.6622 27.8574 17.7453 27.6814 17.7948C27.4687 17.8542 27.249 17.8829 27.0284 17.88H25.5434L25.5414 17.8819ZM25.8714 15.4556H26.8654C27.0493 15.4596 27.2322 15.4329 27.4071 15.3755C27.5433 15.3299 27.6685 15.2577 27.7759 15.1626C27.8683 15.0795 27.9409 14.9775 27.9876 14.8627C28.0323 14.7528 28.0552 14.636 28.0552 14.5182C28.0552 14.2113 27.9578 13.9787 27.7619 13.8203C27.5661 13.6619 27.265 13.5837 26.8574 13.5837H25.8704V15.4556H25.8714ZM25.8714 15.6972V17.6176H27.0204C27.424 17.6176 27.7281 17.5315 27.9329 17.3583C28.1426 17.1751 28.256 16.9059 28.24 16.6287C28.242 16.4951 28.2142 16.3624 28.1575 16.2406C28.1029 16.1258 28.0214 16.0248 27.92 15.9476C27.8057 15.8615 27.6765 15.7991 27.5383 15.7625C27.3703 15.717 27.1974 15.6962 27.0234 15.6982H25.8714V15.6972Z" fill="white" fill-opacity="0.7"/>
<path d="M31.7051 17.6463C31.9079 17.6493 32.1087 17.6107 32.2956 17.5315C32.4645 17.4592 32.6146 17.3503 32.7379 17.2137C32.8611 17.0742 32.9556 16.9118 33.0142 16.7356C33.0788 16.5445 33.1116 16.3436 33.1096 16.1417V13.3224H33.4396V16.1417C33.4416 16.3812 33.4009 16.6198 33.3204 16.8455C33.2448 17.0563 33.1275 17.2504 32.9754 17.4157C32.8224 17.58 32.6365 17.7107 32.4288 17.7978C31.9646 17.9819 31.4467 17.9819 30.9825 17.7978C30.7748 17.7107 30.5889 17.58 30.4358 17.4157C30.2837 17.2504 30.1664 17.0563 30.0909 16.8455C30.0104 16.6198 29.9696 16.3812 29.9716 16.1417V13.3224H30.3046V16.1387C30.3026 16.3406 30.3354 16.5416 30.4 16.7336C30.4597 16.9098 30.5531 17.0722 30.6754 17.2118C30.7966 17.3484 30.9477 17.4573 31.1157 17.5305C31.3016 17.6107 31.5024 17.6503 31.7051 17.6463Z" fill="white" fill-opacity="0.7"/>
<path d="M37.2993 13.8767C37.2843 13.9103 37.2515 13.9311 37.2148 13.9311C37.173 13.9242 37.1343 13.9034 37.1054 13.8717C37.0488 13.8232 36.9891 13.7787 36.9255 13.7391C36.8361 13.6846 36.7406 13.6391 36.6412 13.6054C36.3599 13.5213 36.0598 13.5243 35.7814 13.6153C35.6632 13.6579 35.5548 13.7232 35.4634 13.8084C35.3789 13.8886 35.3133 13.9846 35.2685 14.0915C35.2238 14.1984 35.2019 14.3132 35.2019 14.4301C35.197 14.5647 35.2308 14.6983 35.3004 14.8141C35.3679 14.9171 35.4574 15.0042 35.5608 15.0715C35.6761 15.1458 35.7993 15.2061 35.9285 15.2507C36.0657 15.2992 36.2069 15.3467 36.352 15.3942C36.4971 15.4418 36.6383 15.4932 36.7744 15.5506C36.9066 15.6041 37.0299 15.6764 37.1422 15.7645C37.2505 15.8506 37.339 15.9585 37.4026 16.0822C37.4732 16.2287 37.507 16.3891 37.501 16.5515C37.502 16.7356 37.4692 16.9187 37.4026 17.091C37.339 17.2563 37.2416 17.4058 37.1164 17.5305C36.9852 17.6592 36.8291 17.7592 36.6571 17.8255C36.4583 17.9007 36.2476 17.9373 36.0359 17.9334C35.7675 17.9403 35.5001 17.8859 35.2566 17.774C35.0389 17.6671 34.8441 17.5186 34.6841 17.3374L34.7745 17.1959C34.7954 17.1662 34.8292 17.1484 34.865 17.1474C34.8938 17.1513 34.9197 17.1652 34.9395 17.186C34.9704 17.2117 35.0061 17.2434 35.0499 17.281C35.0936 17.3186 35.1453 17.3592 35.2049 17.4038C35.2705 17.4513 35.3411 17.4919 35.4157 17.5265C35.5041 17.5671 35.5966 17.5988 35.691 17.6216C35.8063 17.6483 35.9256 17.6612 36.0439 17.6602C36.2098 17.6631 36.3748 17.6354 36.5299 17.578C36.6641 17.5285 36.7874 17.4523 36.8907 17.3543C36.9891 17.2592 37.0657 17.1444 37.1164 17.0177C37.169 16.8851 37.1949 16.7435 37.1939 16.6009C37.1999 16.4614 37.1651 16.3238 37.0955 16.203C37.0289 16.0981 36.9394 16.009 36.8351 15.9417C36.7198 15.8684 36.5965 15.81 36.4673 15.7664C36.3301 15.7189 36.189 15.6734 36.0448 15.6279C35.9007 15.5823 35.7596 15.5318 35.6214 15.4764C35.4892 15.4229 35.365 15.3507 35.2536 15.2626C35.1443 15.1735 35.0548 15.0626 34.9922 14.9369C34.9216 14.7844 34.8878 14.6171 34.8938 14.4489C34.8938 14.2974 34.9236 14.1469 34.9813 14.0074C35.0399 13.8658 35.1264 13.7381 35.2367 13.6322C35.357 13.5183 35.4982 13.4302 35.6532 13.3708C35.8341 13.3025 36.026 13.2689 36.2188 13.2728C36.4375 13.2699 36.6542 13.3075 36.8589 13.3857C37.0527 13.4639 37.2287 13.5817 37.3758 13.7302L37.2983 13.8787L37.2993 13.8767Z" fill="white" fill-opacity="0.7"/>
<path d="M39.2405 17.8819H38.9075V13.3224H39.2405V17.8819Z" fill="white" fill-opacity="0.7"/>
<path d="M41.2791 13.3332C41.301 13.3451 41.3199 13.362 41.3338 13.3837L44.2978 17.3345C44.2909 17.2702 44.2879 17.2078 44.2879 17.1474V13.3224H44.5791V17.8819H44.4201C44.3714 17.8819 44.3267 17.8582 44.2998 17.8176L41.3238 13.8609C41.3308 13.9252 41.3338 13.9866 41.3338 14.045V17.8829H41.0455V13.3233H41.2076C41.2314 13.3233 41.2563 13.3263 41.2781 13.3342L41.2791 13.3332Z" fill="white" fill-opacity="0.7"/>
<path d="M49.0054 13.3224V13.5966H46.5949V15.4398H48.6008V15.7071H46.5949V17.6087H49.0054V17.8829H46.262V13.3233H49.0054V13.3224Z" fill="white" fill-opacity="0.7"/>
<path d="M52.6255 13.8767C52.6106 13.9103 52.5778 13.9311 52.5411 13.9311C52.4993 13.9242 52.4605 13.9034 52.4327 13.8717C52.3761 13.8232 52.3164 13.7787 52.2528 13.7391C52.1633 13.6846 52.0679 13.6401 51.9685 13.6054C51.6872 13.5213 51.387 13.5243 51.1077 13.6153C50.9894 13.6579 50.8811 13.7232 50.7897 13.8084C50.7052 13.8886 50.6396 13.9846 50.5948 14.0915C50.5501 14.1984 50.5282 14.3132 50.5282 14.4301C50.5233 14.5647 50.5571 14.6983 50.6266 14.8141C50.6952 14.9171 50.7837 15.0042 50.8881 15.0715C51.0034 15.1458 51.1266 15.2052 51.2558 15.2507C51.393 15.2992 51.5342 15.3467 51.6793 15.3942C51.8244 15.4418 51.9645 15.4932 52.1017 15.5506C52.2339 15.6041 52.3572 15.6764 52.4695 15.7645C52.5778 15.8506 52.6663 15.9585 52.7299 16.0812C52.8005 16.2277 52.8343 16.3881 52.8283 16.5505C52.8293 16.7346 52.7965 16.9177 52.7299 17.09C52.6663 17.2553 52.5689 17.4048 52.4436 17.5295C52.3124 17.6582 52.1564 17.7582 51.9844 17.8245C51.7856 17.8997 51.5749 17.9364 51.3632 17.9324C51.0948 17.9393 50.8274 17.8849 50.5829 17.773C50.3652 17.6661 50.1704 17.5176 50.0104 17.3365L50.1008 17.1949C50.1217 17.1652 50.1555 17.1474 50.1913 17.1464C50.2201 17.1504 50.246 17.1642 50.2658 17.185C50.2966 17.2107 50.3334 17.2424 50.3762 17.28C50.4189 17.3177 50.4706 17.3582 50.5312 17.4028C50.5968 17.4503 50.6674 17.4909 50.7419 17.5255C50.8304 17.5661 50.9229 17.5978 51.0173 17.6206C51.1326 17.6473 51.2519 17.6612 51.3701 17.6592C51.5361 17.6621 51.7001 17.6344 51.8562 17.577C51.9904 17.5275 52.1136 17.4513 52.217 17.3533C52.3154 17.2583 52.392 17.1434 52.4427 17.0167C52.4953 16.8841 52.5212 16.7425 52.5202 16.6C52.5261 16.4604 52.4914 16.3228 52.4218 16.202C52.3552 16.0971 52.2657 16.008 52.1604 15.9407C52.0451 15.8674 51.9218 15.808 51.7926 15.7655C51.6554 15.7179 51.5143 15.6724 51.3701 15.6269C51.226 15.5813 51.0839 15.5308 50.9467 15.4754C50.8145 15.422 50.6903 15.3497 50.5789 15.2616C50.4696 15.1725 50.3801 15.0616 50.3175 14.9359C50.2469 14.7835 50.2131 14.6162 50.2191 14.4479C50.2191 14.2964 50.2489 14.1459 50.3066 14.0064C50.3642 13.8648 50.4517 13.7371 50.563 13.6312C50.6833 13.5183 50.8254 13.4292 50.9795 13.3708C51.1604 13.3025 51.3523 13.2689 51.5451 13.2728C51.7638 13.2699 51.9805 13.3075 52.1852 13.3857C52.379 13.4639 52.555 13.5817 52.7021 13.7302L52.6246 13.8777L52.6255 13.8767Z" fill="white" fill-opacity="0.7"/>
<path d="M56.331 13.8767C56.3161 13.9103 56.2833 13.9311 56.2465 13.9311C56.2048 13.9242 56.166 13.9034 56.1382 13.8717C56.0815 13.8232 56.0219 13.7787 55.9583 13.7391C55.8688 13.6846 55.7734 13.6391 55.674 13.6054C55.3927 13.5213 55.0925 13.5243 54.8132 13.6153C54.6949 13.6579 54.5866 13.7232 54.4951 13.8084C54.4106 13.8886 54.344 13.9846 54.3003 14.0915C54.2556 14.1984 54.2337 14.3142 54.2337 14.4301C54.2287 14.5647 54.2625 14.6983 54.3321 14.8141C54.3997 14.9171 54.4892 15.0042 54.5925 15.0715C54.7078 15.1458 54.8311 15.2052 54.9603 15.2507C55.0975 15.2992 55.2386 15.3467 55.3837 15.3942C55.5289 15.4418 55.669 15.4932 55.8062 15.5506C55.9384 15.6041 56.0616 15.6764 56.174 15.7645C56.2823 15.8506 56.3708 15.9595 56.4344 16.0822C56.505 16.2287 56.5387 16.3891 56.5328 16.5515C56.5338 16.7356 56.501 16.9187 56.4344 17.091C56.3708 17.2563 56.2734 17.4058 56.1481 17.5305C56.0169 17.6592 55.8609 17.7592 55.6889 17.8255C55.4901 17.9007 55.2794 17.9373 55.0677 17.9334C54.7993 17.9403 54.5319 17.8859 54.2874 17.774C54.0697 17.6671 53.8749 17.5186 53.7148 17.3374L53.8053 17.1959C53.8262 17.1662 53.86 17.1484 53.8957 17.1474C53.9246 17.1513 53.9504 17.1652 53.9703 17.186C54.0001 17.2117 54.0369 17.2434 54.0806 17.281C54.1234 17.3186 54.1761 17.3592 54.2367 17.4038C54.3023 17.4513 54.3729 17.4919 54.4474 17.5265C54.5359 17.5671 54.6283 17.5988 54.7227 17.6216C54.838 17.6483 54.9573 17.6621 55.0756 17.6602C55.2416 17.6631 55.4056 17.6354 55.5617 17.578C55.6958 17.5285 55.8191 17.4523 55.9235 17.3543C56.0219 17.2592 56.0984 17.1444 56.1491 17.0177C56.2018 16.8851 56.2276 16.7435 56.2266 16.6009C56.2326 16.4614 56.1978 16.3238 56.1282 16.203C56.0616 16.0981 55.9722 16.009 55.8668 15.9417C55.7515 15.8684 55.6283 15.809 55.499 15.7664C55.3619 15.7189 55.2207 15.6734 55.0766 15.6279C54.9315 15.5823 54.7913 15.5318 54.6532 15.4764C54.521 15.4229 54.3967 15.3507 54.2854 15.2626C54.1761 15.1735 54.0866 15.0626 54.024 14.9369C53.9534 14.7844 53.9196 14.6171 53.9256 14.4489C53.9256 14.2974 53.9554 14.1469 54.013 14.0074C54.0707 13.8658 54.1582 13.7381 54.2695 13.6322C54.3898 13.5183 54.5309 13.4302 54.686 13.3708C54.8669 13.3025 55.0587 13.2689 55.2515 13.2728C55.4702 13.2699 55.6869 13.3075 55.8917 13.3857C56.0855 13.4639 56.2614 13.5817 56.4085 13.7302L56.331 13.8787V13.8767Z" fill="white" fill-opacity="0.7"/>
<path d="M62.7174 17.1147C62.7383 17.1147 62.7582 17.1226 62.7721 17.1375L62.9013 17.2761C62.8069 17.3771 62.7025 17.4681 62.5912 17.5483C62.4769 17.6305 62.3536 17.6998 62.2244 17.7542C62.0833 17.8136 61.9372 17.8582 61.7871 17.8869C61.6151 17.9195 61.4402 17.9354 61.2642 17.9334C60.965 17.9374 60.6688 17.8809 60.3915 17.7671C60.1341 17.6612 59.9015 17.5008 59.7126 17.2969C59.5178 17.083 59.3677 16.8326 59.2713 16.5604C59.162 16.2525 59.1083 15.9268 59.1123 15.6001C59.1083 15.2774 59.164 14.9557 59.2753 14.6528C59.3767 14.3786 59.5327 14.1281 59.7345 13.9163C59.9343 13.7094 60.1758 13.5471 60.4432 13.4392C60.7325 13.3233 61.0426 13.2659 61.3537 13.2699C61.5068 13.2689 61.6589 13.2808 61.8099 13.3065C61.9421 13.3293 62.0714 13.3649 62.1966 13.4124C62.3149 13.458 62.4282 13.5154 62.5346 13.5847C62.6439 13.6559 62.7483 13.7361 62.8447 13.8232L62.7443 13.9678C62.7264 13.9935 62.6956 14.0084 62.6638 14.0064C62.6359 14.0034 62.6101 13.9915 62.5892 13.9727C62.5594 13.95 62.5206 13.9222 62.4739 13.8886C62.4272 13.8549 62.3715 13.8193 62.3059 13.7787C62.2314 13.7351 62.1529 13.6985 62.0714 13.6688C61.969 13.6322 61.8646 13.6045 61.7573 13.5847C61.6241 13.5609 61.4879 13.549 61.3527 13.551C61.0903 13.548 60.8299 13.5965 60.5854 13.6946C60.3577 13.7866 60.152 13.9262 59.984 14.1044C59.81 14.2905 59.6768 14.5093 59.5914 14.7488C59.494 15.021 59.4462 15.3091 59.4502 15.5982C59.4452 15.8922 59.493 16.1842 59.5894 16.4614C59.6729 16.699 59.8041 16.9177 59.974 17.1038C60.1361 17.2781 60.3349 17.4157 60.5545 17.5067C60.7851 17.6018 61.0316 17.6493 61.2811 17.6463C61.4282 17.6473 61.5744 17.6364 61.7195 17.6146C61.8407 17.5948 61.959 17.5632 62.0733 17.5176C62.1787 17.476 62.2801 17.4226 62.3745 17.3592C62.4719 17.2939 62.5634 17.2206 62.6499 17.1405C62.6598 17.1325 62.6697 17.1256 62.6807 17.1197C62.6916 17.1137 62.7035 17.1118 62.7165 17.1118L62.7174 17.1147Z" fill="white" fill-opacity="0.7"/>
<path d="M64.597 17.6018H66.7678V17.8819H64.267V13.3224H64.597V17.6018Z" fill="white" fill-opacity="0.7"/>
<path d="M69.5929 17.6463C69.7956 17.6493 69.9964 17.6107 70.1833 17.5315C70.3523 17.4592 70.5023 17.3503 70.6246 17.2137C70.7479 17.0742 70.8423 16.9118 70.9009 16.7356C70.9655 16.5445 70.9983 16.3436 70.9964 16.1417V13.3224H71.3264V16.1417C71.3283 16.3812 71.2876 16.6198 71.2061 16.8455C71.1305 17.0563 71.0132 17.2504 70.8622 17.4157C70.7091 17.58 70.5232 17.7107 70.3155 17.7978C69.8513 17.9819 69.3334 17.9819 68.8692 17.7978C68.6615 17.7107 68.4756 17.58 68.3225 17.4157C68.1705 17.2504 68.0532 17.0563 67.9776 16.8455C67.8961 16.6198 67.8564 16.3812 67.8583 16.1417V13.3224H68.1913V16.1387C68.1893 16.3406 68.2221 16.5416 68.2868 16.7336C68.3454 16.9098 68.4388 17.0722 68.5621 17.2118C68.6834 17.3484 68.8334 17.4573 69.0014 17.5305C69.1873 17.6107 69.3891 17.6503 69.5919 17.6463H69.5929Z" fill="white" fill-opacity="0.7"/>
<path d="M72.9703 17.8819V13.3224H74.2874C74.516 13.3184 74.7436 13.3441 74.9653 13.3996C75.1372 13.4421 75.2992 13.5193 75.4394 13.6263C75.5617 13.7233 75.6581 13.849 75.7197 13.9915C75.7833 14.147 75.8151 14.3133 75.8121 14.4816C75.8121 14.6003 75.7913 14.7181 75.7495 14.83C75.7068 14.9429 75.6451 15.0478 75.5666 15.1389C75.4831 15.2369 75.3847 15.32 75.2734 15.3854C75.1501 15.4586 75.0169 15.5121 74.8768 15.5447C75.1849 15.5754 75.4752 15.7001 75.7088 15.9021C75.9056 16.0931 76.0119 16.3594 76 16.6336C76.003 16.8128 75.9672 16.991 75.8966 17.1553C75.829 17.3078 75.7257 17.4434 75.5955 17.5483C75.4513 17.6622 75.2863 17.7453 75.1104 17.7948C74.8977 17.8542 74.678 17.8829 74.4563 17.88H72.9713L72.9703 17.8819ZM73.3003 15.4556H74.2943C74.4782 15.4596 74.6621 15.4329 74.836 15.3755C74.9722 15.3299 75.0975 15.2577 75.2048 15.1626C75.2973 15.0795 75.3698 14.9775 75.4165 14.8627C75.4613 14.7528 75.4841 14.636 75.4841 14.5182C75.4841 14.2113 75.3867 13.9787 75.1909 13.8203C74.9961 13.6629 74.6939 13.5837 74.2864 13.5837H73.2993V15.4556H73.3003ZM73.3003 15.6972V17.6176H74.4494C74.8529 17.6176 75.1571 17.5315 75.3619 17.3583C75.5716 17.1751 75.6849 16.9059 75.669 16.6287C75.671 16.4951 75.6432 16.3624 75.5865 16.2406C75.5318 16.1258 75.4503 16.0248 75.3489 15.9476C75.2346 15.8615 75.1054 15.7991 74.9673 15.7625C74.7993 15.718 74.6263 15.6962 74.4534 15.6982H73.3013L73.3003 15.6972Z" fill="white" fill-opacity="0.7"/>
<path d="M14.1334 8.23318C13.4108 8.23219 12.712 7.97382 12.1633 7.50559C13.2199 7.04329 13.9624 6.07218 14.1284 4.93476C14.3869 5.14561 14.7546 5.15749 15.027 4.96446L18.2276 2.71734C18.2992 2.66487 18.3867 2.63518 18.4761 2.63419C18.6352 2.63815 18.7803 2.72526 18.8578 2.86484C18.9343 2.99749 18.9294 3.1628 18.8449 3.2905L16.8142 6.62555C16.2884 7.61448 15.2566 8.23318 14.1334 8.23318Z" fill="white" fill-opacity="0.7"/>
<path d="M10.8155 7.46796C10.6287 7.46796 10.4428 7.45113 10.2589 7.41648C10.9418 6.48992 11.0978 5.27925 10.6704 4.21112C10.7092 4.21706 10.748 4.22003 10.7877 4.22003C11.0789 4.22201 11.3433 4.05273 11.4636 3.78941L13.1067 0.250449C13.1723 0.0970109 13.3234 -0.0019812 13.4904 -1.35827e-06C13.6116 -1.35827e-06 13.7279 0.0475148 13.8134 0.132648C13.8929 0.214811 13.9347 0.325683 13.9287 0.439523L13.8442 4.33882C13.9029 6.00585 12.5948 7.40461 10.9209 7.46697L10.8145 7.46895L10.8155 7.46796Z" fill="white" fill-opacity="0.7"/>
<path d="M8.56516 8.2886C8.6914 7.14623 8.21826 6.0197 7.31274 5.30795C7.42208 5.26637 7.51949 5.20005 7.59802 5.11392C7.73916 4.96049 7.80775 4.75458 7.78687 4.54868L7.43302 0.66423C7.41811 0.546429 7.45588 0.427639 7.53639 0.339536C7.62287 0.247473 7.74413 0.195007 7.87136 0.195007C8.02642 0.195007 8.16956 0.28113 8.24013 0.418729L10.1247 3.83792C11.0143 5.25053 10.5849 7.11356 9.16652 7.99954C8.97667 8.11734 8.77489 8.21435 8.56417 8.2886H8.56516Z" fill="white" fill-opacity="0.7"/>
<path d="M7.53534 9.88634C7.07115 8.83505 6.09605 8.09558 4.95496 7.92927C4.99174 7.88274 5.02354 7.83325 5.04939 7.77979C5.16668 7.53825 5.14083 7.25216 4.98478 7.03438L2.72844 3.84684C2.63301 3.72013 2.6191 3.54986 2.69365 3.40929C2.7672 3.26377 2.91431 3.16973 3.07832 3.16577C3.15883 3.16676 3.23636 3.18953 3.30495 3.23309L6.65268 5.25549C8.13273 6.03654 8.69631 7.86394 7.91206 9.33793C7.80769 9.53393 7.68146 9.71806 7.53733 9.88733L7.53534 9.88634Z" fill="white" fill-opacity="0.7"/>
<path d="M7.44696 11.783C6.87145 11.3643 6.17665 11.1376 5.46297 11.1376C5.04053 11.1376 4.62107 11.2168 4.22844 11.3732C4.23739 11.3148 4.23938 11.2554 4.23441 11.196C4.21453 10.9287 4.04953 10.6931 3.80501 10.5832L0.25052 8.94591C0.0348252 8.84692 -0.0596033 8.59251 0.0397951 8.37769C0.109374 8.22624 0.261454 8.12922 0.429437 8.12823L4.35667 8.21139L4.47296 8.20941C6.10608 8.20446 7.44696 9.49532 7.49766 11.1218C7.50561 11.3435 7.48871 11.5643 7.44796 11.783H7.44696Z" fill="white" fill-opacity="0.7"/>
<path d="M5.32871 14.7181C5.31181 14.6736 5.28994 14.63 5.2641 14.5895C5.12991 14.3727 4.89235 14.241 4.6359 14.241C4.61304 14.241 4.58918 14.242 4.56533 14.244L0.664935 14.5974C0.649031 14.5984 0.633127 14.5994 0.618218 14.5994C0.379662 14.5944 0.190805 14.3984 0.195775 14.1618C0.198757 14.0084 0.284239 13.8678 0.419421 13.7936L3.85264 11.9167C5.26807 11.0297 7.13776 11.4544 8.02837 12.865C8.03036 12.868 8.03234 12.871 8.03433 12.8739C8.15162 13.062 8.24804 13.262 8.32259 13.4708C7.17553 13.3451 6.04537 13.8163 5.3297 14.7181H5.32871Z" fill="white" fill-opacity="0.7"/>
<path d="M3.61414 19.3668C3.45511 19.3629 3.30999 19.2757 3.23245 19.1372C3.15592 19.0045 3.16089 18.8402 3.24538 18.7115L5.27609 15.3764C6.05736 13.9034 7.88927 13.3402 9.36832 14.1183C9.3713 14.1202 9.37428 14.1212 9.37726 14.1232C9.57308 14.2271 9.75696 14.3519 9.92594 14.4954C8.86934 14.9577 8.12683 15.9288 7.96083 17.0662C7.82764 16.9583 7.66165 16.8989 7.48969 16.8999C7.33661 16.8999 7.18652 16.9484 7.06227 17.0375L3.86165 19.2847C3.78909 19.3371 3.70261 19.3658 3.61315 19.3668H3.61414Z" fill="white" fill-opacity="0.7"/>
<path d="M8.5989 22C8.47764 22 8.36134 21.9535 8.27586 21.8683C8.19733 21.7862 8.15558 21.6753 8.16055 21.5615L8.24405 17.6622C8.1854 15.9951 9.49249 14.5954 11.1664 14.534L11.2747 14.532C11.4606 14.532 11.6465 14.5499 11.8293 14.5835C11.1465 15.5101 10.9914 16.7208 11.4178 17.7889C11.3791 17.7829 11.3403 17.78 11.3005 17.78C11.0093 17.778 10.7449 17.9473 10.6246 18.2106L8.98059 21.7505C8.91598 21.904 8.7639 22.003 8.59691 22.001L8.5989 22Z" fill="white" fill-opacity="0.7"/>
<path d="M14.219 21.806C14.0639 21.806 13.9208 21.7199 13.8502 21.5823L11.9646 18.1641C11.075 16.7505 11.5054 14.8855 12.9258 14.0005C13.1147 13.8827 13.3155 13.7866 13.5252 13.7124C13.3989 14.8548 13.8721 15.9813 14.7776 16.6931C14.6683 16.7346 14.5709 16.801 14.4923 16.8871C14.3512 17.0405 14.2826 17.2464 14.3035 17.4523L14.6583 21.3368C14.6732 21.4546 14.6355 21.5734 14.5549 21.6625C14.4675 21.7545 14.3462 21.806 14.22 21.806H14.219Z" fill="white" fill-opacity="0.7"/>
<path d="M19.0129 18.8342C18.9324 18.8333 18.8539 18.8095 18.7863 18.7669L15.4376 16.7455C13.9585 15.9625 13.3959 14.1351 14.1782 12.6611C14.2825 12.4661 14.4088 12.282 14.5529 12.1137C15.0171 13.165 15.9922 13.9044 17.1333 14.0717C17.0965 14.1173 17.0647 14.1678 17.0389 14.2212C16.9216 14.4628 16.9464 14.7488 17.1035 14.9666L19.3608 18.1542C19.4562 18.2809 19.4701 18.4512 19.3956 18.5917C19.323 18.7372 19.1749 18.8313 19.0119 18.8352L19.0129 18.8342Z" fill="white" fill-opacity="0.7"/>
<path d="M17.7337 13.7876L17.6174 13.7896C15.9843 13.7936 14.6434 12.5027 14.5927 10.8773C14.5848 10.6555 14.6017 10.4348 14.6424 10.217C15.2179 10.6357 15.9127 10.8614 16.6264 10.8624C17.0489 10.8624 17.4683 10.7832 17.861 10.6268C17.852 10.6852 17.85 10.7446 17.855 10.804C17.8749 11.0713 18.0399 11.3059 18.2854 11.4168L21.8399 13.0531C22.0556 13.1521 22.15 13.4065 22.0506 13.6213C21.981 13.7728 21.8289 13.8698 21.6619 13.8708L17.7337 13.7886V13.7876Z" fill="white" fill-opacity="0.7"/>
<path d="M16.6284 10.5456C15.3422 10.5456 14.1951 9.73785 13.7667 8.52916C13.887 8.54203 14.0083 8.54896 14.1305 8.54896C15.1553 8.54698 16.1225 8.07974 16.7596 7.28186C16.7775 7.32641 16.7984 7.36996 16.8242 7.41055C16.9584 7.62734 17.196 7.759 17.4504 7.759C17.4753 7.759 17.4991 7.75801 17.522 7.75603L21.4224 7.40263C21.4383 7.40164 21.4542 7.40065 21.4691 7.40065C21.7067 7.40461 21.8965 7.60061 21.8915 7.83721C21.8886 7.99064 21.8031 8.13121 21.6679 8.20546L18.2357 10.0833C17.7536 10.3853 17.196 10.5456 16.6274 10.5466L16.6284 10.5456Z" fill="white" fill-opacity="0.7"/>
</g>
<defs>
<clipPath id="clip0_2077_237">
<rect width="76" height="22" fill="white"/>
</clipPath>
</defs>
</svg>
