<svg width="105" height="18" viewBox="0 0 105 18" fill="none" xmlns="http://www.w3.org/2000/svg">
<g opacity="0.56" clip-path="url(#clip0_2077_171)">
<path d="M64.2028 17.6693H60.4644V9.32205C60.4644 9.28098 60.1176 8.68876 60.0504 8.60015C59.2789 7.5843 57.9374 7.70749 56.9319 8.31268C56.8105 8.42507 56.2384 9.53602 56.2384 9.64626V17.6693H52.7449L52.5021 17.4272V9.32205C52.5021 9.28098 52.1554 8.68876 52.0882 8.60015C51.3167 7.5843 49.9752 7.70749 48.9696 8.31268C48.8483 8.42507 48.2761 9.53602 48.2761 9.64626V17.6693H44.7826L44.5399 17.4272V4.94525L44.7826 4.70317H48.2761V6.48631C48.5904 6.35447 48.6706 5.98919 48.9198 5.74928C50.8789 3.86672 54.2381 4.11095 55.6727 6.48415C57.66 3.91427 62.5232 3.59438 63.7975 6.97479C63.8885 7.2147 64.2049 8.19597 64.2049 8.35159V17.6715L64.2028 17.6693Z" fill="white" fill-opacity="0.7"/>
<path d="M97.0356 6.32205C97.7746 5.70821 98.4248 4.98847 99.387 4.69452C101.233 4.1304 103.6 4.78314 104.491 6.58574C104.575 6.75648 105 7.79395 105 7.86095V17.6693H101.424V9.64625C101.424 9.53602 100.852 8.42507 100.731 8.31268C99.8573 7.74424 98.5071 7.64914 97.6923 8.35807C97.5406 8.48991 97.0356 9.34798 97.0356 9.48631V17.6736H93.2972V0.242075L93.54 0H96.7907L97.0335 0.242075V6.31989L97.0356 6.32205Z" fill="white" fill-opacity="0.7"/>
<path d="M42.4226 12.482H33.6455C33.769 14.6391 36.1746 15.4517 38.0384 14.8357C38.7405 14.6045 39.2022 14.0166 39.8826 13.7961C40.3248 14.3451 41.2523 14.7687 41.6207 15.3134C41.7183 15.4582 41.8309 15.5274 41.7074 15.7262C39.3192 18.7197 34.1461 18.7219 31.6105 15.8883C28.6241 12.5512 29.7034 6.61816 33.9727 4.94309C35.921 4.17796 38.5087 4.38977 40.1514 5.74928C41.987 7.26873 42.8669 10.1866 42.4226 12.4798V12.482ZM39.0093 10.2125C38.5607 6.75433 34.4149 6.43444 33.5523 9.88185C33.4093 9.98127 33.7062 10.2125 33.7257 10.2125H39.0093Z" fill="white" fill-opacity="0.7"/>
<path d="M21.7802 12.482H13.0031C13.2632 14.9568 15.8963 15.5684 17.9399 14.5677C18.4297 14.3278 18.6378 13.9777 19.0994 13.7702L21.1235 15.6268C19.0864 18.2313 15.3523 18.6333 12.5133 17.1073C9.02415 15.2334 8.374 10.4351 10.4307 7.24279C12.9858 3.27449 19.3529 3.63544 21.2124 8.1095C21.3142 8.3559 21.7824 9.67866 21.7824 9.81051V12.4863L21.7802 12.482ZM18.2043 10.2125C18.031 6.47549 13.261 6.58789 12.8406 10.2125H18.2043Z" fill="white" fill-opacity="0.7"/>
<path d="M77.6935 17.6693H74.2802L74.2 16.3725C73.5239 17.0252 72.6505 17.5893 71.7251 17.7947C68.4548 18.5209 65.5161 16.6708 66.0319 13.0893C66.4762 10.0007 70.1734 9.49713 72.722 9.90347C73.2443 9.98776 73.7341 10.2536 74.2824 10.2125C74.265 6.82566 70.091 7.66427 67.9455 8.4294L67.1328 5.51153C68.0517 5.31485 68.9229 4.8977 69.8548 4.73992C72.5681 4.27522 76.1223 4.54756 77.2904 7.45678C77.3619 7.63401 77.6978 8.60015 77.6978 8.67148V17.6672L77.6935 17.6693ZM71.1465 12.0324C69.196 12.3588 68.8601 14.8876 70.8582 15.3285C72.6852 15.7306 74.7592 14.5418 74.2087 12.4734C73.2985 12.0303 72.1477 11.866 71.1465 12.0324Z" fill="white" fill-opacity="0.7"/>
<path d="M85.1291 4.57782C87.5347 4.24929 89.9532 4.79396 91.5071 6.72623L89.3139 9.07349C86.1823 5.63473 81.7916 9.10375 83.6749 13.0807C84.6957 15.2356 87.8164 15.3091 89.2316 13.5281L89.4591 13.4633L91.5006 15.4993C89.795 18.1664 85.7901 18.6376 83.1071 17.2133C77.6502 14.317 78.996 5.41427 85.1269 4.57782H85.1291Z" fill="white" fill-opacity="0.7"/>
<path d="M5.20124 1.45892V4.701H8.12694V7.94307H5.20124V14.0209C5.63684 14.6974 6.47554 14.6952 7.22755 14.5828C7.58947 14.5288 7.77368 14.2478 8.12694 14.263V17.0987C6.15046 18.3545 2.35789 18.3415 1.6969 15.5684C1.65139 15.3782 1.46285 14.4121 1.46285 14.3429V7.94091H0V4.69884H1.46285V1.45892H5.20124Z" fill="white" fill-opacity="0.7"/>
<path d="M27.7941 17.6693H24.0557V0.242075L24.2985 0H27.5492L27.7941 0.242075V17.6693Z" fill="white" fill-opacity="0.7"/>
</g>
<defs>
<clipPath id="clip0_2077_171">
<rect width="105" height="18" fill="white"/>
</clipPath>
</defs>
</svg>
