<svg width="114" height="22" viewBox="0 0 114 22" fill="none" xmlns="http://www.w3.org/2000/svg">
<g opacity="0.56" clip-path="url(#clip0_2078_1341)">
<path d="M38.3213 2.08502V15.5387C38.3213 18.5034 35.6591 20.7578 32.1431 20.7578C28.6271 20.7578 25.9648 18.5034 25.9648 15.5387V5.2463C25.9648 3.50633 27.3971 2.08502 29.1795 2.08502H29.4062V15.5141C29.4062 17.1066 30.8619 18.0872 32.269 18.0872C33.6249 18.0872 35.0815 17.1804 35.0815 15.5141V5.07511C35.0815 3.4326 36.4634 2.08502 38.1459 2.08502H38.3213Z" fill="white" fill-opacity="0.7"/>
<path d="M45.0992 6.83911C49.7948 6.83911 50.5487 9.41221 50.5487 10.9564V20.5623H50.3984C48.6656 20.5623 47.1838 19.141 47.1838 17.4493V11.0056C47.1838 10.0987 46.8068 9.01981 44.9733 9.01981C44.1194 9.01981 43.6174 9.11806 43.065 9.31389V20.5623H39.6992V7.84425C41.1306 7.2315 43.4419 6.83911 45.0992 6.83911Z" fill="white" fill-opacity="0.7"/>
<path d="M55.358 6.83912V17.4748C55.358 19.1647 53.9509 20.5623 52.1938 20.5623H52.0427V6.83912H55.358ZM53.7008 2.08533C54.7049 2.08533 55.5083 2.82011 55.5083 3.72697C55.5083 4.60924 54.7049 5.31948 53.7008 5.31948C52.6958 5.31948 51.8672 4.60924 51.8672 3.72697C51.8672 2.82011 52.6958 2.08533 53.7008 2.08533Z" fill="white" fill-opacity="0.7"/>
<path d="M64.9226 1.81555C66.5043 1.81555 67.9861 2.15879 69.2169 2.8936V6.12864C68.4638 5.17261 67.3833 4.51068 65.6505 4.51068C62.2352 4.51068 60.1254 7.79489 60.1254 11.2011C60.1254 14.4115 62.336 17.9152 65.6505 17.9152C67.1071 17.9152 68.4386 17.4991 69.2169 16.4694V19.6552C68.2371 20.3663 66.7058 20.7579 64.8965 20.7579C59.4731 20.7579 56.6094 15.9066 56.6094 11.2257C56.6094 6.61849 59.4731 1.81555 64.9226 1.81555Z" fill="white" fill-opacity="0.7"/>
<path d="M75.1621 6.8391C75.7145 6.8391 76.4181 6.88836 77.046 6.98566V9.60788C75.89 8.79933 74.3578 9.06887 73.6803 9.41208V17.4747C73.6803 19.1646 72.2489 20.5622 70.516 20.5622H70.3397V7.89248C71.6461 7.27971 72.9767 6.8391 75.1621 6.8391Z" fill="white" fill-opacity="0.7"/>
<path d="M85.7844 11.9853C85.6837 9.26469 83.9508 8.97144 83.0214 8.97144H82.8964C81.0124 9.01973 80.1334 10.319 80.1334 12.7447L85.7844 11.9853ZM88.6977 13.8473L80.334 14.9745C80.6102 17.2044 81.7655 18.3807 83.8753 18.3807C86.2109 18.3807 87.3913 17.6459 88.2451 17.0577V19.7775C87.3913 20.219 85.8087 20.758 83.5487 20.758C79.4551 20.758 77.0195 18.0621 77.0195 13.749C77.0195 9.5588 79.2796 6.83905 82.9963 6.83905C86.6634 6.83905 88.6977 9.21639 88.6977 13.3328V13.8473Z" fill="white" fill-opacity="0.7"/>
<path d="M97.4665 9.48591C97.1147 9.38765 96.7386 9.33935 96.3113 9.33935C93.5483 9.33935 92.9707 11.9362 92.9707 14.0931C92.9707 17.107 94.0009 18.602 96.0855 18.602C96.4364 18.602 97.2155 18.5283 97.4665 18.479V9.48591ZM100.757 2.08527V20.3902C99.9524 20.5622 97.3154 20.7581 96.2105 20.7581H95.9847C91.8911 20.7088 89.6562 18.4053 89.6562 14.2643C89.6562 10.0741 91.9919 7.37809 95.6078 7.37809C96.3114 7.37809 96.9141 7.45186 97.4414 7.57487V5.1975C97.4414 3.4821 98.8476 2.08538 100.606 2.08538L100.757 2.08527Z" fill="white" fill-opacity="0.7"/>
<path d="M105.639 6.83912V17.4748C105.639 19.1647 104.233 20.5623 102.475 20.5623H102.324V6.83912H105.639ZM103.981 2.08533C104.986 2.08533 105.79 2.82011 105.79 3.72697C105.79 4.60924 104.986 5.31948 103.981 5.31948C102.977 5.31948 102.148 4.60924 102.148 3.72697C102.148 2.82011 102.977 2.08533 103.981 2.08533Z" fill="white" fill-opacity="0.7"/>
<path d="M111.512 2.08501V6.8388H113.672V9.46106H111.512V16.7397C111.512 17.6211 111.813 17.8906 112.792 17.8906C113.043 17.8906 113.42 17.8168 113.672 17.7193V20.4391C113.521 20.4883 112.868 20.7577 111.989 20.7577C109.528 20.7577 108.171 19.5822 108.171 17.4498V9.46095H106.715V6.83869H108.171V5.17246C108.171 3.48164 109.578 2.0849 111.311 2.0849L111.512 2.08501Z" fill="white" fill-opacity="0.7"/>
<path fill-rule="evenodd" clip-rule="evenodd" d="M11.7192 5.83538L11.7391 5.80752C11.9077 5.56682 11.8373 5.38884 11.7244 5.29306L9.9551 4.22846C9.83263 4.14798 9.75185 4.01154 9.75185 3.85557C9.75185 3.6098 9.90212 3.42416 10.2443 3.33176C11.3353 3.03938 15.1727 2.88599 16.4764 2.88599C16.929 2.88599 17.7081 2.88428 18.4073 2.90278L18.3769 2.87397C16.4651 1.27975 13.9836 0.31781 11.271 0.31781C5.22478 0.31781 0.324219 5.09957 0.324219 10.9992C0.324219 13.5927 1.27098 15.97 2.84659 17.8201C4.22156 15.8912 7.61599 11.134 8.36037 10.1627C9.21766 9.04314 11.172 6.55222 11.5029 6.13016L11.5194 6.11095L11.7192 5.83538Z" fill="white" fill-opacity="0.4"/>
<path fill-rule="evenodd" clip-rule="evenodd" d="M4.59608 19.4676C6.44356 20.8558 8.75834 21.6822 11.2712 21.6822C17.3174 21.6822 22.2179 16.9004 22.2179 11.0008C22.2179 9.21501 21.7697 7.53262 20.9758 6.0537C21.3528 5.69943 21.788 5.13921 21.5022 4.43662C21.4136 4.22736 20.988 3.75264 20.8786 3.63739L20.8933 3.67801C21.16 4.46282 20.6328 4.95437 20.2541 5.28915C20.0465 5.47293 17.267 8.03007 14.0072 10.8117C11.1339 13.2627 7.92016 15.757 6.05878 17.1173C3.44 19.0302 2.93014 19.3081 2.93014 19.3081C2.86152 19.3447 2.746 19.3759 2.66088 19.3759C2.50106 19.3759 2.3621 19.3055 2.27437 19.1945L2.27165 19.1897L2.2655 19.2719C2.54606 19.7151 3.01161 20.2296 3.28261 20.2296C3.36773 20.2296 3.48324 20.1984 3.55273 20.1626C3.55273 20.1626 3.75789 20.0514 4.59608 19.4676Z" fill="white" fill-opacity="0.4"/>
<path fill-rule="evenodd" clip-rule="evenodd" d="M11.7354 5.80741C11.9039 5.56765 11.8336 5.38874 11.7206 5.29295L9.95135 4.22934C9.82888 4.14886 9.7481 4.0124 9.7481 3.85557C9.7481 3.61064 9.89835 3.42501 10.2406 3.3318C11.3324 3.03939 15.1689 2.88684 16.4727 2.88684C17.0885 2.88684 18.3071 2.88203 19.1097 2.93416C20.0096 2.99182 20.6931 3.17321 20.8625 3.59863C21.1952 4.43091 20.6445 4.9445 20.2528 5.29031C20.0452 5.47506 17.2657 8.03207 14.0068 10.8128C11.1326 13.2639 7.91885 15.759 6.05748 17.1193C3.4387 19.0313 2.9297 19.3093 2.9297 19.3093C2.86022 19.3458 2.7447 19.3771 2.66044 19.3771C2.38857 19.3771 2.17578 19.1745 2.17578 18.9092C2.17578 18.8083 2.20705 18.7144 2.26089 18.638C2.26089 18.638 7.41855 11.3891 8.35662 10.1636C9.29469 8.93804 11.5478 6.07084 11.5478 6.07084C11.5478 6.07084 11.5738 6.03807 11.7354 5.80741Z" fill="white" fill-opacity="0.7"/>
</g>
<defs>
<clipPath id="clip0_2078_1341">
<rect width="114" height="22" fill="white"/>
</clipPath>
</defs>
</svg>
