<svg width="144" height="24" viewBox="0 0 144 24" fill="none" xmlns="http://www.w3.org/2000/svg">
<path d="M131.258 21.2946V2.06897H132.936V10.0469C133.648 8.03282 135.377 7.01269 137.538 7.01269C140.64 7.01269 142.395 9.15759 142.395 12.2965V21.2946H140.717V12.8981C140.717 10.23 139.572 8.60828 137.157 8.60828C134.563 8.60828 132.936 10.6224 132.936 13.1858V21.2946H131.258Z" fill="white"/>
<path d="M116.719 14.2844C116.719 9.91609 119.236 7.01263 123.152 7.01263C126.33 7.01263 128.593 8.94827 129.229 12.0087H127.449C126.94 9.9684 125.491 8.60822 123.177 8.60822C120.024 8.60822 118.448 11.0932 118.448 14.2844C118.448 17.5017 120.024 19.9866 123.177 19.9866C125.669 19.9866 127.144 18.391 127.55 16.1415H129.33C128.771 19.4635 126.457 21.5822 123.152 21.5822C119.236 21.5822 116.719 18.6526 116.719 14.2844Z" fill="white"/>
<path d="M104.249 13.4211H113.275C113.097 10.6484 111.673 8.60818 108.851 8.60818C106.028 8.60818 104.503 10.7008 104.249 13.4211ZM102.469 14.2843C102.469 9.91604 104.961 7.01258 108.825 7.01258C112.589 7.01258 115.055 9.7591 115.055 13.9443V14.8859H104.223C104.427 17.7632 105.952 19.9866 108.902 19.9866C111.088 19.9866 112.487 18.7572 113.072 16.9262H114.852C114.089 19.8035 111.902 21.5822 108.851 21.5822C104.986 21.5822 102.469 18.6526 102.469 14.2843Z" fill="white"/>
<path d="M95.3077 21.2946V4.21394H89.0781V2.59219H103.241V4.21394H97.0112V21.2946H95.3077Z" fill="white"/>
<path d="M77.0257 13.8921H83.0772L80.0514 5.28639L77.0257 13.8921ZM71.3047 21.2946L78.119 2.59219H81.9839L88.7728 21.2946H85.6199L83.9163 16.4556H76.1612L74.4576 21.2946H71.3047Z" fill="white"/>
<path d="M64.041 21.2946L57.125 2.59219H60.2779L65.9735 18.4435L71.6945 2.59219H74.8474L67.9059 21.2946H64.041Z" fill="white"/>
<path d="M47.9939 21.2946V14.206L41.2812 2.59219H44.6121L49.4432 11.381L54.2997 2.59219H57.6051L50.8925 14.206V21.2946H47.9939Z" fill="white"/>
<path d="M33.4202 13.8921H39.4717L36.446 5.28639L33.4202 13.8921ZM27.6992 21.2946L34.5136 2.59219H38.3784L45.1673 21.2946H42.0144L40.3108 16.4556H32.5557L30.8521 21.2946H27.6992Z" fill="white"/>
<path d="M22.9293 2.58603L17.4923 12.4512L12.4704 21.5627L9.19856 15.6267C9.19856 15.6267 9.19828 15.6261 9.19828 15.6258C8.28819 13.855 9.30058 11.5228 10.9422 10.3337L11.7385 9.7567L10.8635 10.1907C9.05926 11.0853 6.64542 10.7189 5.61593 9.12572C5.61565 9.12572 5.61537 9.12543 5.61537 9.12514L2.01172 2.58603H7.81394L8.6349 2.6562C10.6418 2.82767 12.2349 4.49658 12.3986 6.59887L12.4704 7.51994L12.5421 6.59887C12.7061 4.49658 14.2989 2.82767 16.3058 2.6562L17.127 2.58603L22.9293 2.58603Z" fill="white"/>
</svg>
