<?xml version="1.0" standalone="no"?>
<!DOCTYPE svg PUBLIC "-//W3C//DTD SVG 20010904//EN"
 "http://www.w3.org/TR/2001/REC-SVG-20010904/DTD/svg10.dtd">
<svg version="1.0" xmlns="http://www.w3.org/2000/svg"
 width="1024.000000pt" height="1024.000000pt" viewBox="0 0 1024.000000 1024.000000"
 preserveAspectRatio="xMidYMid meet">

<g transform="translate(0.000000,1024.000000) scale(0.100000,-0.100000)"
fill="#000000" stroke="none">
<path d="M2758 7158 c11 -18 68 -116 127 -218 59 -102 131 -225 160 -275 59
-101 244 -421 416 -719 127 -220 180 -285 294 -358 146 -93 288 -137 468 -145
206 -10 396 31 586 126 44 23 86 41 93 41 6 0 -37 -34 -97 -76 -263 -186 -420
-404 -486 -674 -17 -73 -20 -110 -17 -207 6 -152 22 -199 145 -412 96 -165
173 -300 326 -566 198 -345 331 -571 341 -582 9 -10 23 7 63 75 80 136 623
1082 651 1132 13 25 37 65 52 90 33 54 224 382 600 1035 152 264 337 584 410
710 73 127 185 320 248 430 63 110 134 233 158 272 24 40 44 75 44 77 0 2 17
33 38 67 22 35 58 97 80 137 l42 73 -768 -4 c-654 -3 -777 -6 -837 -20 -304
-69 -537 -247 -665 -507 -53 -110 -79 -206 -93 -351 -12 -121 -27 -151 -27
-54 0 72 -25 206 -53 290 -104 303 -352 532 -659 608 -127 32 -254 37 -956 37
l-704 0 20 -32z"/>
</g>
</svg>
