<svg width="74" height="22" viewBox="0 0 74 22" fill="none" xmlns="http://www.w3.org/2000/svg">
<g opacity="0.56" clip-path="url(#clip0_2078_1309)">
<path d="M21.2035 2.05031V0.412122H30.628V4.59381L26.6498 17.2682C26.5954 17.4691 26.9092 17.407 27.0432 17.401C27.2897 17.3906 27.5006 17.3148 27.728 17.307C28.6921 17.2734 29.6648 17.3398 30.628 17.3105V21.5353H20.6847C20.6761 21.2637 20.6968 20.9869 20.6847 20.7144C20.6804 20.617 20.6977 20.5317 20.5559 20.5877C20.3146 20.6825 19.8529 21.0973 19.5045 21.2645C16.9711 22.4768 12.7612 22.3173 11.0405 19.8109L10.9108 19.8514C9.07435 22.1629 5.05033 22.4216 2.55325 21.1205C-0.00780286 19.7867 0.255912 16.6043 0.192793 14.1212H4.9483V17.4407C4.9483 17.7062 5.26649 18.2175 5.54836 18.3072C6.24007 18.527 6.62743 18.1528 6.75539 17.5182C6.95253 16.5448 6.93697 14.8661 6.20116 14.1212C5.56738 13.4805 4.18396 12.6968 3.4006 12.0855C1.95925 10.9612 0.729733 10.0231 0.251588 8.15558C-0.127123 6.67948 -0.0977251 4.22824 0.472936 2.80388C1.71801 -0.302645 7.57939 -0.616488 9.8361 1.44418L10.7837 2.56677C11.3743 1.68646 12.1153 0.990661 13.1036 0.568181C15.0827 -0.277641 18.1565 -0.211252 19.9861 0.979452C20.4461 1.27864 20.7755 1.71836 21.2035 2.05031ZM6.59111 6.96487V4.33515C6.59111 4.3067 6.34555 3.89543 6.29368 3.85576C5.90199 3.55917 5.24055 3.6885 5.01661 4.1446C4.70101 4.78953 4.80477 6.40013 5.19126 7.02437C5.6305 7.73396 7.96934 9.05917 8.79421 9.72565C9.19799 10.0524 9.56546 10.4266 9.9632 10.7586V6.96487H6.59111ZM22.3275 4.63692V9.68082L22.1978 9.81015H17.1829L17.0532 9.68082V4.76625C17.0532 4.7378 16.9261 4.29635 16.8993 4.22996C16.5422 3.34793 15.4208 3.63159 15.3309 4.51449C15.3456 8.46856 14.9954 12.7313 15.2332 16.669C15.2876 17.5717 15.4018 18.7253 16.6157 18.2123C16.6935 18.1718 16.735 18.1037 16.7817 18.0338C16.959 17.7674 17.0299 16.9354 17.0524 16.5793C17.1189 15.4947 17.0039 14.3505 17.0524 13.2607H22.3266L25.007 4.63865H22.3266L22.3275 4.63692Z" fill="white" fill-opacity="0.7"/>
<path d="M61.8414 8.94794L62.9222 9.03416L64.8677 12.0519V8.94794H65.9052V13.7763L64.7942 13.7625L62.7925 10.5861V13.7763H61.8414V8.94794Z" fill="white" fill-opacity="0.7"/>
<path d="M43.4809 9.49544C44.7934 10.7896 44.2945 13.6107 42.2479 13.853C38.7651 14.2651 38.6302 8.91776 41.8251 8.85482C42.3326 8.84447 43.1194 9.13934 43.4809 9.49544ZM41.7637 9.74203C40.0923 9.88946 40.2402 13.1624 41.9989 13.0046C43.6166 12.8589 43.48 9.59114 41.7637 9.74203Z" fill="white" fill-opacity="0.7"/>
<path d="M71.0066 13.1296C68.8113 14.9825 66.0678 13.2391 66.9169 10.4309C67.5135 8.45736 70.512 8.23663 71.0075 10.3266L70.0607 10.4991C69.7295 9.33594 68.0781 9.66962 67.9 10.8069C67.6639 12.3131 68.4248 13.5642 70.0149 12.7434L70.0564 12.051L69.1952 12.0476C69.2073 11.7518 68.9557 11.4095 69.2341 11.1897H71.0066V13.1296Z" fill="white" fill-opacity="0.7"/>
<path d="M55.4431 8.94794V10.8448H57.5183V8.94794H58.5558V13.7763H57.5183V11.8363C57.5183 11.8139 57.5952 11.7872 57.597 11.7501L57.4759 11.6415L55.4431 11.6208V13.7763H54.4056V8.94794H55.4431Z" fill="white" fill-opacity="0.7"/>
<path d="M47.3942 8.95569L49.1313 13.7754L48.0185 13.7651L47.606 12.7537L45.8361 12.7959L45.4851 13.7633L44.3749 13.7771L46.1457 9.03415L47.3925 8.95741L47.3942 8.95569ZM47.402 11.8794L46.7535 10.0679L46.1915 11.8794H47.402Z" fill="white" fill-opacity="0.7"/>
<path d="M53.6283 10.4128C53.3326 10.4447 52.9374 10.5818 52.6469 10.4861C52.4818 10.4318 52.4264 9.98433 52.0676 9.85758C49.9129 9.09453 49.8887 13.3788 51.835 12.9831C52.4714 12.8537 52.493 12.1855 52.6443 12.145L53.6274 12.2261C53.3092 14.2695 50.4352 14.429 49.6034 12.6606C49.2982 12.0122 49.3103 10.9293 49.5394 10.2611C50.1939 8.35821 53.2063 8.40132 53.6283 10.4137V10.4128Z" fill="white" fill-opacity="0.7"/>
<path d="M39.0115 10.4103L38.031 10.5051C37.9515 10.4835 37.9498 9.90241 37.3229 9.81533C35.9213 9.61961 35.6663 11.3328 36.0977 12.3321C36.4816 13.221 37.8278 13.2607 38.0302 12.22L39.0081 12.3192C38.8974 13.8323 37.0082 14.2514 35.8426 13.5349C34.7757 12.8796 34.5915 10.9405 35.1933 9.92225C36.0968 8.39183 38.7444 8.54013 39.0124 10.4103H39.0115Z" fill="white" fill-opacity="0.7"/>
<path d="M60.6309 16.8802L61.3961 16.894L63.7436 20.5015V16.8802H64.3489V21.5361L63.6502 21.4137L61.2785 17.9157C61.1367 17.9804 61.3218 18.1166 61.3218 18.1313V21.4077C61.1549 21.6094 60.784 21.6008 60.6301 21.4077V16.8811L60.6309 16.8802Z" fill="white" fill-opacity="0.7"/>
<path d="M56.3942 1.01566L57.156 1.0329L59.5934 4.63691V1.01566H60.1986V5.67156L59.4378 5.65431L56.9995 2.0503V5.67156H56.3942V1.01566Z" fill="white" fill-opacity="0.7"/>
<path d="M41.3063 16.8802C43.4419 17.1803 43.6252 20.7998 41.6565 21.368C41.493 21.4154 40.9172 21.5361 40.7875 21.5361H39.3176L39.1879 21.4068V16.8802C39.8485 16.9466 40.6682 16.7905 41.3063 16.8802ZM39.8796 20.9326C40.5238 20.9326 41.4991 21.005 41.9565 20.4601C42.5436 19.76 42.5194 18.3028 41.7395 17.7424C41.6556 17.6821 41.2812 17.4846 41.2198 17.4846H39.8796V20.9334V20.9326Z" fill="white" fill-opacity="0.7"/>
<path d="M46.1483 16.8802C47.549 17.113 47.7703 19.1021 46.3618 19.5143L47.402 21.5361C47.1608 21.5198 46.8642 21.6042 46.661 21.4568C46.4397 21.2973 45.8967 19.954 45.6736 19.6393H44.4631V21.5361H43.8578V16.8802C44.553 16.9613 45.486 16.7699 46.1491 16.8802H46.1483ZM44.4622 19.0357H46.0618C46.1042 19.0357 46.4794 18.8004 46.5287 18.7253C46.6792 18.4969 46.6774 17.9545 46.4915 17.745C46.4492 17.6976 46.0869 17.4838 46.0618 17.4838H44.4622V19.0357Z" fill="white" fill-opacity="0.7"/>
<path d="M44.8513 0.977741C47.7452 1.00533 47.7859 5.26117 45.3312 5.719C41.9513 6.34927 41.4749 0.945839 44.8513 0.977741ZM44.5262 1.55369C42.7226 1.85288 42.867 4.91715 44.5132 5.1465C45.1928 5.24134 45.8577 5.04045 46.1768 4.40586C46.8218 3.12032 46.1655 1.2821 44.5271 1.55369H44.5262Z" fill="white" fill-opacity="0.7"/>
<path d="M71.7562 0.962222C74.8023 0.926872 74.7531 5.94404 71.5651 5.76125C68.7533 5.60002 68.7144 0.997572 71.7562 0.962222ZM71.4164 1.55369C69.5747 1.86064 69.6655 5.58795 72.154 5.13443C73.9005 4.81541 73.7172 1.17001 71.4164 1.55369Z" fill="white" fill-opacity="0.7"/>
<path d="M72.0442 16.8802V17.4838H69.5367V18.8633H71.6983V19.3806H69.5367V20.8032C69.8947 21.105 70.4636 20.8619 70.8735 20.8429C71.2617 20.8248 71.6568 20.8636 72.045 20.8464V21.5361H68.9756L68.8459 21.4068V17.0095L68.9756 16.8802H72.045H72.0442Z" fill="white" fill-opacity="0.7"/>
<path d="M38.4963 2.30812L37.8132 2.29949C37.7328 1.28296 35.7147 1.2226 35.6646 2.28053C35.617 3.26947 38.198 2.77457 38.5421 4.02994C39.137 6.20011 34.8241 6.43118 34.9512 4.20497L35.6404 4.20841C35.4726 5.2922 37.4959 5.5569 37.8262 4.78695C38.5282 3.15308 35.3628 4.04632 35.0585 2.59092C34.6348 0.563877 38.4167 0.419027 38.4971 2.30812H38.4963Z" fill="white" fill-opacity="0.7"/>
<path d="M64.6083 2.30811L63.9296 2.29517C63.6857 1.32692 62.0412 1.20793 61.7559 2.18653L61.819 2.54607C62.1519 3.23584 64.2745 2.77973 64.604 4.08338C65.1435 6.21906 60.8912 6.3984 61.0624 4.20409L61.6737 4.24203C61.8432 5.16028 62.5833 5.37324 63.416 5.12751C64.0662 4.9361 64.2598 4.16788 63.6503 3.823C62.7701 3.32464 60.8774 3.76092 61.1549 2.01065C61.3892 0.534552 64.5659 0.652674 64.6074 2.30724L64.6083 2.30811Z" fill="white" fill-opacity="0.7"/>
<path d="M55.789 16.8802C55.7855 17.0061 55.8054 17.1372 55.7838 17.263C55.6731 17.9131 53.623 20.0799 53.195 20.805C53.1726 21.0688 53.2884 20.8472 53.3239 20.8472H55.7449C55.9472 21.0136 55.9385 21.3835 55.7449 21.537H52.4592C52.2707 21.3921 52.2863 21.0533 52.3762 20.8498C53.1103 19.76 54.192 18.6546 54.8465 17.5372C54.9952 17.2837 54.8785 17.4846 54.7938 17.4846H52.4592L52.3295 16.8811H55.7881L55.789 16.8802Z" fill="white" fill-opacity="0.7"/>
<path d="M59.7663 16.8802V17.4838H57.2589V18.8633H59.5069V19.3806H57.2589V20.8464L59.7663 20.8455V21.5361H56.6536V16.8802H59.7663Z" fill="white" fill-opacity="0.7"/>
<path d="M55.5296 1.01566V1.6192H53.0222V3.08495H55.1837V3.60227H53.0222V5.15424H55.5296V5.67156H52.3304V1.14499L52.4601 1.01566H55.5296Z" fill="white" fill-opacity="0.7"/>
<path d="M66.0782 1.01566V3.34361L68.2916 1.1105L69.1035 1.01566L67.395 2.86767L69.2773 5.66983L68.4291 5.65345L66.8901 3.43241C66.7699 3.40655 66.0773 4.14028 66.0773 4.24806V5.6707H65.472V1.01566H66.0773H66.0782Z" fill="white" fill-opacity="0.7"/>
<path d="M38.3233 16.8802C38.3147 17.0337 38.3475 17.2001 38.3199 17.351C38.2481 17.7364 36.3312 20.0066 35.9551 20.5972C35.8963 20.6886 35.8038 20.7705 35.8159 20.8895L38.3233 20.8472V21.537H34.9512L34.9979 20.7644L37.4578 17.526C37.4803 17.2622 37.3644 17.4838 37.329 17.4838H34.9512V16.8802H38.3233Z" fill="white" fill-opacity="0.7"/>
<path d="M48.6989 16.8802V19.7686C48.6989 19.8695 48.8831 20.4334 48.9575 20.5454C49.35 21.1326 50.5034 21.0645 50.8493 20.4472C50.8839 20.3859 51.0335 19.9721 51.0335 19.941V16.8802H51.6387V20.1997C51.6387 20.2299 51.4528 20.68 51.4139 20.7515C50.8407 21.8224 48.8909 21.8224 48.3176 20.7515C48.2796 20.68 48.0928 20.229 48.0928 20.1997V16.8802H48.6981H48.6989Z" fill="white" fill-opacity="0.7"/>
<path d="M47.996 1.02688L49.5627 4.89559L50.9548 1.15276L51.6387 1.01653L49.8982 5.66122L49.101 5.67674L47.3147 1.14586C47.2766 0.897545 47.8369 1.04412 47.996 1.02774V1.02688Z" fill="white" fill-opacity="0.7"/>
<path d="M60.6309 8.94794V13.7763L59.7196 13.8427L59.5934 13.7332V8.94794H60.6309Z" fill="white" fill-opacity="0.7"/>
<path d="M67.8939 16.8802V20.3721C67.8939 20.6351 67.4365 21.2456 67.1763 21.3809C66.1128 21.9362 64.9879 21.1395 65.0406 19.9842L65.6519 20.0212C65.779 20.6817 66.0081 21.1343 66.7751 20.8938C67.0708 20.8007 67.2887 20.2963 67.2887 20.0273V16.8802H67.8939Z" fill="white" fill-opacity="0.7"/>
<path d="M39.9661 5.15424H42.3871V5.67156H39.3609V1.01566L40.0466 1.15533L39.9661 5.15424Z" fill="white" fill-opacity="0.7"/>
<path d="M55.0973 15.674L54.0917 16.7017L53.023 15.7154C53.5167 15.5309 53.7329 15.7576 54.0926 16.012C54.3874 15.6473 54.6399 15.6292 55.0981 15.6731L55.0973 15.674Z" fill="white" fill-opacity="0.7"/>
</g>
<defs>
<clipPath id="clip0_2078_1309">
<rect width="74" height="22" fill="white"/>
</clipPath>
</defs>
</svg>
