<svg width="58" height="22" viewBox="0 0 58 22" fill="none" xmlns="http://www.w3.org/2000/svg">
<g opacity="0.56" clip-path="url(#clip0_2077_219)">
<path d="M14.0933 7.95148H0V22H14.0933V7.95148Z" fill="white" fill-opacity="0.7"/>
<path d="M22.046 0.12442V14.775H15.5026V6.64695H7.24799V0.12442H22.046Z" fill="white" fill-opacity="0.7"/>
<path d="M44.394 14.775H42.6826L38.354 7.65041H40.317C40.4941 7.65041 41.2673 7.31124 41.4766 7.20086C43.8685 5.92646 43.035 1.93266 40.317 1.62962C40.0854 1.60353 39.4673 1.52927 39.3103 1.52927H36.542V14.775H35.032V0.174589L35.2816 0.0220621C36.4554 0.0642077 37.6392 -0.0281112 38.811 0.0180482C40.2868 0.0782562 41.6458 0.15452 42.8316 1.12788C45.1288 3.0144 45.0342 7.32128 42.2478 8.67194C42.0223 8.78232 40.9733 9.00509 40.9713 9.10343L44.392 14.773L44.394 14.775Z" fill="white" fill-opacity="0.7"/>
<path d="M32.918 14.775H31.2066L26.878 7.65041H28.841C28.9255 7.65041 29.751 7.3574 29.8899 7.29117C32.3824 6.08501 31.6496 1.9447 28.843 1.62962C28.6114 1.60353 27.9933 1.52927 27.8363 1.52927H25.068V14.775C24.5928 14.7068 23.9325 14.9376 23.558 14.6245V0.174589L23.8076 0.0220621C24.9814 0.0642077 26.1652 -0.0281112 27.337 0.0180482C29.1168 0.0902978 30.7033 0.218741 31.9113 1.67979C33.6266 3.75295 33.3226 7.43768 30.7738 8.67194C30.5483 8.78232 29.4993 9.00509 29.4973 9.10343L32.918 14.773V14.775Z" fill="white" fill-opacity="0.7"/>
<path d="M57.9839 14.775H56.5242L54.6679 10.2032L48.1769 10.1531L46.3569 14.775H44.8972L50.4882 0.228788C50.7218 -0.140488 51.8291 0.0401359 52.2479 0.0702399L57.9839 14.773V14.775ZM54.0579 8.75424L51.3902 1.52928L48.7225 8.75424H54.0579Z" fill="white" fill-opacity="0.7"/>
<path d="M26.6766 16.6816L26.6565 17.0108L23.9587 21.4983H26.6766V21.8997H23.6063L23.4493 21.6468L26.1733 17.083H23.556V16.6816H26.6766Z" fill="white" fill-opacity="0.7"/>
<path d="M45.4005 16.6816V20.1938L46.9548 18.4819L47.5145 18.3875L46.528 19.7241L47.8165 21.8977C47.5186 21.9398 47.3917 21.8595 47.2125 21.6488C47.0333 21.4381 46.2602 19.9911 46.1575 19.9931C46.0186 20.1797 45.469 20.7015 45.4207 20.8621C45.3542 21.0848 45.4509 21.8435 45.4025 21.8977H44.9999V16.6796H45.4025L45.4005 16.6816Z" fill="white" fill-opacity="0.7"/>
<path d="M54.1586 21.8997L53.762 21.8936L53.7539 21.5986C52.8318 22.2208 51.1366 21.988 51.4587 20.565C51.505 20.3644 51.9218 19.8927 52.0929 19.8927H53.7539C54.0358 18.6404 52.6385 18.2832 51.8795 19.0839L51.5392 18.8391C52.0164 18.2209 53.0372 18.1086 53.6875 18.5019C53.8103 18.5762 54.1546 18.9354 54.1546 19.0398V21.8997H54.1586ZM53.7559 20.1918C52.9425 20.2058 51.5553 19.9489 51.8916 21.1972C52.2359 21.6869 53.5667 21.6026 53.7358 21.0266L53.7539 20.1918H53.7559Z" fill="white" fill-opacity="0.7"/>
<path d="M30.4013 20.1938H27.9853C27.8947 21.5324 29.0966 21.9117 30.0489 21.1109L30.3006 21.4963C29.6825 21.8354 28.8893 22.1385 28.2349 21.701C27.1175 20.9524 27.3551 18.2791 28.9416 18.2791C30.0228 18.2791 30.4415 19.2445 30.4013 20.1938ZM29.9986 19.8927C29.9261 18.3072 27.9752 18.2169 27.9853 19.8927H29.9986Z" fill="white" fill-opacity="0.7"/>
<path d="M36.2399 20.1938H33.8239C33.6911 21.5203 34.9574 21.9117 35.8876 21.1109L36.1372 21.3477C35.7889 21.7973 35.2292 21.9478 34.6776 21.9017C32.8918 21.7471 32.9683 18.2791 34.7803 18.2791C35.8634 18.2791 36.2782 19.2425 36.2399 20.1938ZM35.8373 19.8927C35.7346 18.2932 33.7957 18.233 33.8239 19.8927H35.8373Z" fill="white" fill-opacity="0.7"/>
<path d="M57.7825 18.5882L57.5329 18.9695C57.1866 18.6103 56.0491 18.538 55.8196 18.9876C55.4048 20.4366 57.6054 19.4351 57.9396 20.4888C58.4268 22.0261 55.892 22.3472 55.1672 21.3477L55.4169 21.1109C55.9444 21.6086 56.8121 21.6367 57.4302 21.2976C58.1792 19.6178 55.3585 20.9102 55.276 19.3408C55.4692 18.0303 56.8302 18.1587 57.7825 18.5902V18.5882Z" fill="white" fill-opacity="0.7"/>
<path d="M40.0653 21.8996H39.6626V19.3408C39.6626 19.3107 39.411 18.8812 39.3586 18.8411C39.1291 18.6725 38.6177 18.6464 38.3479 18.7327C38.1244 18.8029 37.75 19.2264 37.75 19.4412V21.8996H37.3473V18.3875L37.7439 18.3935L37.8003 18.6886C38.3479 18.1868 39.0908 18.1266 39.6646 18.6364C39.7915 18.7488 40.0653 19.0919 40.0653 19.2405V21.8996Z" fill="white" fill-opacity="0.7"/>
<path d="M31.9113 16.6816V21.1471C31.9113 21.4541 32.467 21.5404 32.7166 21.5003V21.8997C32.3663 22.0301 31.5086 21.5986 31.5086 21.2474V16.6816H31.9113Z" fill="white" fill-opacity="0.7"/>
<path d="M48.8232 21.8996V18.3875L49.2199 18.3935L49.2762 18.6885C49.7313 18.1427 50.5326 18.1587 51.0379 18.6384L50.7742 18.8772L49.7997 18.7066C48.791 19.3227 49.395 20.7416 49.2138 21.7351L48.8253 21.8996H48.8232Z" fill="white" fill-opacity="0.7"/>
<path d="M41.7766 18.3875H41.3739V21.8996H41.7766V18.3875Z" fill="white" fill-opacity="0.7"/>
<path d="M41.8772 16.6796H41.3739V17.1814H41.8772V16.6796Z" fill="white" fill-opacity="0.7"/>
</g>
<defs>
<clipPath id="clip0_2077_219">
<rect width="58" height="22" fill="white"/>
</clipPath>
</defs>
</svg>
