<svg width="71" height="22" viewBox="0 0 71 22" fill="none" xmlns="http://www.w3.org/2000/svg">
<g opacity="0.56" clip-path="url(#clip0_2078_976)">
<path d="M69.0071 7.79243C69.3238 7.82331 69.8643 7.95575 70.1322 8.13045C71.2165 8.83738 71.0325 10.924 69.6168 11.1215L70.9992 13.7989L70.1989 13.7859L68.7621 11.2832H67.4205V13.7997H66.6886V7.79243C67.4351 7.84525 68.2712 7.72093 69.0063 7.79243H69.0071ZM67.4213 10.7152H69.3327C69.3563 10.7152 69.6983 10.5145 69.7414 10.4739C70.1256 10.1107 70.1493 9.09984 69.7821 8.72443C69.7056 8.64643 69.3254 8.44248 69.2513 8.44248H67.4213V10.7152Z" fill="white" fill-opacity="0.7"/>
<path d="M38.1022 7.79243C40.091 8.03051 40.4354 10.5486 38.5483 11.1629L40.0129 13.8809L39.1581 13.72L37.7766 11.2832H36.4757L36.3536 11.4051V13.6778C36.3536 13.6948 36.4749 13.7696 36.435 13.7989H35.6217V7.79243C36.4073 7.85987 37.3353 7.70061 38.1022 7.79243ZM36.3536 10.7152H38.265C38.957 10.7152 39.2338 9.42404 38.8308 8.852C38.7551 8.74475 38.3513 8.44247 38.265 8.44247H36.4757L36.3536 8.56436V10.7152Z" fill="white" fill-opacity="0.7"/>
<path d="M43.795 7.79243C45.7455 8.02564 46.1217 10.5673 44.2411 11.1629L45.7065 13.7989L44.8517 13.72L43.4702 11.284H42.1286V13.8005H41.3967V7.79325C42.1571 7.85906 43.0542 7.70468 43.7958 7.79325L43.795 7.79243ZM42.1278 10.7152H44.0392C44.4096 10.7152 44.7459 9.89452 44.7328 9.54268C44.7165 9.11771 44.3478 8.44248 43.8764 8.44248H42.1278V10.7152Z" fill="white" fill-opacity="0.7"/>
<path d="M64.3311 7.79242H64.9815V12.6223C64.9815 12.6889 64.7267 13.1878 64.6575 13.2731C63.8581 14.2498 61.3931 14.1856 60.684 13.0968C60.6376 13.0253 60.4268 12.5776 60.4268 12.5418V7.79323L61.1399 7.91187C61.1073 8.01669 61.0723 8.12232 61.0731 8.23445C61.0821 9.21114 60.9128 11.7219 61.2246 12.4768C61.6682 13.5502 63.1783 13.6217 64.0071 12.9497C64.1235 12.8262 64.3311 12.281 64.3311 12.1364V7.79323V7.79242Z" fill="white" fill-opacity="0.7"/>
<path d="M51.9685 13.7988L51.2504 13.785L50.587 12.1339H48.2261L47.6188 13.7192L46.8455 13.798L49.1216 7.83142L49.8413 7.9273L51.9685 13.7988ZM50.4242 11.5269L49.4074 8.76586L48.3906 11.5269H50.4242Z" fill="white" fill-opacity="0.7"/>
<path d="M56.686 7.87369L56.7259 13.2358L56.8488 13.3129H59.37L59.2886 13.7997C58.2059 13.811 57.1182 13.7915 56.0355 13.7997V7.87369H56.686Z" fill="white" fill-opacity="0.7"/>
<path d="M19.1936 10.7152C19.2554 10.7696 19.3613 10.8411 19.437 10.8777C19.5501 10.7241 19.2465 9.6345 19.5998 9.49799L19.52 10.7965L20.2511 9.6605L19.7642 10.6348C20.1591 10.3138 20.5897 9.85795 21.1457 9.86282C20.5743 10.1334 20.0492 10.4227 19.682 10.9582C20.0288 10.8216 20.3235 10.8411 20.6581 10.7965L20.9023 10.8777L19.7642 11.08C20.1477 11.4189 20.6817 11.3555 21.1466 11.3644L21.228 11.4457C20.7037 11.5139 20.2625 11.453 19.7642 11.284C19.8636 11.4018 19.8725 11.5822 19.9271 11.6886C19.8758 11.6586 19.8196 11.6155 19.7651 11.6074C19.7097 11.6854 19.9458 12.1518 20.0085 12.2566C19.9564 12.1949 19.8513 12.1737 19.7765 12.0437C19.6633 11.8471 19.6723 11.5936 19.5208 11.4449C19.5208 11.3636 19.5208 11.2824 19.5208 11.2011H19.6828L19.4809 10.9565C19.3906 10.9533 19.4647 11.1353 19.4394 11.2011C19.3645 11.3961 19.2253 11.5928 19.034 11.6878L19.358 11.1199C17.9334 11.284 16.4501 11.1808 15.0043 11.1979C14.2521 11.2068 13.3363 11.4847 12.6101 11.0792C13.3599 10.6356 14.1943 11.0134 14.9237 11.041C16.3972 11.0979 17.8853 10.9939 19.3588 11.0378C19.275 10.9403 19.2497 10.8184 19.196 10.7136L19.1936 10.7152Z" fill="white" fill-opacity="0.7"/>
<path d="M1.70792 14.1239C1.93505 14.1637 2.14427 14.2287 2.35837 14.2458C2.09949 13.8736 1.80642 13.798 1.44253 13.6177C1.34647 13.5705 1.18039 13.4755 1.42136 13.4755L2.60178 14.2856L2.19718 13.3926C2.53177 13.6298 2.72959 14.0491 2.76622 14.4473L3.08941 13.8793L2.92822 14.5285C2.97137 14.5724 3.92303 14.1019 4.06631 14.0418V14.1231C3.74068 14.2661 3.38248 14.5375 3.00963 14.6114L3.57867 15.0575L3.01045 14.8544L3.41667 15.9895L2.92985 15.0981C2.96323 15.5255 2.90462 15.9278 2.72226 16.3162C2.66528 16.4364 2.73529 16.5177 2.522 16.477C2.70761 16.0228 2.95509 15.5215 2.80693 15.0161C2.69784 15.476 2.58794 15.6612 2.27859 15.9911C2.43571 15.723 2.56759 15.4102 2.67179 15.1144C2.72715 14.9698 2.66935 14.9462 2.60422 14.8544C2.31604 14.4505 1.32123 15.1916 0.897095 15.1786L2.17927 14.626L2.60341 14.6919C2.64574 14.5017 2.57817 14.561 2.4992 14.5098C2.25498 14.3522 1.91877 14.2466 1.62814 14.2051L1.70955 14.1239H1.70792ZM2.84519 14.8552L2.92578 14.652L2.684 14.531V14.7325L2.84519 14.8552Z" fill="white" fill-opacity="0.7"/>
<path d="M2.52115 7.30571L2.60418 7.18626L2.19633 5.92517C2.60174 6.22744 2.74095 6.90593 2.76537 7.38615L3.08856 6.33145L2.84596 7.62992L3.33278 7.42678L2.76456 7.87287C3.12031 7.88912 3.42233 8.07764 3.73982 8.19871L3.65842 8.27996C3.34337 8.17189 3.03483 7.95657 2.68233 7.95494C2.63186 7.83874 2.80445 7.56491 2.52115 7.63073L2.43974 8.0362C2.45032 8.05082 2.60418 7.95494 2.68315 7.95494C2.76049 8.13452 2.97622 8.27021 2.92656 8.52292L2.60337 8.0362L2.19551 9.01045C2.20935 8.8455 2.31763 8.69193 2.34531 8.53917C2.36566 8.42622 2.27611 8.37097 2.27692 8.36122C2.27692 8.3344 2.27936 8.30678 2.27692 8.27996C2.27448 8.2499 2.39171 8.14589 2.35833 8.11826C2.3046 8.11826 2.24924 8.11258 2.19551 8.11745C2.22564 8.08251 2.37461 7.88669 2.35833 7.8745C1.78522 7.90781 1.11035 7.74124 0.650391 7.38777C0.835187 7.40565 2.46579 8.05163 2.43811 7.67136L2.19551 7.46822H2.27692L2.52033 7.54947C2.55452 7.43084 2.47474 7.38696 2.43974 7.30571H2.52115Z" fill="white" fill-opacity="0.7"/>
<path d="M6.83179 9.33466C7.67029 9.63855 8.7522 9.74337 9.35299 10.4706C8.85478 10.4089 8.29143 10.2821 7.83311 10.0814C7.457 9.91645 7.11916 9.55648 6.83179 9.41672V9.33547V9.33466Z" fill="white" fill-opacity="0.7"/>
<path d="M10.8981 6.81818C10.903 6.91975 11.0438 7.22283 11.0593 7.42922C11.1049 8.0622 11.0927 8.74313 10.8574 9.33548C10.6588 9.33954 10.6417 7.62342 10.6555 7.42922C10.6718 7.20902 10.8045 6.94981 10.8167 6.81818H10.8981Z" fill="white" fill-opacity="0.7"/>
<path d="M7.96984 8.03619C8.08951 8.14101 8.34024 8.22796 8.49655 8.36284C8.93941 8.74556 9.50193 9.26072 9.67778 9.82138C9.49135 9.98552 8.37036 8.80894 8.21569 8.64317C8.07892 8.49691 7.98775 8.22146 7.88843 8.11745L7.96984 8.03619Z" fill="white" fill-opacity="0.7"/>
<path d="M12.6061 15.0981L12.5247 15.1794C12.1339 14.3473 11.6096 13.651 11.5486 12.6637C11.7326 12.5069 12.0842 13.3113 12.1315 13.4202C12.3846 13.9947 12.4376 14.5147 12.6053 15.0981H12.6061Z" fill="white" fill-opacity="0.7"/>
<path d="M10.8981 15.9911C10.8867 15.6596 10.837 15.3175 10.8166 15.0169C10.8166 15.0063 10.7475 14.9421 10.7304 14.8227C10.6481 14.2449 10.7051 13.2829 10.9379 12.745L11.1398 13.3544L10.8972 15.9919L10.8981 15.9911Z" fill="white" fill-opacity="0.7"/>
<path d="M7.15662 12.7442C7.19325 12.723 7.28198 12.5353 7.40491 12.4655C8.00082 12.1258 8.65534 11.8073 9.35219 11.7707C9.51582 11.9121 8.41681 12.4492 8.32401 12.489C7.95116 12.6483 7.59459 12.6987 7.23802 12.8254L7.15662 12.7442Z" fill="white" fill-opacity="0.7"/>
<path d="M13.8255 14.0434V14.1247C13.2296 13.5397 12.4228 13.1399 12.1176 12.2583C12.3764 12.0478 13.8418 13.6469 13.8255 14.0434Z" fill="white" fill-opacity="0.7"/>
<path d="M9.43444 14.9364L9.35303 14.8552C9.39373 14.7374 9.37175 14.4562 9.43932 14.2506C9.6233 13.6908 9.83089 13.0156 10.3283 12.6629C10.2876 13.1196 10.1362 13.6201 9.96196 14.0418C9.82357 14.3758 9.54352 14.6886 9.43444 14.9364Z" fill="white" fill-opacity="0.7"/>
<path d="M6.9132 11.1207C7.40897 11.0939 7.91207 10.8997 8.58369 10.9549C8.77581 10.9703 9.1625 11.0191 9.27077 11.2003C8.67486 11.323 8.06349 11.3986 7.45293 11.3531C7.25511 11.3384 6.96285 11.2117 6.83179 11.2019L6.9132 11.1207Z" fill="white" fill-opacity="0.7"/>
<path d="M29.6032 2.27273C29.792 1.65031 29.6593 1.0157 29.5226 0.406281C29.6724 0.477786 29.7424 0.878377 29.757 1.02382C29.7928 1.38379 29.7497 1.75106 29.7668 2.11103L29.9288 2.02977L30.0102 2.19228H30.0916C30.055 2.22803 29.7741 2.34829 30.0419 2.34748C30.2976 2.32148 30.5125 2.20853 30.7421 2.11103L30.8235 2.19228C30.5402 2.38405 30.1852 2.4588 29.8482 2.43605L30.2544 2.8407L29.6862 2.59775C29.7236 2.70257 29.6105 2.80008 29.604 2.84152H29.5226V2.679C29.4273 2.76757 29.2995 2.78789 29.1969 2.84152C29.2271 2.81064 29.3744 2.61075 29.3597 2.59856C29.2417 2.54818 29.1237 2.679 29.0748 2.679H27.8952C27.8985 2.51649 27.8423 2.52624 27.9978 2.53437C28.3226 2.55225 28.6849 2.65382 29.0333 2.59694C29.083 2.37998 28.8143 2.42874 28.6271 2.35398V2.27273C28.7663 2.31579 29.0121 2.46368 29.1147 2.27273V2.19147C29.144 2.20935 29.1676 2.24997 29.1961 2.27273L29.2376 2.34992L29.2775 2.27273L29.4403 2.19147H29.5218C29.5218 2.21828 29.5226 2.24591 29.5218 2.27273C29.4892 2.29385 29.4623 2.32148 29.4403 2.35398V2.51649L29.7538 2.50349L29.7652 2.19147C29.7497 2.16709 29.6512 2.25485 29.6032 2.27273Z" fill="white" fill-opacity="0.7"/>
<path d="M8.05127 14.0434C8.12861 13.9532 8.16524 13.7558 8.25967 13.6429C8.66916 13.1513 9.1226 12.5264 9.7584 12.3395C9.91796 12.502 8.54704 13.8411 8.37853 14.0093C8.29142 14.0963 8.14977 14.1084 8.13268 14.1255L8.05127 14.0443V14.0434Z" fill="white" fill-opacity="0.7"/>
<path d="M14.6388 12.6629L14.5574 12.7442C14.4898 12.7165 14.3051 12.7442 14.1683 12.6889C13.5797 12.4492 12.8999 12.2314 12.5247 11.6895C13.1385 11.7431 13.8524 12.0738 14.3913 12.3842C14.5143 12.4549 14.5997 12.6401 14.6396 12.6629H14.6388Z" fill="white" fill-opacity="0.7"/>
<path d="M9.35301 7.22446C9.37988 7.28052 9.58584 7.45116 9.66237 7.60636C9.93508 8.16296 10.3381 8.76913 10.207 9.41755C9.94973 9.08521 9.71854 8.75369 9.55816 8.3596C9.39779 7.96551 9.38476 7.53323 9.27161 7.22446H9.35301Z" fill="white" fill-opacity="0.7"/>
<path d="M28.5465 6.81818C28.3601 7.12857 28.2371 7.48366 27.9758 7.75099C27.8879 7.84119 26.8369 8.57574 26.92 8.3206C27.3018 7.71443 27.8195 7.14726 28.4643 6.81818H28.5457H28.5465Z" fill="white" fill-opacity="0.7"/>
<path d="M18.706 7.62992C18.0221 8.10283 17.4995 8.48392 16.5918 8.27834L17.5223 7.78756C17.8797 7.66405 18.2688 7.67624 18.6246 7.54785L18.706 7.62911V7.62992Z" fill="white" fill-opacity="0.7"/>
<path d="M14.2326 6.49398C13.8842 7.08552 13.7189 7.92652 13.0139 8.27998C13.0465 7.8672 13.2476 7.49017 13.4674 7.15052C13.6994 6.79218 13.9338 6.67518 14.1512 6.41272L14.2326 6.49398Z" fill="white" fill-opacity="0.7"/>
<path d="M2.03357 10.9582V11.0394L1.95298 11.4449L2.10521 11.3084L2.03357 11.0394C2.05067 11.0288 2.0873 11.0467 2.11498 11.0394C2.14103 11.0321 2.17359 11.0475 2.19639 11.0394C2.22162 11.0305 2.25663 11.0492 2.2778 11.0394L2.19639 11.2011C2.25012 11.2052 2.30466 11.1987 2.3592 11.2019C2.57412 11.2149 2.78822 11.2734 2.92825 11.2832L2.24686 11.2799C2.14754 11.2994 2.21186 11.4083 2.19557 11.4457C2.1508 11.5505 2.14347 11.5789 2.11417 11.6895C2.09788 11.7512 2.11824 11.8268 2.03276 11.852C2.03113 11.8252 2.0352 11.7975 2.03276 11.7707C2.02543 11.6911 2.03846 11.6074 2.03276 11.5278H1.87076C1.85692 11.5749 1.88622 11.6675 1.87076 11.6895C1.68108 11.9608 1.5785 12.034 1.30171 12.1762C1.40347 12.0835 1.87238 11.5521 1.78853 11.4457C1.26834 11.7593 0.661033 11.6878 0.0822221 11.6886C0.0122112 11.4107 0.451 11.6301 0.687898 11.609C1.0754 11.5741 1.49139 11.4506 1.87076 11.3636C1.83087 11.2198 1.25206 11.0402 1.1796 11.0402H0C0.0618701 10.911 0.486006 10.872 0.605676 10.8753C0.99562 10.8858 1.48244 11.0475 1.86994 11.1207C1.78202 11.0297 1.76167 10.8915 1.70713 10.7965L1.86913 10.8777C1.90576 10.7575 1.81865 10.7119 1.78853 10.6339H1.86994C1.93018 10.7428 1.97659 10.8501 2.03276 10.959L2.03357 10.9582Z" fill="white" fill-opacity="0.7"/>
<path d="M16.998 17.6146C16.9964 17.8446 16.8946 18.0217 16.9215 18.2955C16.9565 18.6498 17.208 18.9943 17.3228 19.3194C16.8979 19.0252 16.8116 18.3459 16.8352 17.8584L16.5096 19.156C16.3598 19.1114 16.4184 18.6661 16.4363 18.5548C16.4802 18.2834 16.6398 18.0485 16.6724 17.7763C16.6561 17.756 16.3044 18.0607 16.267 18.1013H16.1855C16.3622 17.8657 16.5869 17.6918 16.7546 17.4529L16.1855 17.4927L16.836 17.2083H16.9174C16.906 17.4131 16.9988 17.5748 16.9988 17.6146H16.998Z" fill="white" fill-opacity="0.7"/>
<path d="M17.4042 2.19147C17.3317 2.2581 17.2259 2.42548 17.16 2.51568L18.6237 2.19147C18.2647 2.62294 17.5988 2.60912 17.0786 2.59856C17.081 2.68794 17.5002 2.84151 17.5255 2.84151H18.7857C18.7173 2.99915 18.3184 3.01134 18.1767 3.01053C17.8804 3.00809 17.5523 2.96421 17.2796 2.84395C17.2625 2.92927 17.4254 3.10397 17.484 3.16654C17.2902 3.06172 17.164 3.00403 16.9971 2.84151L17.1184 3.40949L16.8319 2.84151L16.6707 2.92358H16.5893C16.6178 2.86264 16.7798 2.70094 16.7521 2.68063L16.0618 2.76351L15.9388 2.59856L16.6707 2.5173L16.8734 2.76026L17.0769 2.55712L16.9149 2.43605C16.9361 2.43361 16.9695 2.36292 16.9963 2.35479C17.072 2.33366 17.3146 2.26541 17.4034 2.19228L17.4042 2.19147Z" fill="white" fill-opacity="0.7"/>
<path d="M8.13272 14.1239C7.07604 15.177 6.07635 16.295 4.96106 17.2896V17.2084C5.93958 16.2885 7.1835 15.0551 8.05131 14.0426L8.13272 14.1239Z" fill="white" fill-opacity="0.7"/>
<path d="M10.8166 19.8882C10.7922 19.9028 10.771 19.9532 10.7352 19.9694L10.6546 20.1311C10.7352 20.1311 10.8166 20.1336 10.898 20.1311C10.9501 20.1303 11.0177 20.1409 11.0609 20.1311C11.1325 20.1149 11.24 19.9808 11.3051 19.9686C11.3556 20.0076 11.4191 20.1116 11.4679 20.1311V20.2124C11.4296 20.2026 11.3897 20.1563 11.3295 20.1523C11.2693 20.1482 11.2457 20.2043 11.2237 20.2124C11.1773 20.2295 11.0633 20.1644 11.0552 20.2603C11.1789 20.7454 11.3621 21.272 11.2839 21.7749C11.2725 21.8473 11.2489 22.0187 11.1423 21.9976V20.8202C11.1423 20.7917 10.9111 20.4277 10.9387 20.2904L10.8614 20.2311C10.8459 20.2262 10.8207 20.2936 10.8166 20.292C10.7963 20.2855 10.7637 20.2936 10.7352 20.292C10.6058 20.2831 10.6554 20.275 10.491 20.292C10.4641 20.2945 10.4365 20.2888 10.4096 20.292C10.4015 20.2928 10.3648 20.21 10.2508 20.2425C10.1996 20.2571 9.72902 20.4992 9.67773 20.5358C9.95534 20.305 10.1572 20.1523 10.491 19.9678V19.8866C10.5854 19.8809 10.6677 19.8882 10.7352 19.8053H10.8166V19.8866V19.8882Z" fill="white" fill-opacity="0.7"/>
<path d="M10.8981 6.81817H10.8167C10.8843 6.07955 10.8012 4.93303 10.82 4.10178C10.8346 3.46555 10.8029 2.82607 10.8167 2.19065C10.8379 2.20202 10.8786 2.17846 10.8981 2.19065C10.8566 3.66625 10.8297 5.34987 10.8981 6.81735V6.81817Z" fill="white" fill-opacity="0.7"/>
<path d="M7.56366 2.35399L7.60355 2.51569C8.02361 2.14679 8.35006 1.71857 8.37774 1.13678C8.51776 1.11565 8.46321 1.32854 8.451 1.41224C8.37774 1.90627 8.02768 2.23455 7.72647 2.59613L8.70255 2.11104L7.56366 2.75946L7.5604 2.6002C7.49365 2.5742 7.35525 2.61807 7.31943 2.59695C7.29989 2.13298 7.28931 1.75351 7.15662 1.29848V1.21722C7.33816 1.67876 7.48876 1.96721 7.40165 2.51569C7.50179 2.53519 7.50423 2.41818 7.56366 2.35399Z" fill="white" fill-opacity="0.7"/>
<path d="M5.36805 11.1207C5.47958 11.2612 5.75881 11.2003 5.93709 11.2019C5.85162 11.336 5.62937 11.2832 5.49098 11.2848C4.67527 11.2954 3.7285 11.3376 2.92744 11.2832C2.7866 11.2734 2.57332 11.2149 2.3584 11.2019C2.44388 11.0678 2.66612 11.1207 2.80451 11.119C3.65848 11.1085 4.5149 11.1393 5.36805 11.1207Z" fill="white" fill-opacity="0.7"/>
<path d="M56.686 7.87368H56.0348V13.7997L55.9534 7.99556L55.9892 7.8688C56.0657 7.75911 56.5721 7.72904 56.6852 7.87368H56.686Z" fill="white" fill-opacity="0.7"/>
<path d="M7.72644 19.2381C7.91613 19.1796 8.09278 19.0764 8.29549 19.0764L7.80785 19.399L8.4583 19.6436C8.41678 19.6436 8.38422 19.6834 8.37689 19.7248C8.24746 19.6834 8.15139 19.564 8.01137 19.5615C7.91613 19.5672 8.03091 19.6712 8.05126 19.7248C8.06103 19.75 8.04068 19.7866 8.05126 19.8061L7.96985 19.8873C7.95683 19.863 7.84204 19.841 7.80704 19.8061C7.74517 19.7443 7.74843 19.6233 7.64504 19.6444C7.61492 20.049 7.53514 20.5918 7.31859 20.9429L7.23718 20.8616C7.3772 20.4318 7.4985 20.1384 7.53758 19.6647C7.54328 19.5973 7.48141 19.5688 7.48141 19.5631C7.48141 19.5363 7.48141 19.5087 7.48141 19.4819L7.80704 19.5623L7.64422 19.2381C7.67027 19.2316 7.70121 19.2454 7.72563 19.2381H7.72644Z" fill="white" fill-opacity="0.7"/>
<path d="M7.48217 19.2381C7.48624 19.2641 7.4781 19.2926 7.48217 19.3194C7.48379 19.3275 7.48135 19.4339 7.48217 19.4819L7.40076 19.5631C7.37796 19.655 7.28516 19.6785 7.23794 19.7256C7.26236 19.6558 7.39262 19.4291 7.19968 19.4843L6.42468 19.8069H6.34327C6.45561 19.7135 6.55656 19.6095 6.69495 19.5493L7.31854 19.321C6.75926 19.2568 6.24476 19.4526 5.77423 19.7256C5.72701 19.5079 5.83365 19.5859 5.93378 19.5241C6.26837 19.3169 6.67785 19.2202 7.07431 19.2381L6.26186 18.9155L7.48135 19.2397L7.48217 19.2381Z" fill="white" fill-opacity="0.7"/>
<path d="M28.5465 6.81817H28.4651C29.2197 5.63508 29.5486 4.24074 29.5226 2.8407H29.604C29.5568 3.14053 29.6341 3.51756 29.5934 3.84502C29.4371 5.09392 29.1807 5.76347 28.5465 6.81898V6.81817Z" fill="white" fill-opacity="0.7"/>
<path d="M4.22912 4.70796C4.25843 4.7299 4.2796 4.76727 4.31053 4.78921L4.39194 4.95172H4.47335C4.5051 5.14511 4.45137 5.39701 4.47335 5.60096C4.15993 5.6749 4.47335 5.1248 4.35205 5.03379C4.10213 5.37425 3.88803 5.66515 3.49808 5.84554H3.41667L4.06712 5.19712C3.67392 5.29056 3.02836 5.68059 2.68481 5.27837C3.20664 5.46607 3.6666 5.21012 4.15016 5.03217L4.06712 4.95335V4.87209L4.22668 4.86803L4.14853 4.70958V4.62833C4.18109 4.64783 4.20145 4.68846 4.22994 4.70958L4.22912 4.70796Z" fill="white" fill-opacity="0.7"/>
<path d="M10.8981 15.9911C10.9436 17.2855 10.8639 18.5921 10.8981 19.8873C10.881 19.9003 10.837 19.8752 10.8167 19.8873V15.0169C10.8362 15.3167 10.8867 15.6596 10.8981 15.9911Z" fill="white" fill-opacity="0.7"/>
<path d="M5.77425 2.35399C6.0543 2.45963 6.30829 2.65383 6.63718 2.6717C6.93025 2.68227 6.49309 2.49456 6.4247 2.43525L6.50611 2.35399C6.62578 2.43362 6.72103 2.50513 6.83174 2.59776C6.8464 2.60995 6.8407 2.6587 6.87164 2.67739L6.91315 2.59776H7.15738L6.91397 2.76108L7.07516 2.92116C7.02794 2.93172 6.92943 2.90734 6.91315 2.92197L5.28662 2.75865L5.39408 2.60995L6.83093 2.8399L6.03965 2.6132C5.92812 2.59695 5.84671 2.47181 5.77425 2.43444V2.35318V2.35399Z" fill="white" fill-opacity="0.7"/>
<path d="M22.3652 4.13916C22.3074 4.26023 22.3204 4.43493 22.2838 4.54543C22.3733 4.53975 22.4482 4.49993 22.528 4.46418V4.70713C22.6086 4.71363 22.6908 4.70226 22.7722 4.70713V4.78839C22.6778 4.79164 22.4311 4.72663 22.4474 4.86883C22.7429 4.99559 23.0278 5.05166 23.3413 5.11341L23.2598 5.19467C22.9407 5.13454 22.668 5.06628 22.3652 4.95171C22.5101 5.16948 22.7266 5.36368 22.9342 5.51888H22.8528C22.5622 5.32224 22.3489 5.22148 22.1608 4.86964L22.0404 5.35555L21.9581 4.95009V4.86883C21.9866 4.84283 22.0102 4.81195 22.0395 4.78758C22.1315 4.71201 22.1812 4.85258 22.2838 4.54381L22.1209 4.46255C22.2154 4.32279 22.2593 4.2001 22.3652 4.05627V4.13753V4.13916Z" fill="white" fill-opacity="0.7"/>
<path d="M16.2653 2.27272C16.2922 2.29059 16.5706 2.40435 16.5901 2.31335C16.1839 1.8575 16.0553 1.24808 16.1033 0.649227L16.2637 0.68823L16.2848 1.56335L16.6707 2.27272C16.5576 1.74537 16.49 0.843429 16.9947 0.527344C16.6251 1.09045 16.6748 1.72018 16.7538 2.35479C16.9915 2.01676 17.1828 1.65111 17.4034 1.29927H17.4848C17.2935 1.63567 17.0525 1.95582 16.9972 2.35479C16.9703 2.3621 16.9369 2.4336 16.9158 2.43604C16.8433 2.44498 16.7472 2.4401 16.6715 2.43604C16.3182 2.41817 16.4387 2.37591 16.2645 2.27353L16.2653 2.27272Z" fill="white" fill-opacity="0.7"/>
<path d="M10.9795 1.70392V1.86643C10.9998 1.88431 11.1724 1.7413 11.2237 1.70392V1.78517L11.148 1.93875C11.275 1.92737 11.3491 2.0907 11.3865 2.10939C11.2791 2.1167 11.1692 2.1037 11.0609 2.1102L11.3865 2.51404C11.2994 2.59204 11.0088 2.25565 10.8989 2.18983C10.8997 2.1557 10.9949 2.06551 10.9746 1.99481L10.7011 1.87131C10.6197 1.89081 10.5985 2.01269 10.5741 2.02732C10.7344 2.10126 10.7597 2.15733 10.8183 2.18983L10.2492 2.59448L10.5749 2.19064L9.27316 2.06876C9.10139 1.88593 9.23083 1.95094 9.36597 1.97531C9.7494 2.04519 10.1206 2.17439 10.5228 2.10939C10.5879 2.11264 10.5708 2.02975 10.5749 2.02732C10.2663 1.88512 10.198 1.92575 9.84302 1.70229V1.62104C10.0465 1.75267 10.2378 1.87618 10.4935 1.86399V1.78436C10.4324 1.78599 10.3738 1.7413 10.3315 1.70229H10.4129L10.6563 1.78355C10.6978 1.65435 10.5928 1.55035 10.5757 1.45853H10.6571C10.6628 1.48697 10.793 1.72098 10.8175 1.73886L10.9827 1.70148L10.9795 1.70392Z" fill="white" fill-opacity="0.7"/>
<path d="M9.353 7.22444H9.27159C8.90607 6.22499 8.33458 5.12804 7.88928 4.13997L7.97069 4.05872C8.43634 5.10123 8.85967 6.19818 9.353 7.22444Z" fill="white" fill-opacity="0.7"/>
<path d="M13.9883 19.3194H14.0697C14.0616 19.4063 14.0713 19.4738 14.0697 19.4819C14.064 19.5079 14.0754 19.5371 14.0697 19.5631C13.9981 19.8849 13.7669 20.2863 13.7441 20.6186H13.6627C13.6741 20.2766 13.8434 19.9686 13.8662 19.6452L13.0936 20.7812C13.1237 20.2465 13.4412 19.8573 13.8247 19.5233C13.8165 19.4543 13.6317 19.4729 13.5813 19.4835C13.7058 19.4291 13.8182 19.3137 13.9883 19.321V19.3194Z" fill="white" fill-opacity="0.7"/>
<path d="M6.83181 9.33467V9.41593C6.05111 9.03403 4.54262 8.58306 3.66016 8.27916L3.74156 8.19791C4.76568 8.58712 5.802 8.9609 6.83181 9.33467Z" fill="white" fill-opacity="0.7"/>
<path d="M18.706 14.4489C18.1646 14.4375 16.3215 13.4877 15.6971 13.2309L15.7786 13.1496C16.1986 13.3414 18.5863 14.288 18.706 14.4481V14.4489Z" fill="white" fill-opacity="0.7"/>
<path d="M9.43432 14.9364C8.98169 15.9627 8.62187 17.0133 8.13342 18.0209C8.49406 16.9427 8.98332 15.9229 9.35373 14.8552L9.43514 14.9364H9.43432Z" fill="white" fill-opacity="0.7"/>
<path d="M22.0405 4.22044C22.038 4.24725 22.0421 4.27488 22.0405 4.30169C22.038 4.34476 21.9306 4.4317 21.959 4.62672L21.3086 4.70716L21.876 4.50483C21.7547 4.39757 21.6513 4.36345 21.552 4.22044H21.6334L21.8768 4.30088C21.7319 3.8491 21.6245 3.39732 21.6749 2.92034C21.6847 2.83015 21.6717 2.57907 21.7954 2.59695V3.77434C21.7954 3.83122 21.9566 4.16275 22.0396 4.22044H22.0405Z" fill="white" fill-opacity="0.7"/>
<path d="M6.50608 13.0692C5.71561 13.512 4.88769 13.7631 4.06628 14.1247V14.0434C4.87629 13.7054 5.68305 13.3755 6.50608 13.0692Z" fill="white" fill-opacity="0.7"/>
<path d="M14.4768 18.8326C14.454 18.8968 14.3107 19.0155 14.4353 19.0756L15.6963 18.7522L14.7748 19.0098C14.581 19.0797 14.7259 19.1471 14.721 19.1569C14.7096 19.1796 14.734 19.2292 14.721 19.2381L14.5574 19.2787C14.5509 19.3169 14.6706 19.3624 14.721 19.4006C14.6437 19.3941 14.555 19.3958 14.4768 19.4006C14.4923 19.4299 14.4662 19.5152 14.4768 19.5631V19.6444C14.4223 19.5778 14.4117 19.464 14.3148 19.4827C14.3205 19.616 14.3026 19.7549 14.314 19.8882L14.2326 19.9694C14.2244 19.9394 14.1715 19.8817 14.1512 19.8069L14.2326 19.7647L14.1512 19.6444C14.1463 19.62 14.0926 19.5883 14.0698 19.5631C14.0755 19.5371 14.0641 19.5079 14.0698 19.4819C14.2033 19.4429 14.336 19.4096 14.4768 19.4006C14.3986 19.2552 14.2953 19.2129 14.1512 19.1569V19.0756C14.2798 19.0114 14.3311 18.8668 14.3954 18.7506L14.4768 18.8318V18.8326Z" fill="white" fill-opacity="0.7"/>
<path d="M18.8679 14.7739V14.9364C18.9615 14.9511 18.9436 14.8536 18.9493 14.8552C19.0291 14.8779 19.012 15.0469 19.0307 15.0989H18.9493L18.7873 15.0177C18.8834 15.5044 18.8557 15.9521 19.1927 16.3576L19.0324 16.3974L18.6245 15.0177H18.5431C18.605 14.9096 18.6652 14.8219 18.7873 14.7739H18.8687H18.8679Z" fill="white" fill-opacity="0.7"/>
<path d="M4.87964 4.38294V4.4642C4.85359 4.4902 4.82754 4.52433 4.79824 4.54545L4.71683 4.62671C4.70136 4.63565 4.68589 4.68602 4.63542 4.70796C4.61833 4.71528 4.38957 4.58039 4.30979 4.78922C4.27885 4.76728 4.25769 4.7299 4.22838 4.70796L4.30653 4.66327L4.14697 4.22043V4.13917C4.27397 4.30006 4.34642 4.44388 4.43109 4.6259C4.57762 4.56983 4.49051 4.00998 4.47179 3.89541H4.5532C4.60774 4.10098 4.49377 4.36263 4.7152 4.30169C4.79742 3.92791 4.82266 3.54682 4.79742 3.16492H4.87883C4.92361 3.57688 4.78765 4.03598 4.87883 4.38294H4.87964Z" fill="white" fill-opacity="0.7"/>
<path d="M14.1511 19.0764V19.1577C14.1381 19.2097 14.0738 19.2796 14.0697 19.3202H13.9883L13.9069 19.1577L14.0616 19.052C13.7693 18.4296 13.5772 17.769 13.337 17.1279C13.3647 17.1905 13.5064 17.2839 13.5145 17.3944L14.1503 19.0756L14.1511 19.0764Z" fill="white" fill-opacity="0.7"/>
<path d="M19.1121 14.4489C19.7178 14.5294 20.3292 14.6724 20.8193 15.0583L19.1121 14.6122C19.1626 14.6821 19.1602 14.7861 19.1935 14.8552C19.113 14.8235 19.0405 14.7756 18.9493 14.7739C18.955 14.7479 18.942 14.7171 18.9493 14.6927C18.9811 14.5862 19.0381 14.5261 19.1121 14.4489Z" fill="white" fill-opacity="0.7"/>
<path d="M21.959 4.95174C21.5813 5.3247 21.1507 5.90081 20.7412 6.21527C20.6402 6.29327 20.5181 6.31277 20.4945 6.33146C20.9935 5.85612 21.4437 5.33852 21.9582 4.87048V4.95174H21.959Z" fill="white" fill-opacity="0.7"/>
<path d="M15.2086 15.5044C14.6876 15.1079 14.2879 14.5781 13.8263 14.1247V14.0434C14.2561 14.4326 14.7006 14.8316 15.093 15.259C15.1793 15.3533 15.1891 15.4825 15.2086 15.5044Z" fill="white" fill-opacity="0.7"/>
<path d="M5.2052 17.8584C5.16449 17.8462 5.03668 17.8324 5.04319 17.8982C5.39569 18.3086 5.26951 18.8221 5.28579 19.3194L4.96016 17.8584L4.88038 17.9397H4.79897C4.79571 17.9145 4.71186 17.8373 4.71756 17.7771C4.81769 17.7487 4.8527 17.7438 4.96016 17.7771L4.96179 17.6154C4.98458 17.648 5.13274 17.7723 5.20601 17.8592L5.2052 17.8584Z" fill="white" fill-opacity="0.7"/>
<path d="M59.2887 13.7997L59.3701 13.3121H56.8489L59.318 13.2431L59.4132 13.8037C59.3172 13.9362 59.2952 13.7997 59.2887 13.7997Z" fill="white" fill-opacity="0.7"/>
<path d="M10.9795 1.70393L11.1822 0C11.3344 0.103195 11.2921 0.193389 11.2855 0.338837C11.2668 0.756491 11.2286 1.36266 10.9786 1.70475L10.9795 1.70393Z" fill="white" fill-opacity="0.7"/>
<path d="M29.5226 2.19147H29.4412L28.7908 0.486725L29.5226 2.19147Z" fill="white" fill-opacity="0.7"/>
<path d="M7.96982 8.03619L7.88841 8.11745C7.52696 7.7388 7.12562 7.34796 6.74951 6.98068C7.12806 7.31789 7.56766 7.68436 7.96982 8.03619Z" fill="white" fill-opacity="0.7"/>
<path d="M14.4768 19.5631C14.9514 19.8882 15.1305 20.4659 15.2909 20.9827C15.2127 21.0956 15.1435 20.8689 15.1248 20.8234C14.9156 20.3188 14.8374 20.0832 14.4768 19.6436V19.5623V19.5631Z" fill="white" fill-opacity="0.7"/>
<path d="M13.3379 17.1279C13.075 16.5323 12.8731 16.1691 12.6875 15.5044C12.9504 16.0537 13.1263 16.5624 13.3379 17.1279Z" fill="white" fill-opacity="0.7"/>
<path d="M4.47336 17.1279C4.50022 17.1555 4.52709 17.1832 4.55477 17.2092C4.56128 17.2888 4.545 17.3741 4.55477 17.4529C4.17215 17.4716 3.61206 17.4099 3.25387 17.5342C3.33446 17.5033 3.43052 17.3839 3.55426 17.3904L4.39114 17.292L3.00964 16.967L4.47336 17.1287V17.1279Z" fill="white" fill-opacity="0.7"/>
<path d="M19.1936 14.1239C19.1081 14.2019 19.1056 14.2775 18.9493 14.3677L19.4386 13.0692C19.5941 13.057 19.5102 13.2301 19.4744 13.3081C19.3841 13.5055 19.1862 13.7127 19.1227 13.9419C19.0633 14.0694 19.1691 14.0857 19.1936 14.1239Z" fill="white" fill-opacity="0.7"/>
<path d="M17.4042 16.8841L17.4457 17.0474L18.7857 16.8849L17.4848 17.1279C17.4352 17.1596 17.3692 17.1758 17.322 17.2091C17.2894 17.197 17.2463 17.1271 17.2406 17.1279C17.217 16.9662 17.3489 16.9483 17.4034 16.8841H17.4042Z" fill="white" fill-opacity="0.7"/>
<path d="M16.9166 17.2092H16.8352C16.5438 16.9622 16.2304 16.6834 15.9755 16.3999C15.8909 16.3056 15.8787 16.1756 15.8591 16.1537L16.9166 17.2092Z" fill="white" fill-opacity="0.7"/>
<path d="M22.121 4.30168H22.0396C22.0412 4.27487 22.0372 4.24724 22.0396 4.22043C22.0787 3.71583 22.0111 3.04628 22.445 2.67819C22.2358 3.22829 22.0714 3.69714 22.1202 4.30168H22.121Z" fill="white" fill-opacity="0.7"/>
<path d="M7.72648 19.2381C7.70206 19.2454 7.67112 19.2316 7.64507 19.2381C7.59215 19.2519 7.5368 19.2999 7.48225 19.3194C7.47818 19.2925 7.48632 19.2641 7.48225 19.2381C7.47818 19.2121 7.48714 19.1828 7.48225 19.1568L7.66624 19.0537C7.7452 18.6726 7.96989 18.3573 8.1327 18.0201C7.99757 18.4247 7.88767 18.8408 7.72566 19.2381H7.72648Z" fill="white" fill-opacity="0.7"/>
<path d="M2.27695 7.4674H2.19554L0.936157 6.81735C1.41728 6.85879 1.94643 7.11556 2.27695 7.4674Z" fill="white" fill-opacity="0.7"/>
<path d="M19.4378 13.8809L19.3564 14.1239C19.5754 14.093 19.7333 13.9947 19.9662 13.9622C20.059 13.9492 20.4782 13.8996 20.4945 14.0426C20.0834 14.0093 19.7187 14.1003 19.3564 14.2872C19.3458 14.1978 19.214 14.1572 19.1936 14.1247C19.2709 14.054 19.3369 13.9703 19.4378 13.8809Z" fill="white" fill-opacity="0.7"/>
<path d="M16.9166 17.2092C16.9239 17.0848 17.0851 16.7793 16.9988 16.5599L17.0802 17.2092C17.0998 17.2417 17.2089 17.1312 17.2423 17.1279C17.2479 17.1279 17.2903 17.197 17.3237 17.2092C17.2919 17.2319 16.9988 17.5894 16.998 17.6154C16.998 17.5764 16.9052 17.4139 16.9166 17.2092Z" fill="white" fill-opacity="0.7"/>
<path d="M17.4856 17.2092C18.0001 17.1612 18.5846 17.3075 18.9493 17.6951C18.4649 17.5366 18.031 17.2189 17.4856 17.2904C17.4954 17.2734 17.4791 17.236 17.4856 17.2092Z" fill="white" fill-opacity="0.7"/>
<path d="M7.238 19.7256C7.09472 20.1287 6.77479 20.695 6.50696 21.0241C6.67222 20.5447 6.88144 20.0775 7.238 19.7256Z" fill="white" fill-opacity="0.7"/>
<path d="M19.9254 11.6886C20.1281 11.8073 20.2983 12.0039 20.5205 12.1095C20.7159 12.2022 21.0309 12.1721 21.1449 12.337C20.6141 12.3484 20.1574 12.1453 19.9254 11.6886Z" fill="white" fill-opacity="0.7"/>
<path d="M10.8166 20.2936C10.6058 20.821 10.6896 21.3703 10.6131 21.9179C10.5301 21.9179 10.5268 20.47 10.7352 20.2936C10.7637 20.2953 10.7963 20.2871 10.8166 20.2936Z" fill="white" fill-opacity="0.7"/>
<path d="M4.14771 4.13917V4.22042L3.17163 3.24698C3.53471 3.3973 3.9043 3.82958 4.14771 4.13917Z" fill="white" fill-opacity="0.7"/>
<path d="M7.5636 2.35399L7.88842 0.730499C7.85992 1.40655 8.05775 1.81526 7.5636 2.35399Z" fill="white" fill-opacity="0.7"/>
<path d="M10.5724 1.46097C10.5008 1.07582 10.4747 0.758921 10.491 0.364018C10.4959 0.25351 10.4218 0.0284313 10.6123 0.080435C10.6831 0.0999364 10.5562 0.474525 10.5651 0.607785C10.5798 0.814987 10.6172 1.28546 10.6538 1.46097H10.5724Z" fill="white" fill-opacity="0.7"/>
<path d="M11.4672 20.2124V20.1311C11.9882 20.3391 12.304 20.4204 12.6036 20.9843C12.1494 20.7031 12.0329 20.357 11.4672 20.2124Z" fill="white" fill-opacity="0.7"/>
<path d="M4.87961 17.9396C4.90974 18.458 4.89183 18.9578 4.59387 19.4014L4.47339 19.3608C4.77541 18.9545 4.85601 18.4329 4.79821 17.9396H4.87961Z" fill="white" fill-opacity="0.7"/>
<path d="M4.06639 17.8584C3.78797 18.103 3.54293 18.558 3.1709 18.7099C3.36872 18.4191 3.77169 17.9461 4.06639 17.7771V17.8584Z" fill="white" fill-opacity="0.7"/>
<path d="M6.66895 6.89944C6.38321 6.62317 6.00304 6.29002 5.69287 6.00644C5.98757 6.28271 6.35472 6.61911 6.66895 6.89944Z" fill="white" fill-opacity="0.7"/>
<path d="M1.70799 10.7957L0.569092 10.066C1.05266 10.1627 1.47516 10.3869 1.70799 10.7957Z" fill="white" fill-opacity="0.7"/>
<path d="M1.22034 12.8254L1.87079 11.7699H1.95219C2.03767 11.9942 1.39374 12.9847 1.22034 12.8254Z" fill="white" fill-opacity="0.7"/>
<path d="M7.31934 2.59693C7.33562 2.9772 7.43168 2.809 7.48216 2.92195C7.64904 3.29654 7.80209 3.68169 7.96979 4.05872L7.88838 4.13997C7.70928 3.74263 7.45855 3.36804 7.39912 2.92195C7.34295 2.92439 7.2705 3.00321 7.23712 3.00402C7.04988 3.00971 7.07512 2.98452 6.83008 3.08527C6.86264 3.04221 6.87974 2.95283 6.91149 2.92276C6.92777 2.90732 7.02627 2.93251 7.07349 2.92195L6.9123 2.76188L7.15571 2.59855C7.07023 2.49536 7.03848 2.39541 6.99289 2.27353C7.045 2.33041 7.29003 2.5823 7.31853 2.59855L7.31934 2.59693Z" fill="white" fill-opacity="0.7"/>
<path d="M4.06628 4.87047V4.95173C3.54201 5.12561 3.21882 5.05411 2.76538 4.78922C3.22371 4.90785 3.59656 4.98667 4.06628 4.87047Z" fill="white" fill-opacity="0.7"/>
<path d="M15.7777 13.1504L15.6963 13.2317C15.3145 13.0749 14.9375 12.9018 14.5574 12.745L14.6388 12.6637C14.9986 12.8709 15.4032 12.9798 15.7777 13.1504Z" fill="white" fill-opacity="0.7"/>
<path d="M4.6354 17.2904C4.68668 17.3335 4.72006 17.3782 4.79821 17.3717C4.81124 17.4237 4.9187 17.5553 4.96103 17.6154L4.9594 17.7771C4.85276 17.7438 4.81694 17.7495 4.7168 17.7771C4.68831 17.7853 4.64679 17.7658 4.6354 17.7771C4.63865 17.6894 4.56701 17.5545 4.55399 17.4521C4.54422 17.3733 4.5605 17.288 4.55399 17.2083C4.58167 17.2343 4.60609 17.2652 4.6354 17.2896V17.2904Z" fill="white" fill-opacity="0.7"/>
<path d="M15.7777 4.22043C16.039 3.80684 16.127 3.52244 16.5096 3.16492C16.2694 3.64758 16.0805 3.82878 15.7777 4.22043Z" fill="white" fill-opacity="0.7"/>
<path d="M29.9288 2.02897C29.9744 1.76895 30.1429 1.565 30.2178 1.30335C30.2699 1.12134 30.1836 0.804442 30.3342 0.730499C30.3676 1.17984 30.3001 1.72832 29.9288 2.02897Z" fill="white" fill-opacity="0.7"/>
<path d="M17.2415 18.0209L17.3229 17.9396C17.5459 18.3605 17.8935 18.6116 18.2159 18.9553C17.7844 18.7879 17.4727 18.4085 17.2415 18.0209Z" fill="white" fill-opacity="0.7"/>
<path d="M6.99457 2.27271C6.67138 1.92087 6.47111 1.44065 6.34412 0.974243C6.62009 1.37483 6.82605 1.81849 6.99457 2.27271Z" fill="white" fill-opacity="0.7"/>
<path d="M19.3563 14.2864C19.2171 14.3579 19.2473 14.3083 19.1121 14.4489C19.0389 14.5253 18.9819 14.5862 18.9493 14.6927H18.7865C18.7303 14.635 18.7336 14.4871 18.7051 14.4489C18.7254 14.4489 18.7637 14.3725 18.7865 14.3676C18.8142 14.362 18.8467 14.3758 18.8679 14.3676C18.8931 14.3579 18.9306 14.3782 18.9493 14.3676C19.1056 14.2774 19.108 14.2019 19.1935 14.1239C19.2139 14.1564 19.3458 14.197 19.3563 14.2864Z" fill="white" fill-opacity="0.7"/>
<path d="M6.91317 11.1207L6.83176 11.2019C6.5452 11.18 6.22934 11.2052 5.93708 11.2019C5.7588 11.2003 5.47957 11.2621 5.36804 11.1207C5.8801 11.1093 6.40274 11.1483 6.91317 11.1207Z" fill="white" fill-opacity="0.7"/>
<path d="M2.11415 11.6886C2.28429 11.813 2.06124 12.966 1.95215 12.8254C2.02135 12.4947 2.04821 12.1916 2.03274 11.8511C2.11822 11.826 2.09787 11.7512 2.11415 11.6886Z" fill="white" fill-opacity="0.7"/>
<path d="M5.53006 5.84392C5.28502 5.62209 4.97567 5.33445 4.7168 5.11343H4.7982C5.09697 5.28163 5.29561 5.6286 5.53006 5.84392Z" fill="white" fill-opacity="0.7"/>
<path d="M22.7722 4.70795C23.1646 4.73395 23.6189 4.69658 23.9526 4.465L23.9933 4.58525C23.618 4.8144 23.1882 4.77458 22.773 4.78921V4.70795H22.7722Z" fill="white" fill-opacity="0.7"/>
<path d="M14.6387 21.0241C14.3294 20.7649 14.3245 20.3188 14.2317 19.9686L14.3131 19.8874C14.3481 20.3058 14.541 20.63 14.6387 21.0241Z" fill="white" fill-opacity="0.7"/>
<path d="M29.1156 2.19147V2.27273C28.8291 2.17441 28.4627 1.7925 28.3024 1.54224H28.3838C28.6663 1.71287 28.8331 2.02083 29.1156 2.19147Z" fill="white" fill-opacity="0.7"/>
<path d="M1.70793 8.27997L1.78934 8.36122C1.41812 8.46767 1.12668 8.45386 0.732666 8.44167L0.846637 8.28566C1.16901 8.42867 1.40021 8.33847 1.70793 8.27997Z" fill="white" fill-opacity="0.7"/>
<path d="M14.2325 6.49395L14.1511 6.4127C14.3685 6.15024 14.5867 5.86828 14.8016 5.60095C14.6143 5.89104 14.4067 6.19899 14.2325 6.49395Z" fill="white" fill-opacity="0.7"/>
<path d="M2.1956 10.9581L2.03441 10.7542L1.953 9.74094L2.1956 10.9581Z" fill="white" fill-opacity="0.7"/>
<path d="M14.7202 19.1568C15.1874 19.1211 15.6295 19.2958 16.0219 19.5225L14.7202 19.2381C14.7332 19.2292 14.7088 19.1796 14.7202 19.1568Z" fill="white" fill-opacity="0.7"/>
<path d="M19.4377 13.8809C19.6958 13.6534 19.9278 13.3966 20.3324 13.395L19.4377 13.8809Z" fill="white" fill-opacity="0.7"/>
<path d="M23.667 3.7337L22.5281 4.54545V4.46419C22.9115 4.29031 23.2583 3.88159 23.667 3.7337Z" fill="white" fill-opacity="0.7"/>
<path d="M20.0883 15.4232C19.7309 15.2671 19.5518 15.2891 19.275 14.9364C19.6259 15.0933 19.7936 15.2151 20.0883 15.4232Z" fill="white" fill-opacity="0.7"/>
<path d="M4.96105 17.2904V17.4529L5.61231 17.5748L4.96105 17.6154C4.91872 17.5553 4.81126 17.4237 4.79823 17.3717C4.79172 17.3465 4.80393 17.3164 4.79823 17.2904C4.84382 17.2587 4.92523 17.2425 4.96105 17.2092V17.2904Z" fill="white" fill-opacity="0.7"/>
<path d="M1.70796 14.1239L1.62655 14.2051C1.42385 14.1759 1.02657 14.2994 0.895508 14.1247C1.24068 13.9996 1.40756 14.0711 1.70796 14.1239Z" fill="white" fill-opacity="0.7"/>
<path d="M17.4856 2.11022C17.7396 1.86401 17.9309 1.43661 18.259 1.21884C18.1499 1.4618 17.9089 1.80063 17.7298 1.9924C17.6329 2.0964 17.5027 2.09397 17.4856 2.11022Z" fill="white" fill-opacity="0.7"/>
<path d="M15.2086 5.03217C15.4268 4.68765 15.5334 4.5357 15.7777 4.22043C15.5562 4.57064 15.4675 4.70878 15.2086 5.03217Z" fill="white" fill-opacity="0.7"/>
<path d="M28.6279 2.27274V2.35399C28.3479 2.24267 27.9254 2.18742 27.8138 1.82745C28.0923 1.97128 28.3161 2.17604 28.6279 2.27274Z" fill="white" fill-opacity="0.7"/>
<path d="M18.6245 15.0169L18.3396 15.9919C18.1727 15.9895 18.487 15.1136 18.5431 15.0169H18.6245Z" fill="white" fill-opacity="0.7"/>
<path d="M22.121 4.30167C22.1251 4.3553 22.1177 4.41055 22.121 4.46418L22.2838 4.54543C22.182 4.85421 22.1316 4.71282 22.0396 4.7892C22.0453 4.72826 21.9622 4.65432 21.9582 4.62669C21.9297 4.43168 22.0371 4.34554 22.0396 4.30167H22.121Z" fill="white" fill-opacity="0.7"/>
<path d="M10.1663 20.6999C9.9701 20.9868 9.85776 21.2476 9.79996 21.5937C9.6347 21.2061 9.91963 20.9583 10.0849 20.6999H10.1663Z" fill="white" fill-opacity="0.7"/>
<path d="M9.8406 1.62349V1.70475C9.598 1.55199 9.29516 1.41223 9.18933 1.09695C9.45391 1.19121 9.59556 1.46504 9.8406 1.62349Z" fill="white" fill-opacity="0.7"/>
<path d="M11.3857 2.11022C11.7692 2.08584 12.072 2.03059 12.4424 1.94852L11.507 2.19228C11.4419 2.20285 11.411 2.1224 11.3857 2.11022Z" fill="white" fill-opacity="0.7"/>
<path d="M19.5192 11.4457C19.5192 11.8089 19.4907 12.1453 19.5998 12.5012C19.3385 12.4435 19.4052 11.4441 19.5192 11.4457Z" fill="white" fill-opacity="0.7"/>
<path d="M1.30094 12.1762C1.06078 12.3948 0.830399 12.5402 0.487671 12.5808C0.657 12.3419 1.06323 12.2981 1.30094 12.1762Z" fill="white" fill-opacity="0.7"/>
<path d="M29.6032 2.27273C29.6505 2.25485 29.7498 2.16709 29.7652 2.19147L29.7538 2.50349L29.4404 2.51649V2.35398C29.4811 2.34748 29.5202 2.31336 29.5218 2.27273C29.5389 2.26135 29.5772 2.28248 29.6032 2.27273Z" fill="white" fill-opacity="0.7"/>
<path d="M1.62654 10.2277C1.47268 10.0546 1.16577 9.89938 1.0575 9.66049C1.37173 9.70112 1.5028 10.0026 1.62654 10.2277Z" fill="white" fill-opacity="0.7"/>
<path d="M23.3413 5.11343C23.4178 5.12887 24.1293 5.10937 23.9103 5.27513C23.6572 5.34257 23.452 5.23044 23.2599 5.19469L23.3413 5.11343Z" fill="white" fill-opacity="0.7"/>
<path d="M18.4617 18.4264C18.2208 18.3061 18.0694 18.0323 17.8927 17.8584C18.0905 17.9957 18.4552 18.12 18.4617 18.4264Z" fill="white" fill-opacity="0.7"/>
<path d="M10.0848 1.37972C9.7934 1.09045 9.61919 0.845062 9.59802 0.406281L10.0848 1.37972Z" fill="white" fill-opacity="0.7"/>
<path d="M23.1785 3.24698C23.054 3.49156 22.7821 3.63538 22.6095 3.81496C22.7503 3.61751 22.8358 3.29167 23.1785 3.24698Z" fill="white" fill-opacity="0.7"/>
<path d="M20.6573 10.7956C20.9235 10.7607 21.2434 10.651 21.5512 10.7152L20.9007 10.8769L20.6565 10.7956H20.6573Z" fill="white" fill-opacity="0.7"/>
<path d="M8.37686 20.1311C8.50711 20.344 8.69598 20.5561 8.70168 20.8616C8.51118 20.6828 8.42652 20.3773 8.29626 20.1311H8.37767H8.37686Z" fill="white" fill-opacity="0.7"/>
<path d="M10.4911 19.8882V19.9694L9.51416 20.01C9.81293 19.8378 10.1671 19.9093 10.4911 19.8882Z" fill="white" fill-opacity="0.7"/>
<path d="M11.7927 1.13595C11.8929 0.928744 11.9254 0.551717 12.1175 0.405457C12.1778 0.760544 11.9612 0.910867 11.7927 1.13595Z" fill="white" fill-opacity="0.7"/>
<path d="M11.6299 19.8882V19.9694C11.5306 19.9678 11.3914 19.9532 11.3043 19.9694C11.2391 19.9816 11.1317 20.1157 11.06 20.1319L10.9786 19.8882C11.0047 19.8695 11.0259 19.828 11.06 19.8069L11.1007 19.8874C11.2758 19.8987 11.4549 19.876 11.6291 19.8874L11.6299 19.8882Z" fill="white" fill-opacity="0.7"/>
<path d="M2.52118 7.3057H2.43977C2.39092 7.19194 2.16461 6.71578 2.11414 6.65646C2.28835 6.85148 2.4992 6.97742 2.52118 7.3057Z" fill="white" fill-opacity="0.7"/>
<path d="M15.3715 19.7257C15.1713 19.607 14.9742 19.5932 14.7211 19.4006C15.1232 19.4339 15.0996 19.4778 15.3715 19.7257Z" fill="white" fill-opacity="0.7"/>
<path d="M1.87077 15.4232C1.65016 15.5751 1.48897 15.7782 1.13892 15.7474C1.28952 15.5605 1.65586 15.5182 1.87077 15.4232Z" fill="white" fill-opacity="0.7"/>
<path d="M19.275 7.22446C19.0828 7.3634 18.9013 7.49504 18.7059 7.63074L18.6245 7.54948C18.7784 7.49423 19.1048 7.31384 19.275 7.22446Z" fill="white" fill-opacity="0.7"/>
<path d="M3.41584 4.30167C3.19604 4.1741 2.97705 4.08309 2.8468 3.81495C3.10161 3.80032 3.2514 4.1611 3.41584 4.30167Z" fill="white" fill-opacity="0.7"/>
<path d="M7.15655 12.7441L7.23796 12.8254C7.00351 12.9091 6.73242 12.9847 6.5061 13.0692C6.7316 12.9424 6.9685 12.8506 7.15655 12.7441Z" fill="white" fill-opacity="0.7"/>
<path d="M12.037 21.3492H11.9556C11.7839 20.8527 11.7041 20.6747 11.3052 20.2936C11.7977 20.4635 11.9524 20.9031 12.037 21.3492Z" fill="white" fill-opacity="0.7"/>
<path d="M16.9166 2.43524L17.0786 2.55631L16.8751 2.75945L16.6724 2.5165V2.43524C16.7481 2.4393 16.8441 2.44418 16.9166 2.43524Z" fill="white" fill-opacity="0.7"/>
<path d="M2.03352 6.57522C1.92362 6.48258 1.52309 6.41433 1.46448 6.17056C1.72417 6.1795 1.87884 6.42733 2.03352 6.57522Z" fill="white" fill-opacity="0.7"/>
<path d="M19.275 15.7482C19.1008 15.5499 18.9347 15.4053 18.9494 15.0989H19.0308C19.0976 15.2834 19.1879 15.5881 19.275 15.7482Z" fill="white" fill-opacity="0.7"/>
<path d="M14.8016 5.60097C14.9677 5.34339 15.0174 5.27107 15.2087 5.03299C15.041 5.29788 14.9954 5.36126 14.8016 5.60097Z" fill="white" fill-opacity="0.7"/>
<path d="M11.63 19.8882C11.8759 19.9052 12.1396 19.8711 12.3627 20.01C12.1323 20.1075 11.8799 19.9735 11.63 19.9694V19.8882Z" fill="white" fill-opacity="0.7"/>
<path d="M17.4856 17.2092C17.4791 17.236 17.4954 17.2733 17.4856 17.2904C17.4799 17.3002 17.3489 17.4302 17.3228 17.4529C17.3114 17.4635 17.3334 17.5309 17.3228 17.5342L17.1592 17.4944C17.1543 17.6626 17.2487 17.8007 17.3228 17.9405L17.2414 18.0217C17.1616 17.8876 17.0721 17.7544 16.9972 17.6154C16.9972 17.5894 17.2911 17.2319 17.3228 17.2092C17.37 17.1758 17.436 17.1596 17.4856 17.1279V17.2092Z" fill="white" fill-opacity="0.7"/>
<path d="M8.53966 19.6444C8.62839 19.6793 9.07288 19.8906 9.02648 20.0499L8.45825 19.7248C8.49896 19.7232 8.53233 19.6842 8.53966 19.6436V19.6444Z" fill="white" fill-opacity="0.7"/>
<path d="M4.79819 17.2904C4.80389 17.3164 4.79168 17.3465 4.79819 17.3717C4.72004 17.3782 4.68748 17.3335 4.63538 17.2904L4.67608 16.6404L4.79819 17.2904Z" fill="white" fill-opacity="0.7"/>
<path d="M4.63532 4.70794V4.7892L4.55392 4.95171C4.53845 4.9379 4.48879 4.96471 4.47251 4.95171C4.46681 4.91677 4.47984 4.88671 4.4318 4.87208L4.3911 4.95171L4.30969 4.7892C4.38947 4.58037 4.61823 4.71526 4.63532 4.70794Z" fill="white" fill-opacity="0.7"/>
<path d="M17.8927 16.4787C17.751 16.6184 17.659 16.8719 17.405 16.8849C17.6313 16.6184 17.6322 16.6501 17.8927 16.4787Z" fill="white" fill-opacity="0.7"/>
<path d="M7.31934 2.59693C7.35434 2.61724 7.49355 2.57337 7.5603 2.60018L7.56356 2.75944L7.48215 2.92195C7.43249 2.80982 7.33562 2.97802 7.31934 2.59693Z" fill="white" fill-opacity="0.7"/>
<path d="M6.669 3.16571C6.48991 3.24047 6.2872 3.45823 6.01855 3.40867L6.669 3.16571Z" fill="white" fill-opacity="0.7"/>
<path d="M5.44861 18.1022C5.56258 18.2379 5.78401 18.3695 5.77343 18.5889C5.52757 18.541 5.52025 18.1997 5.44861 18.1022Z" fill="white" fill-opacity="0.7"/>
<path d="M11.2238 1.78519V1.70393C11.3418 1.61861 11.5372 1.47723 11.6308 1.37891C11.529 1.54061 11.5233 1.77381 11.2238 1.78519Z" fill="white" fill-opacity="0.7"/>
<path d="M10.491 20.2936C10.3974 20.4431 10.2663 20.5528 10.1654 20.6999H10.084C10.1695 20.5658 10.1768 20.3676 10.4096 20.2936C10.4365 20.2904 10.4642 20.2961 10.491 20.2936Z" fill="white" fill-opacity="0.7"/>
<path d="M7.15654 1.2172V1.29845L6.9115 0.771917C7.1427 0.735352 7.11583 1.114 7.15654 1.2172Z" fill="white" fill-opacity="0.7"/>
<path d="M4.55477 3.89623H4.47336C4.4465 3.72396 4.36672 3.4997 4.31055 3.32825C4.4579 3.5972 4.46115 3.54276 4.55477 3.89623Z" fill="white" fill-opacity="0.7"/>
<path d="M7.96982 19.8882C8.08786 20.1084 8.18393 20.8632 8.13264 21.1062L8.05123 21.0249C8.08868 20.5455 7.97959 20.2384 7.80701 19.8069C7.84201 19.8419 7.9568 19.8638 7.96982 19.8882Z" fill="white" fill-opacity="0.7"/>
<path d="M19.7627 6.89941C19.564 7.0343 19.5526 7.07899 19.275 7.22444C19.4582 7.09199 19.6007 7.01155 19.7627 6.89941Z" fill="white" fill-opacity="0.7"/>
<path d="M4.31061 16.9654C4.15349 16.8541 3.76924 16.7639 3.66016 16.5599C3.98009 16.5607 4.12662 16.8118 4.31061 16.9654Z" fill="white" fill-opacity="0.7"/>
<path d="M2.35844 15.0981C2.29169 15.1591 2.27215 15.2582 2.14353 15.3322C2.04258 15.3899 1.94815 15.389 1.87 15.4232C2.0035 15.3305 2.12155 15.1046 2.35763 15.0981H2.35844Z" fill="white" fill-opacity="0.7"/>
<path d="M2.27704 15.9911C2.24447 16.0472 2.2575 16.1813 2.16062 16.2374L1.87 16.3966C1.93268 16.2105 2.16388 16.1114 2.27622 15.992L2.27704 15.9911Z" fill="white" fill-opacity="0.7"/>
<path d="M18.7865 14.3677C18.7466 14.2937 18.3697 13.7972 18.6636 13.7989L18.8679 14.3677C18.8468 14.3758 18.8142 14.362 18.7865 14.3677Z" fill="white" fill-opacity="0.7"/>
<path d="M1.62655 8.84795C1.47676 8.94789 1.34406 9.10309 1.13892 9.0909C1.20974 8.95114 1.41 8.83982 1.54514 8.76669L1.62655 8.84795Z" fill="white" fill-opacity="0.7"/>
<path d="M4.79822 4.78922C4.92196 4.75265 5.0286 4.65352 5.20526 4.70878C5.16048 4.88673 4.95208 4.88023 4.79822 4.87048V4.78922Z" fill="white" fill-opacity="0.7"/>
<path d="M13.745 20.6187C13.7393 20.7032 13.942 21.0452 13.7857 21.1874C13.7336 21.0314 13.6587 20.7763 13.6636 20.6187H13.745Z" fill="white" fill-opacity="0.7"/>
<path d="M17.4856 1.29847H17.4042C17.5011 1.1449 17.5165 0.856438 17.7713 0.732117C17.7339 0.924693 17.5857 1.12377 17.4856 1.29847Z" fill="white" fill-opacity="0.7"/>
<path d="M6.4247 19.8069L6.01766 20.2132C5.99161 20.0125 6.20734 19.9207 6.34329 19.8069H6.4247Z" fill="white" fill-opacity="0.7"/>
<path d="M8.37687 20.1311H8.29546C8.23196 20.0117 8.11637 19.9264 8.05124 19.8061C8.04066 19.7866 8.06101 19.75 8.05124 19.7249C8.28244 19.8012 8.28976 19.9889 8.37687 20.1311Z" fill="white" fill-opacity="0.7"/>
<path d="M4.06634 18.8326C3.96946 18.9537 3.88317 19.1439 3.70081 19.1585C3.63894 19.0155 3.9312 18.8993 3.98493 18.8326H4.06634Z" fill="white" fill-opacity="0.7"/>
<path d="M28.3838 1.54222H28.3024C28.2291 1.42846 28.076 1.1847 28.1803 1.05469L28.3838 1.54222Z" fill="white" fill-opacity="0.7"/>
<path d="M4.06627 18.8327H3.98486C4.0044 18.8083 4.01091 18.7002 4.06383 18.6279C4.13384 18.5312 4.282 18.4686 4.3105 18.4272C4.22502 18.5694 4.1892 18.6799 4.06627 18.8335V18.8327Z" fill="white" fill-opacity="0.7"/>
<path d="M7.23794 3.0032L7.15572 3.48993H7.07675C7.03686 3.40542 7.10931 3.04708 7.23875 3.0032H7.23794Z" fill="white" fill-opacity="0.7"/>
<path d="M2.1956 8.11746C2.02871 8.30841 2.03279 8.29054 1.78856 8.36123L1.70715 8.27997C1.88299 8.24666 2.03116 8.1329 2.19479 8.11746H2.1956Z" fill="white" fill-opacity="0.7"/>
<path d="M4.31055 18.4264C4.33985 18.3833 4.50918 18.0331 4.55477 17.9396C4.52709 18.0063 4.55477 18.1322 4.49453 18.2443C4.43429 18.3565 4.32764 18.3995 4.31136 18.4272L4.31055 18.4264Z" fill="white" fill-opacity="0.7"/>
<path d="M21.3892 3.89621C21.3167 3.78082 21.0733 3.68169 21.1458 3.40948C21.311 3.45905 21.3306 3.76457 21.3892 3.89621Z" fill="white" fill-opacity="0.7"/>
<path d="M20.4944 6.33145C20.3178 6.49965 20.2152 6.5484 20.0874 6.65647C20.2193 6.55003 20.3666 6.43302 20.4944 6.33145Z" fill="white" fill-opacity="0.7"/>
<path d="M19.4377 11.2019C19.463 11.1361 19.3889 10.9549 19.4793 10.9573L19.6811 11.2011H19.5191H19.4377V11.2019Z" fill="white" fill-opacity="0.7"/>
<path d="M4.87964 4.4642V4.38295C4.93255 4.21637 5.11328 4.15462 5.20527 4.05792C5.05711 4.32282 5.07746 4.26512 4.87964 4.4642Z" fill="white" fill-opacity="0.7"/>
<path d="M4.79818 4.78921V4.87047H4.63536L4.79818 5.11423H4.71677C4.64432 5.05248 4.5971 4.98991 4.55396 4.95172L4.63536 4.78921C4.68665 4.78109 4.75503 4.80221 4.79818 4.78921Z" fill="white" fill-opacity="0.7"/>
<path d="M21.1457 11.3644C21.3452 11.3685 21.5739 11.2206 21.6333 11.4449C21.5007 11.4587 21.3582 11.4286 21.2263 11.4457L21.1449 11.3644H21.1457Z" fill="white" fill-opacity="0.7"/>
<path d="M19.6812 16.1536C19.6096 16.1146 19.5249 16.1374 19.4313 16.0374C19.3678 15.97 19.3816 15.8709 19.3556 15.8286C19.4362 15.9188 19.5795 16.0488 19.6812 16.1536Z" fill="white" fill-opacity="0.7"/>
<path d="M22.9343 5.51971C23.0003 5.56847 23.3129 5.64566 23.2184 5.76429C23.0344 5.78948 22.9441 5.58147 22.8529 5.51971H22.9343Z" fill="white" fill-opacity="0.7"/>
<path d="M10.4105 1.70393H10.3291C10.2281 1.61049 10.0775 1.58367 10.0849 1.37891C10.1842 1.47723 10.3543 1.53736 10.4105 1.70393Z" fill="white" fill-opacity="0.7"/>
<path d="M5.2052 4.05873C5.26707 3.94903 5.24835 3.6947 5.44861 3.65326C5.48199 3.86046 5.3151 3.94334 5.2052 4.05873Z" fill="white" fill-opacity="0.7"/>
<path d="M2.27693 8.3604C2.2175 8.54891 2.08806 8.54323 1.95129 8.60417C2.04817 8.51072 2.11004 8.33277 2.27693 8.27914C2.27937 8.30515 2.27693 8.33359 2.27693 8.3604Z" fill="white" fill-opacity="0.7"/>
<path d="M2.27698 10.9582L2.60261 10.7152C2.54481 10.842 2.40235 10.9817 2.27698 11.0394V10.9582Z" fill="white" fill-opacity="0.7"/>
<path d="M10.9795 19.8882L11.0609 20.1319C11.0177 20.1417 10.951 20.1311 10.898 20.1319L10.7352 19.9694C10.771 19.9532 10.7922 19.9036 10.8166 19.8882C10.837 19.876 10.8809 19.9012 10.898 19.8882C10.9151 19.8752 10.9615 19.9012 10.9795 19.8882Z" fill="white" fill-opacity="0.7"/>
<path d="M1.87081 10.6339H1.7894C1.75033 10.5316 1.66729 10.3024 1.62659 10.2277C1.8179 10.4422 1.76417 10.4422 1.87081 10.6339Z" fill="white" fill-opacity="0.7"/>
<path d="M15.7777 20.0499V20.1311C15.6124 20.0775 15.5489 19.8963 15.452 19.8061C15.5562 19.8678 15.7264 19.85 15.7777 20.0499Z" fill="white" fill-opacity="0.7"/>
<path d="M16.2653 2.27273C16.2018 2.23535 16.0993 2.25566 16.0146 2.15734C15.9487 2.08096 15.9649 1.98914 15.9397 1.94852C16.0032 2.01108 16.2458 2.26054 16.2653 2.27354V2.27273Z" fill="white" fill-opacity="0.7"/>
<path d="M1.95221 8.60419C1.80893 8.74151 1.77555 8.74882 1.62657 8.84795L1.54517 8.7667C1.69089 8.68788 1.82114 8.66188 1.95221 8.60419Z" fill="white" fill-opacity="0.7"/>
<path d="M1.87071 11.6886C1.88617 11.6667 1.85768 11.5741 1.87071 11.5261H2.03271C2.03922 11.6066 2.02538 11.6894 2.03271 11.7691H1.86989V11.6878L1.87071 11.6886Z" fill="white" fill-opacity="0.7"/>
<path d="M15.9405 1.9477C15.8404 1.8502 15.6523 1.81363 15.6971 1.62268C15.8859 1.65518 15.8843 1.85345 15.9405 1.9477Z" fill="white" fill-opacity="0.7"/>
<path d="M12.6875 15.5044C12.6362 15.3972 12.5784 15.2932 12.5247 15.1794L12.6061 15.0981C12.646 15.2363 12.6533 15.3825 12.6875 15.5044Z" fill="white" fill-opacity="0.7"/>
<path d="M4.87958 3.16573H4.79818C4.79573 3.12997 4.60931 2.9179 4.75747 2.83989C4.81364 2.83745 4.87144 3.09503 4.87958 3.16573Z" fill="white" fill-opacity="0.7"/>
<path d="M13.907 19.1569L13.5015 19.0748L13.5007 18.996L13.8654 19.078L13.907 19.1569Z" fill="white" fill-opacity="0.7"/>
<path d="M6.50617 2.35398L6.42477 2.43523C6.31405 2.33935 6.27335 2.28816 6.18054 2.19147C6.22613 2.22641 6.40034 2.28329 6.50617 2.35398Z" fill="white" fill-opacity="0.7"/>
<path d="M10.7353 19.8069L10.3291 19.4827C10.4382 19.4063 10.7654 19.7777 10.7353 19.8069Z" fill="white" fill-opacity="0.7"/>
<path d="M12.037 21.3492C12.0467 21.3987 12.1697 21.4662 12.1176 21.5929C11.9702 21.571 11.9898 21.4475 11.9556 21.3492H12.037Z" fill="white" fill-opacity="0.7"/>
<path d="M7.48217 19.1569L7.27783 18.753C7.46995 18.8757 7.44716 18.9781 7.48217 19.1569Z" fill="white" fill-opacity="0.7"/>
<path d="M17.4856 3.16571C17.6452 3.25184 17.9569 3.32497 18.0546 3.48992C17.799 3.51592 17.637 3.32903 17.4856 3.16571Z" fill="white" fill-opacity="0.7"/>
<path d="M14.3954 18.7514C14.4108 18.7238 14.3823 18.6376 14.3954 18.5897H14.5574C14.5875 18.7002 14.502 18.7587 14.4768 18.8326L14.3954 18.7514Z" fill="white" fill-opacity="0.7"/>
<path d="M5.77432 2.35399V2.43525C5.68803 2.39137 5.50568 2.41006 5.44788 2.31337C5.5187 2.20123 5.69047 2.3223 5.77432 2.35399Z" fill="white" fill-opacity="0.7"/>
<path d="M11.3043 19.6444C11.3255 19.6314 11.3434 19.5339 11.4395 19.4973L11.6291 19.4835C11.6584 19.6241 11.4036 19.5859 11.3043 19.6452V19.6444Z" fill="white" fill-opacity="0.7"/>
<path d="M2.3584 11.6082C2.43818 11.6781 2.57983 11.726 2.60262 11.8511C2.3698 11.9064 2.41538 11.6846 2.3584 11.6082Z" fill="white" fill-opacity="0.7"/>
<path d="M16.2653 18.1022C16.2457 18.1225 16.2506 18.2436 16.1887 18.3077L16.0626 18.3468C15.9787 18.3183 16.1537 18.1428 16.1839 18.1022H16.2653Z" fill="white" fill-opacity="0.7"/>
<path d="M2.76545 4.7892C2.6466 4.75833 2.47564 4.81277 2.43982 4.62751C2.60508 4.58444 2.66613 4.7307 2.76545 4.7892Z" fill="white" fill-opacity="0.7"/>
<path d="M4.14779 4.62671V4.70797C3.93857 4.69984 3.81646 4.56984 3.66016 4.4642C3.7725 4.52677 3.998 4.53408 4.14779 4.62671Z" fill="white" fill-opacity="0.7"/>
<path d="M12.2804 1.29845C12.3162 1.25214 12.2877 1.062 12.4424 1.05469C12.4953 1.2302 12.3415 1.22776 12.2804 1.29845Z" fill="white" fill-opacity="0.7"/>
<path d="M11.63 1.37972C11.6398 1.36916 11.735 1.21315 11.7928 1.13596C11.7155 1.29522 11.6829 1.29603 11.63 1.37972Z" fill="white" fill-opacity="0.7"/>
<path d="M5.77422 1.70394C5.7156 1.63244 5.55849 1.63244 5.61222 1.46017C5.76282 1.47318 5.73514 1.63325 5.77422 1.70394Z" fill="white" fill-opacity="0.7"/>
<path d="M17.8112 17.7771C17.7144 17.7194 17.6199 17.6455 17.567 17.6146C17.6582 17.6764 17.668 17.6398 17.8112 17.7771Z" fill="white" fill-opacity="0.7"/>
<path d="M30.5793 1.70394C30.6152 1.656 30.585 1.4683 30.7422 1.46017C30.7918 1.63569 30.642 1.63244 30.5793 1.70394Z" fill="white" fill-opacity="0.7"/>
<path d="M19.1935 10.7152C19.1064 10.6388 18.9892 10.6364 19.0315 10.4714C19.1813 10.4861 19.1544 10.6404 19.1935 10.7152Z" fill="white" fill-opacity="0.7"/>
<path d="M12.0369 1.54224C11.9637 1.61212 11.9669 1.75269 11.7927 1.70394C11.8017 1.54792 11.984 1.5788 12.0369 1.54224Z" fill="white" fill-opacity="0.7"/>
<path d="M5.93711 1.94769C5.85407 1.83718 5.85 1.84043 5.77429 1.70392C5.86058 1.80955 5.90047 1.903 5.93711 1.94769Z" fill="white" fill-opacity="0.7"/>
<path d="M4.06628 17.7771C4.14932 17.73 4.19735 17.6707 4.31051 17.6967C4.30807 17.847 4.1021 17.8267 4.06628 17.8584V17.7771Z" fill="white" fill-opacity="0.7"/>
<path d="M3.66012 4.46418C3.5665 4.40161 3.5494 4.41624 3.41589 4.30167C3.51928 4.3618 3.61534 4.43899 3.66012 4.46418Z" fill="white" fill-opacity="0.7"/>
<path d="M9.43432 20.7804C9.39769 20.8299 9.42699 21.016 9.27232 21.0241C9.22022 20.8494 9.37164 20.8511 9.43432 20.7804Z" fill="white" fill-opacity="0.7"/>
<path d="M30.2545 2.02896C30.1999 2.0834 30.1478 2.13703 30.0917 2.19147H30.0103C30.0371 2.03709 30.1934 2.06878 30.2545 2.02896Z" fill="white" fill-opacity="0.7"/>
<path d="M19.6812 16.1537C19.752 16.1927 19.9115 16.165 19.9254 16.3154C19.7569 16.3609 19.7585 16.2333 19.6812 16.1537Z" fill="white" fill-opacity="0.7"/>
<path d="M13.2564 19.6444C13.1978 19.6802 13.1848 19.8662 13.0122 19.8069C13.0228 19.6525 13.1856 19.6834 13.2564 19.6444Z" fill="white" fill-opacity="0.7"/>
<path d="M11.3043 19.6444C11.2554 19.6737 11.2042 19.8419 11.0601 19.8069C11.1366 19.7582 11.1976 19.7078 11.3043 19.6444Z" fill="white" fill-opacity="0.7"/>
<path d="M30.7421 2.11022C30.8227 2.07609 30.8666 1.99565 30.9863 2.02978C30.9863 2.12322 30.8853 2.15004 30.8235 2.19148L30.7421 2.11022Z" fill="white" fill-opacity="0.7"/>
<path d="M16.5095 3.16573C16.5388 3.10642 16.5519 3.00647 16.5909 2.92197H16.6723C16.6845 3.07635 16.5877 3.0926 16.5095 3.16573Z" fill="white" fill-opacity="0.7"/>
<path d="M7.72644 2.92196C7.83064 2.93577 7.94543 2.9114 8.05126 2.92277V3.0024C7.89088 3.06416 7.81436 2.95365 7.72644 2.92196Z" fill="white" fill-opacity="0.7"/>
<path d="M21.552 4.13918C21.3989 4.00917 21.4567 4.04655 21.3892 3.89542C21.4209 3.94498 21.5227 4.09937 21.552 4.13918Z" fill="white" fill-opacity="0.7"/>
<path d="M20.0068 6.73691C19.8741 6.85229 19.8505 6.83929 19.7626 6.89942C19.8269 6.85554 19.9767 6.76047 20.0068 6.73691Z" fill="white" fill-opacity="0.7"/>
<path d="M3.09029 17.6146C3.04063 17.6398 3.01703 17.8405 2.84607 17.7763C2.86072 17.6219 3.02191 17.6536 3.09029 17.6146Z" fill="white" fill-opacity="0.7"/>
<path d="M7.23799 21.0241C7.20543 21.1224 7.22171 21.2459 7.07599 21.2679C7.02308 21.0964 7.17857 21.0964 7.23799 21.0241Z" fill="white" fill-opacity="0.7"/>
<path d="M8.13264 21.1054L7.97064 21.2679C7.91772 21.146 8.04798 21.0615 8.05123 21.0241L8.13264 21.1054Z" fill="white" fill-opacity="0.7"/>
<path d="M29.197 2.8407C29.0692 2.97152 29.1188 2.93252 28.9528 3.00321C29.0358 2.95121 29.0561 2.91464 29.197 2.8407Z" fill="white" fill-opacity="0.7"/>
<path d="M17.5671 17.6146C17.5133 17.5838 17.3871 17.5911 17.3228 17.5334C17.3334 17.5301 17.3114 17.4627 17.3228 17.4521C17.4873 17.418 17.519 17.5821 17.5671 17.6146Z" fill="white" fill-opacity="0.7"/>
<path d="M20.2511 15.5044C20.3406 15.5442 20.4766 15.5134 20.4953 15.6661C20.3219 15.723 20.3187 15.5548 20.2511 15.5044Z" fill="white" fill-opacity="0.7"/>
<path d="M4.14779 3.00322C4.11929 2.96097 3.9752 2.93822 3.98497 2.84152H4.14697C4.16081 2.88946 4.13151 2.97478 4.14697 3.00322H4.14779Z" fill="white" fill-opacity="0.7"/>
<path d="M17.8927 16.4787C17.935 16.4502 17.9578 16.3064 18.0547 16.3161V16.4778C18.0091 16.49 17.9074 16.464 17.8927 16.4778V16.4787Z" fill="white" fill-opacity="0.7"/>
<path d="M20.3325 12.5816C20.3537 12.5971 20.4473 12.5686 20.4945 12.5816V12.7433C20.396 12.7482 20.3765 12.6255 20.3325 12.5808V12.5816Z" fill="white" fill-opacity="0.7"/>
<path d="M3.49727 5.8439C3.47448 5.85447 3.47204 5.97635 3.37598 5.92597L3.41587 5.8439H3.49727Z" fill="white" fill-opacity="0.7"/>
<path d="M20.2511 15.5044C20.2258 15.4857 20.1518 15.4678 20.0883 15.4232C20.1501 15.45 20.2014 15.4825 20.2511 15.5044Z" fill="white" fill-opacity="0.7"/>
<path d="M7.72645 2.92196C7.62307 2.90815 7.5384 2.96909 7.56445 2.84152C7.7118 2.7952 7.70936 2.91546 7.72645 2.92196Z" fill="white" fill-opacity="0.7"/>
<path d="M13.5821 19.4819C13.5732 19.4835 13.4592 19.5436 13.4193 19.5631C13.4747 19.5347 13.5235 19.5079 13.5821 19.4819Z" fill="white" fill-opacity="0.7"/>
<path d="M13.4193 19.5631C13.3721 19.5859 13.2947 19.6208 13.2565 19.6444C13.3118 19.6135 13.3639 19.5916 13.4193 19.5631Z" fill="white" fill-opacity="0.7"/>
<path d="M8.53965 19.6444C8.53232 19.685 8.49894 19.724 8.45824 19.7257C8.43137 19.7265 8.39555 19.7313 8.37683 19.7257C8.38416 19.6842 8.41672 19.6452 8.45824 19.6444C8.4851 19.6444 8.52255 19.6379 8.53965 19.6444Z" fill="white" fill-opacity="0.7"/>
<path d="M4.22911 3.16572C4.18597 3.10477 4.17213 3.03977 4.14771 3.0032C4.17945 3.0609 4.20306 3.10315 4.22911 3.16572Z" fill="white" fill-opacity="0.7"/>
<path d="M28.9528 3.00323C28.9121 3.02923 28.895 3.11373 28.7908 3.08367C28.759 2.94066 28.8827 3.03329 28.9528 3.00323Z" fill="white" fill-opacity="0.7"/>
<path d="M6.83176 3.08447L6.66895 3.16573C6.71209 3.14785 6.76419 3.1121 6.83176 3.08447Z" fill="white" fill-opacity="0.7"/>
<path d="M14.1511 19.8069C14.1389 19.7622 14.1609 19.6948 14.1511 19.6444L14.2325 19.7647L14.1511 19.8069Z" fill="white" fill-opacity="0.7"/>
<path d="M18.9494 14.8552C18.9437 14.8536 18.9616 14.9511 18.8688 14.9364V14.7739H18.9494V14.8552Z" fill="white" fill-opacity="0.7"/>
<path d="M4.55481 17.9396C4.57516 17.8909 4.54341 17.8056 4.63622 17.7771C4.63215 17.8933 4.57516 17.8974 4.55481 17.9396Z" fill="white" fill-opacity="0.7"/>
<path d="M18.9493 14.6927C18.942 14.717 18.955 14.7479 18.9493 14.7739H18.7865V14.6927H18.9493Z" fill="white" fill-opacity="0.7"/>
<path d="M4.31053 3.32743C4.28286 3.27705 4.24297 3.18442 4.22913 3.16492C4.24866 3.21286 4.28611 3.25186 4.31053 3.32743Z" fill="white" fill-opacity="0.7"/>
<path d="M15.7777 20.1311V20.0499L15.9389 20.2538L15.7777 20.1311Z" fill="white" fill-opacity="0.7"/>
<path d="M22.3652 4.13917V4.05791C22.3872 4.02785 22.4214 4.00509 22.4466 3.97665C22.423 4.01159 22.4328 4.10504 22.3652 4.13917Z" fill="white" fill-opacity="0.7"/>
<path d="M7.31945 20.9429C7.30154 20.9713 7.26165 20.9957 7.23804 21.0241C7.2527 20.981 7.2242 20.9055 7.23804 20.8616L7.31945 20.9429Z" fill="white" fill-opacity="0.7"/>
<path d="M3.25303 17.5334C3.21721 17.5456 3.1358 17.5911 3.09021 17.6146C3.15371 17.5781 3.17813 17.5626 3.25303 17.5334Z" fill="white" fill-opacity="0.7"/>
<path d="M2.84688 3.81496C2.82897 3.83446 2.75977 3.79871 2.76547 3.77433C2.78745 3.68658 2.88025 3.7784 2.84688 3.81496Z" fill="white" fill-opacity="0.7"/>
<path d="M22.5281 3.89623C22.5541 3.8686 22.5826 3.8426 22.6095 3.81497C22.5875 3.84504 22.5452 3.86779 22.5281 3.89623Z" fill="white" fill-opacity="0.7"/>
<path d="M22.4467 3.97747C22.4719 3.94903 22.502 3.92384 22.5281 3.89621C22.5093 3.92627 22.467 3.94821 22.4467 3.97747Z" fill="white" fill-opacity="0.7"/>
<path d="M21.6334 4.22042H21.552C21.539 4.20173 21.565 4.15704 21.552 4.13916C21.5813 4.16354 21.6073 4.19279 21.6334 4.22042Z" fill="white" fill-opacity="0.7"/>
<path d="M4.47338 17.1279C4.40418 17.145 4.4172 17.0735 4.39197 17.0467C4.42046 17.0727 4.44651 17.1003 4.47338 17.1279Z" fill="white" fill-opacity="0.7"/>
<path d="M4.39195 17.0466C4.36835 17.0215 4.33578 16.9833 4.31055 16.9654C4.33985 16.9898 4.36346 17.0206 4.39195 17.0466Z" fill="white" fill-opacity="0.7"/>
<path d="M4.7168 4.6267L4.7982 4.54544C4.7689 4.56657 4.74692 4.60963 4.7168 4.6267Z" fill="white" fill-opacity="0.7"/>
<path d="M17.8927 17.8584C17.8626 17.8373 17.8398 17.7942 17.8113 17.7771C17.839 17.8039 17.865 17.8316 17.8927 17.8584Z" fill="white" fill-opacity="0.7"/>
<path d="M5.28661 17.9397C5.25649 17.9177 5.22474 17.8649 5.2052 17.8584C5.22555 17.882 5.25893 17.9072 5.28661 17.9397Z" fill="white" fill-opacity="0.7"/>
<path d="M20.3325 12.5817C20.3008 12.5589 20.2796 12.5248 20.2511 12.5004C20.278 12.528 20.3056 12.554 20.3325 12.5817Z" fill="white" fill-opacity="0.7"/>
<path d="M15.8591 16.1536C15.8306 16.1276 15.8054 16.0992 15.7777 16.0724C15.8021 16.1008 15.8331 16.1252 15.8591 16.1536Z" fill="white" fill-opacity="0.7"/>
<path d="M15.7777 16.0724C15.75 16.0456 15.724 16.018 15.6963 15.9911C15.7215 16.0196 15.7525 16.044 15.7777 16.0724Z" fill="white" fill-opacity="0.7"/>
<path d="M5.36803 18.0209C5.34849 17.9957 5.31104 17.9575 5.28662 17.9396C5.31186 17.9681 5.34279 17.9925 5.36803 18.0209Z" fill="white" fill-opacity="0.7"/>
<path d="M5.4486 18.1022C5.42743 18.0729 5.3908 18.0502 5.36719 18.0209C5.39242 18.0493 5.42336 18.0721 5.4486 18.1022Z" fill="white" fill-opacity="0.7"/>
<path d="M15.6963 15.9911C15.6686 15.9643 15.6425 15.9367 15.6149 15.9099C15.6401 15.9383 15.671 15.9627 15.6963 15.9911Z" fill="white" fill-opacity="0.7"/>
<path d="M15.6149 15.9099C15.5872 15.8831 15.5611 15.8554 15.5334 15.8286C15.5587 15.8571 15.5896 15.8814 15.6149 15.9099Z" fill="white" fill-opacity="0.7"/>
<path d="M19.3564 15.8286C19.3312 15.8002 19.3003 15.7758 19.275 15.7474C19.2897 15.775 19.3377 15.7978 19.3564 15.8286Z" fill="white" fill-opacity="0.7"/>
<path d="M18.4618 18.4264C18.4797 18.4069 18.5489 18.4426 18.5432 18.467C18.5212 18.5548 18.4284 18.4629 18.4618 18.4264Z" fill="white" fill-opacity="0.7"/>
<path d="M15.5334 15.8286C15.5058 15.8018 15.4797 15.7742 15.452 15.7474C15.4773 15.7758 15.5082 15.8002 15.5334 15.8286Z" fill="white" fill-opacity="0.7"/>
<path d="M15.452 15.7482C15.4243 15.7214 15.3983 15.6937 15.3706 15.6669C15.3958 15.6954 15.4268 15.7197 15.452 15.7482Z" fill="white" fill-opacity="0.7"/>
<path d="M15.3714 15.6669C15.3438 15.6401 15.3169 15.6133 15.29 15.5857C15.3153 15.6141 15.3462 15.6385 15.3714 15.6669Z" fill="white" fill-opacity="0.7"/>
<path d="M15.29 15.5857L15.2086 15.5044C15.2339 15.5329 15.264 15.5572 15.29 15.5857Z" fill="white" fill-opacity="0.7"/>
<path d="M6.83179 2.59692H6.9132L6.87168 2.67655C6.84074 2.65787 6.84644 2.60911 6.83179 2.59692Z" fill="white" fill-opacity="0.7"/>
<path d="M29.197 2.27274H29.2784L29.2385 2.34993L29.197 2.27274Z" fill="white" fill-opacity="0.7"/>
<path d="M5.69286 6.00643C5.66518 5.98042 5.63994 5.95117 5.61145 5.92517C5.63994 5.95117 5.66437 5.98042 5.69286 6.00643Z" fill="white" fill-opacity="0.7"/>
<path d="M7.64504 19.2381L7.80786 19.5623L7.48223 19.4819C7.48141 19.434 7.48386 19.3275 7.48223 19.3194C7.53677 19.2999 7.59213 19.2519 7.64504 19.2381Z" fill="white" fill-opacity="0.7"/>
<path d="M7.48216 19.5631H7.40076L7.48216 19.4819C7.48216 19.5087 7.48216 19.5363 7.48216 19.5631Z" fill="white" fill-opacity="0.7"/>
<path d="M17.4042 2.19145C17.4319 2.16545 17.4579 2.13701 17.4856 2.1102C17.4579 2.13701 17.4335 2.16708 17.4042 2.19145Z" fill="white" fill-opacity="0.7"/>
<path d="M2.11412 6.65566C2.09296 6.63047 2.05795 6.59553 2.03271 6.5744C2.06039 6.60122 2.08889 6.62722 2.11412 6.65566Z" fill="white" fill-opacity="0.7"/>
<path d="M20.0068 6.73693C20.0361 6.71417 20.0589 6.68005 20.0882 6.65567C20.0589 6.67923 20.0353 6.71174 20.0068 6.73693Z" fill="white" fill-opacity="0.7"/>
<path d="M6.75035 6.98067C6.72186 6.95548 6.69744 6.9246 6.66895 6.89941C6.69662 6.92623 6.72267 6.95386 6.75035 6.98067Z" fill="white" fill-opacity="0.7"/>
<path d="M2.3584 15.0981L2.43981 15.0169C2.41457 15.0453 2.38689 15.0721 2.3584 15.0981Z" fill="white" fill-opacity="0.7"/>
<path d="M6.18126 2.19145C6.15114 2.16789 6.12916 2.13376 6.09985 2.1102C6.1259 2.13783 6.1544 2.16383 6.18126 2.19145Z" fill="white" fill-opacity="0.7"/>
<path d="M2.43982 15.0169L2.52123 14.9356C2.49762 14.9657 2.46506 14.9884 2.43982 15.0169Z" fill="white" fill-opacity="0.7"/>
<path d="M19.275 14.9364C19.253 14.908 19.2066 14.8828 19.1936 14.8552C19.2213 14.8666 19.2473 14.9243 19.275 14.9364Z" fill="white" fill-opacity="0.7"/>
<path d="M18.7059 2.11021C18.6864 2.09234 18.7222 2.02327 18.7466 2.02896C18.8346 2.0509 18.7426 2.14353 18.7059 2.11021Z" fill="white" fill-opacity="0.7"/>
<path d="M15.452 19.8069C15.4219 19.789 15.3999 19.7427 15.3706 19.7256C15.3991 19.7516 15.4243 19.7809 15.452 19.8069Z" fill="white" fill-opacity="0.7"/>
<path d="M6.09996 2.11022C6.06984 2.08665 6.04623 2.05496 6.01855 2.02896C6.04298 2.0574 6.07391 2.08259 6.09996 2.11022Z" fill="white" fill-opacity="0.7"/>
<path d="M30.2545 2.02895C30.2814 2.01107 30.305 1.97126 30.3359 1.94769C30.3091 1.97532 30.2814 2.00213 30.2545 2.02895Z" fill="white" fill-opacity="0.7"/>
<path d="M6.01854 2.02895C5.99086 2.00295 5.95993 1.97776 5.93713 1.94769C5.96074 1.97694 5.99331 1.9997 6.01854 2.02895Z" fill="white" fill-opacity="0.7"/>
<path d="M13.0123 19.8069C13.0318 19.8248 12.996 19.8938 12.9716 19.8882C12.8837 19.8662 12.9757 19.7736 13.0123 19.8069Z" fill="white" fill-opacity="0.7"/>
<path d="M30.3359 1.94771C30.3644 1.92496 30.3913 1.89327 30.4173 1.86646C30.3905 1.89408 30.3628 1.92008 30.3359 1.94771Z" fill="white" fill-opacity="0.7"/>
<path d="M30.4172 1.86644C30.4441 1.83963 30.4742 1.81363 30.4986 1.78519C30.4726 1.81281 30.4441 1.83882 30.4172 1.86644Z" fill="white" fill-opacity="0.7"/>
<path d="M30.4979 1.78517C30.5223 1.75592 30.5582 1.73236 30.5793 1.70392C30.5541 1.73236 30.524 1.75755 30.4979 1.78517Z" fill="white" fill-opacity="0.7"/>
<path d="M20.3325 9.57844C20.313 9.56057 20.3488 9.4915 20.3732 9.49719C20.4611 9.51913 20.3692 9.61176 20.3325 9.57844Z" fill="white" fill-opacity="0.7"/>
<path d="M12.037 1.54222C12.0639 1.51622 12.094 1.48859 12.1184 1.46097C12.0899 1.48453 12.0671 1.5211 12.037 1.54222Z" fill="white" fill-opacity="0.7"/>
<path d="M6.01854 20.2124C6.03807 20.2303 6.00225 20.2993 5.97783 20.2936C5.88991 20.2717 5.9819 20.1791 6.01854 20.2124Z" fill="white" fill-opacity="0.7"/>
<path d="M30.7421 1.46098C30.7225 1.44311 30.7583 1.37404 30.7828 1.37973C30.8707 1.40167 30.7787 1.4943 30.7421 1.46098Z" fill="white" fill-opacity="0.7"/>
<path d="M12.1176 1.46097C12.1721 1.39841 12.2535 1.33259 12.2804 1.29846C12.2152 1.37322 12.199 1.39434 12.1176 1.46097Z" fill="white" fill-opacity="0.7"/>
<path d="M9.59644 20.6186C9.6233 20.5918 9.64854 20.5618 9.67784 20.5374C9.65016 20.5569 9.62493 20.5935 9.59644 20.6186Z" fill="white" fill-opacity="0.7"/>
<path d="M9.51575 20.6999C9.54098 20.6715 9.56948 20.6455 9.59716 20.6187C9.56866 20.643 9.5418 20.6731 9.51575 20.6999Z" fill="white" fill-opacity="0.7"/>
<path d="M9.43433 20.7804C9.45956 20.7511 9.4905 20.7275 9.51573 20.6991C9.48968 20.7259 9.45468 20.7527 9.43433 20.7804Z" fill="white" fill-opacity="0.7"/>
<path d="M2.27696 11.0394C2.2558 11.0492 2.22079 11.0305 2.19556 11.0394V10.9582H2.27696V11.0394Z" fill="white" fill-opacity="0.7"/>
<path d="M2.35836 11.6082C2.32335 11.5611 2.1874 11.5432 2.19554 11.4457C2.29323 11.44 2.31033 11.5659 2.35836 11.6082Z" fill="white" fill-opacity="0.7"/>
<path d="M20.0882 12.3387C20.0606 12.3127 20.0313 12.2867 20.0068 12.2574C20.0231 12.2843 20.0671 12.307 20.0882 12.3387Z" fill="white" fill-opacity="0.7"/>
<path d="M20.1697 12.4199C20.1412 12.3948 20.1159 12.3647 20.0883 12.3387C20.1078 12.3671 20.1461 12.3907 20.1697 12.4199Z" fill="white" fill-opacity="0.7"/>
<path d="M1.22032 12.8254C1.23986 12.8433 1.20404 12.9124 1.17961 12.9067C1.09169 12.8847 1.18368 12.7921 1.22032 12.8254Z" fill="white" fill-opacity="0.7"/>
<path d="M20.2511 12.5004C20.2218 12.4752 20.1982 12.4443 20.1697 12.4191C20.1933 12.4476 20.225 12.4736 20.2511 12.5004Z" fill="white" fill-opacity="0.7"/>
<path d="M2.84527 14.8552L2.6849 14.7325L2.68408 14.531L2.92586 14.652L2.84527 14.8552Z" fill="white" fill-opacity="0.7"/>
<path d="M2.68396 7.95495C2.60581 7.95495 2.45195 8.05083 2.44055 8.03621L2.52196 7.63074C2.80526 7.56492 2.63349 7.83876 2.68315 7.95495H2.68396Z" fill="white" fill-opacity="0.7"/>
<path d="M29.4412 2.35399C29.4631 2.32149 29.49 2.29386 29.5226 2.27274C29.5209 2.31336 29.4819 2.34749 29.4412 2.35399Z" fill="white" fill-opacity="0.7"/>
<path d="M2.0336 11.0394L2.10524 11.3084L1.953 11.4457L2.0336 11.0394Z" fill="white" fill-opacity="0.7"/>
<path d="M2.11412 11.0394C2.08644 11.0467 2.04981 11.0289 2.03271 11.0394V10.9582C2.04655 10.9842 2.09458 11.0085 2.11412 11.0394Z" fill="white" fill-opacity="0.7"/>
<path d="M10.8981 20.1311C10.8167 20.1327 10.7353 20.1311 10.6547 20.1311L10.7353 19.9694L10.8981 20.1319V20.1311Z" fill="white" fill-opacity="0.7"/>
<path d="M10.8981 2.19148C10.8786 2.17929 10.8379 2.20285 10.8167 2.19148C10.7581 2.15898 10.7329 2.10291 10.5725 2.02897C10.5969 2.01434 10.6181 1.89246 10.6995 1.87296L10.973 1.99646C10.9934 2.06716 10.899 2.15735 10.8973 2.19148H10.8981Z" fill="white" fill-opacity="0.7"/>
<path d="M4.47338 4.95173H4.39197L4.43267 4.8721C4.4807 4.88591 4.46768 4.91679 4.47338 4.95173Z" fill="white" fill-opacity="0.7"/>
<path d="M14.4767 19.4006C14.3367 19.4088 14.2032 19.4429 14.0697 19.4819C14.0713 19.4738 14.0615 19.4063 14.0697 19.3194C14.0738 19.2787 14.1381 19.2089 14.1511 19.1569C14.2952 19.2129 14.3986 19.2552 14.4767 19.4006Z" fill="white" fill-opacity="0.7"/>
</g>
<defs>
<clipPath id="clip0_2078_976">
<rect width="71" height="22" fill="white"/>
</clipPath>
</defs>
</svg>
