<svg width="65" height="30" viewBox="0 0 65 30" fill="none" xmlns="http://www.w3.org/2000/svg">
<g opacity="0.56" clip-path="url(#clip0_2077_859)">
<path d="M34.2898 2.77151C36.5925 5.11113 38.7251 7.71262 40.9026 10.1603L44.2105 13.8775C44.5626 13.6116 44.7986 13.2152 45.0744 12.9095C46.8469 10.9418 48.5929 8.96497 50.3674 7.00137C50.5068 6.8475 51.0156 6.07408 51.2303 6.1342L63.8992 20.502H59.1678L51.1295 11.5359L46.6973 16.5789L49.9594 20.4001H45.4315L44.3123 19.1784L43.193 20.502H38.4616C38.6112 20.0904 38.9978 19.8509 39.2766 19.535C39.8607 18.8737 40.4234 18.1594 41.0044 17.495C41.2292 17.2382 41.9099 16.7399 41.8102 16.3904L31.9496 5.47185C32.1154 5.34448 32.2243 5.16819 32.3556 5.01331C32.9946 4.26434 33.6814 3.54799 34.2888 2.77151H34.2898Z" fill="white" fill-opacity="0.7"/>
<path d="M34.1882 2.66964C33.5044 3.3809 32.901 4.16858 32.2549 4.91143C28.8554 8.81826 25.4163 12.6701 21.9781 16.528C21.4093 17.1659 20.8253 17.817 20.2484 18.4641C19.6348 19.1529 19.0162 19.8458 18.366 20.5021H13.7363C13.8859 20.0904 14.2726 19.8509 14.5513 19.535C15.5495 18.4039 16.5039 17.2413 17.5011 16.1204C18.1004 15.4468 18.7252 14.7661 19.3326 14.0824C23.0241 9.931 26.7075 5.74599 30.4224 1.59868C30.9006 1.06472 31.4165 0.551148 31.8988 0.0212708C32.145 0.283153 32.4197 0.520579 32.6629 0.783479C33.1971 1.36329 33.7506 2.04601 34.1882 2.66964Z" fill="white" fill-opacity="0.4"/>
<path d="M19.2308 13.9805C18.7628 14.6225 17.9518 15.3836 17.3993 16.0185C17.3118 16.1194 17.2386 16.2294 17.1439 16.3232L12.6181 11.432C12.5428 11.7886 12.148 12.0261 11.9048 12.2971C10.1873 14.2087 8.53076 16.1897 6.81931 18.1074C6.1325 18.8768 5.41719 19.6267 4.73241 20.3991H0L12.674 6.03436L19.3865 13.4679C19.5218 13.6646 19.3489 13.8175 19.2308 13.9795V13.9805Z" fill="white" fill-opacity="0.7"/>
<path d="M22.0798 16.6299C22.6994 17.0426 23.7668 18.4988 24.3172 19.1275C24.6886 19.5514 25.1282 19.9192 25.4375 20.4002H20.7061L19.7425 19.3221C19.7202 19.2233 20.2238 18.7107 20.35 18.566C20.9188 17.9169 21.5334 17.2994 22.0798 16.6299Z" fill="white" fill-opacity="0.7"/>
<path d="M30.3217 25.3932C31.0034 25.4105 32.2641 25.167 32.2611 26.1585C32.26 26.5539 32.0871 26.9543 31.6445 26.9227L32.255 28.3493C32.0453 28.3707 31.9772 28.3707 31.8612 28.1832C31.7594 28.0182 31.3443 27.0287 31.2792 27.0195L30.6259 27.0246V28.3504H30.3207V25.3953L30.3217 25.3932ZM30.6269 26.7189C30.9912 26.7006 31.8805 26.8514 31.9517 26.3643C32.0769 25.5165 31.212 25.7142 30.6269 25.6999V26.72V26.7189Z" fill="white" fill-opacity="0.7"/>
<path d="M39.2756 25.3932H39.5809V26.4122C39.8007 26.4265 39.9197 26.24 40.1425 26.2095C40.8182 26.1167 41.038 26.6986 41.0095 27.2825C40.9576 28.3463 40.1822 28.5256 39.2756 28.2464V25.3932ZM39.5809 28.0437L40.3298 28.0284C41.1234 27.4129 40.6554 25.8396 39.6297 26.8178L39.5809 28.0437Z" fill="white" fill-opacity="0.7"/>
<path d="M34.7987 26.2084H35.104V26.5141C36.9894 25.1691 37.0789 29.0086 35.104 28.2464V29.1635H34.7987V26.2084ZM35.104 28.0436L35.8528 28.0284C36.6465 27.4129 36.1784 25.8396 35.1528 26.8178L35.104 28.0436Z" fill="white" fill-opacity="0.7"/>
<path d="M19.536 26.2084H19.8413V26.5141C21.7267 25.1691 21.8162 29.0086 19.8413 28.2464V29.1635H19.536V26.2084ZM19.8413 28.0436L20.5901 28.0284C21.3838 27.4129 20.9157 25.8396 19.8901 26.8178L19.8413 28.0436Z" fill="white" fill-opacity="0.7"/>
<path d="M28.5104 28.0294C28.7525 28.0355 28.7017 28.1395 28.6935 28.3483L28.2794 28.3025L28.1837 28.0416C27.8378 28.3871 27.5346 28.4553 27.0838 28.2271C26.6799 27.2835 27.2802 26.8881 28.1848 27.0226L28.1766 26.6232C27.7778 26.4245 27.4684 26.5519 27.0655 26.615C27.1082 26.128 27.8225 26.1494 28.1858 26.2574C28.722 26.5274 28.3903 27.527 28.5093 28.0284L28.5104 28.0294ZM28.1848 27.3294C27.908 27.3395 27.4634 27.2397 27.3168 27.5301C26.9739 28.2138 28.0657 28.1364 28.1715 27.7757C28.2112 27.6391 28.1736 27.473 28.1837 27.3294H28.1848Z" fill="white" fill-opacity="0.7"/>
<path d="M24.6439 28.0294C24.8861 28.0355 24.8352 28.1395 24.8271 28.3483L24.4129 28.3025L24.3173 28.0416C23.9713 28.3871 23.6681 28.4553 23.2174 28.2271C22.8134 27.2835 23.4137 26.8881 24.3183 27.0226L24.3102 26.6232C23.9113 26.4245 23.602 26.5519 23.1991 26.615C23.2418 26.128 23.9561 26.1494 24.3193 26.2574C24.8555 26.5274 24.5238 27.527 24.6429 28.0284L24.6439 28.0294ZM24.3183 27.3294C24.0415 27.3395 23.5969 27.2397 23.4504 27.5301C23.1075 28.2138 24.1993 28.1364 24.3051 27.7757C24.3448 27.6391 24.3071 27.473 24.3173 27.3294H24.3183Z" fill="white" fill-opacity="0.7"/>
<path d="M15.4864 28.0294C15.7286 28.0355 15.6777 28.1395 15.6696 28.3483L15.2555 28.3025L15.1598 28.0416C14.8139 28.3871 14.5106 28.4553 14.0599 28.2271C13.6559 27.2835 14.2563 26.8881 15.1608 27.0226L15.1527 26.6232C14.7538 26.4245 14.4445 26.5519 14.0416 26.615C14.0843 26.128 14.7986 26.1494 15.1619 26.2574C15.6981 26.5274 15.3664 27.527 15.4854 28.0284L15.4864 28.0294ZM15.1608 27.3294C14.8841 27.3395 14.4394 27.2397 14.2929 27.5301C13.95 28.2138 15.0418 28.1364 15.1476 27.7757C15.1873 27.6391 15.1496 27.473 15.1598 27.3294H15.1608Z" fill="white" fill-opacity="0.7"/>
<path d="M6.93944 28.0294C7.1816 28.0355 7.13073 28.1395 7.12259 28.3483L6.70847 28.3025L6.61282 28.0416C6.26687 28.3871 5.96365 28.4553 5.5129 28.2271C5.10895 27.2835 5.70928 26.8881 6.61384 27.0226L6.6057 26.6232C6.20684 26.4245 5.89751 26.5519 5.49458 26.615C5.53732 26.128 6.25161 26.1494 6.61485 26.2574C7.15108 26.5274 6.81937 27.527 6.93842 28.0284L6.93944 28.0294ZM6.61384 27.3294C6.33708 27.3395 5.89243 27.2397 5.74591 27.5301C5.40301 28.2138 6.49479 28.1364 6.60061 27.7757C6.64029 27.6391 6.60264 27.473 6.61282 27.3294H6.61384Z" fill="white" fill-opacity="0.7"/>
<path d="M50.163 25.4972V25.8008C50.105 25.8589 49.116 25.4503 48.8891 25.9007V26.4153C49.6024 26.9554 50.6738 26.7974 50.1518 28.0834C49.8842 28.4859 48.9562 28.3443 48.534 28.2454V27.9418C49.3012 28.0752 50.3055 28.277 49.8384 27.1449C49.0112 26.8932 48.1707 26.6802 48.6551 25.6174C49.1587 25.3087 49.6115 25.3678 50.162 25.4982L50.163 25.4972Z" fill="white" fill-opacity="0.7"/>
<path d="M63.7975 27.4323H62.4748L62.6396 27.9469C62.9998 28.1201 63.3325 28.0437 63.6947 27.9407C63.6744 28.0416 63.767 28.2087 63.6296 28.2444C62.5175 28.5318 62.0199 28.1547 62.1726 26.9768C62.3425 25.6674 64.1302 26.1035 63.7965 27.4313L63.7975 27.4323ZM63.4923 27.1256C63.6225 26.3807 62.5785 26.2288 62.4727 26.9717C62.4452 27.1643 62.4798 27.1194 62.6264 27.1266C62.9143 27.1398 63.2053 27.1174 63.4923 27.1266V27.1256Z" fill="white" fill-opacity="0.7"/>
<path d="M57.489 27.4323H56.1663L56.3311 27.9469C56.6913 28.1201 57.024 28.0437 57.3863 27.9407C57.3659 28.0416 57.4585 28.2087 57.3211 28.2444C56.209 28.5318 55.7115 28.1547 55.8641 26.9768C56.034 25.6674 57.8218 26.1035 57.488 27.4313L57.489 27.4323ZM57.1838 27.1256C57.314 26.3807 56.2701 26.2288 56.1642 26.9717C56.1368 27.1643 56.1714 27.1194 56.3179 27.1266C56.6058 27.1398 56.8969 27.1174 57.1838 27.1266V27.1256Z" fill="white" fill-opacity="0.7"/>
<path d="M47.1105 27.4323H45.7877L45.9526 27.9469C46.3128 28.1201 46.6455 28.0437 47.0077 27.9407C46.9874 28.0416 47.08 28.2087 46.9426 28.2444C45.8305 28.5318 45.3329 28.1547 45.4855 26.9768C45.6555 25.6674 47.4432 26.1035 47.1095 27.4313L47.1105 27.4323ZM46.8052 27.1256C46.9355 26.3807 45.8915 26.2288 45.7857 26.9717C45.7582 27.1643 45.7928 27.1194 45.9394 27.1266C46.2273 27.1398 46.5183 27.1174 46.8052 27.1266V27.1256Z" fill="white" fill-opacity="0.7"/>
<path d="M34.2898 27.4323H32.9671L33.1319 27.9469C33.4921 28.1201 33.8248 28.0437 34.1871 27.9407C34.1667 28.0416 34.2593 28.2087 34.1219 28.2444C33.0098 28.5318 32.5122 28.1547 32.6649 26.9768C32.8348 25.6674 34.6225 26.1035 34.2888 27.4313L34.2898 27.4323ZM33.9846 27.1256C34.1148 26.3807 33.0709 26.2288 32.965 26.9717C32.9376 27.1643 32.9722 27.1194 33.1187 27.1266C33.4066 27.1398 33.6976 27.1174 33.9846 27.1266V27.1256Z" fill="white" fill-opacity="0.7"/>
<path d="M1.72976 25.3932V25.6989H0.305251V26.719L1.52626 26.7179V27.0236H0.305251V28.3494L0 28.3483V25.3932H1.72976Z" fill="white" fill-opacity="0.7"/>
<path d="M43.9562 25.3932V27.1255C44.3408 27.2386 44.7661 25.9058 45.0754 26.2084L44.4792 27.2621L45.1772 28.3473L44.7651 28.2841C44.6216 28.0518 44.2858 27.3355 44.007 27.3283L43.9552 28.3483H43.6499V25.3932H43.9552H43.9562Z" fill="white" fill-opacity="0.7"/>
<path d="M52.4706 26.2278C53.0312 26.1014 53.4983 26.3103 53.601 26.8932C53.7445 27.7053 53.5146 28.4828 52.5561 28.3463C51.6434 28.2169 51.6647 26.4081 52.4706 26.2268V26.2278ZM53.1961 26.6354C53.0394 26.4785 52.4747 26.4785 52.318 26.6354C52.146 26.8086 52.1419 27.7461 52.318 27.9224C52.4747 28.0793 53.0394 28.0793 53.1961 27.9224C53.368 27.7491 53.3721 26.8117 53.1961 26.6354Z" fill="white" fill-opacity="0.7"/>
<path d="M7.63139 26.2085H7.93664V26.5142C8.10453 26.4387 8.21951 26.2706 8.41181 26.2268C8.68451 26.1646 9.25838 26.238 9.25838 26.5651V28.3483H8.95313V26.7689C8.95313 26.7495 8.82187 26.6211 8.84527 26.5203C8.4749 26.454 8.16863 26.5824 7.93562 26.8708V28.3483H7.63037V26.2085H7.63139Z" fill="white" fill-opacity="0.7"/>
<path d="M11.803 26.2085H12.1083V26.5142C12.2762 26.4387 12.3911 26.2706 12.5834 26.2268C12.8561 26.1646 13.43 26.238 13.43 26.5651V28.3483H13.1248V26.7689C13.1248 26.7495 12.9935 26.6211 13.0169 26.5203C12.6465 26.454 12.3403 26.5824 12.1073 26.8708V28.3483H11.802V26.2085H11.803Z" fill="white" fill-opacity="0.7"/>
<path d="M17.501 26.2084V27.7879C17.501 27.8072 17.6323 27.9356 17.6089 28.0365C17.9792 28.1027 18.2855 27.9744 18.5185 27.686V26.2084H18.8238V28.3483H18.5185V28.0426C18.3506 28.118 18.2356 28.2862 18.0433 28.33C17.7707 28.3921 17.1968 28.3188 17.1968 27.9917V26.2084H17.502H17.501Z" fill="white" fill-opacity="0.7"/>
<path d="M37.3424 26.2084V27.7879C37.3424 27.8072 37.4737 27.9356 37.4503 28.0365C37.8207 28.1027 38.1269 27.9744 38.3599 27.686V26.2084H38.6652V28.3483H38.3599V28.0426C38.1921 28.118 38.0771 28.2862 37.8848 28.33C37.6121 28.3921 37.0382 28.3188 37.0382 27.9917V26.2084H37.3435H37.3424Z" fill="white" fill-opacity="0.7"/>
<path d="M3.15422 26.2085H3.45947V26.5142C3.62736 26.4387 3.74233 26.2706 3.93464 26.2268C4.20733 26.1646 4.78121 26.238 4.78121 26.5651V28.3483H4.47595V26.7689C4.47595 26.7495 4.3447 26.6211 4.3681 26.5203C3.99773 26.454 3.69146 26.5824 3.45845 26.8708V28.3483H3.1532V26.2085H3.15422Z" fill="white" fill-opacity="0.7"/>
<path d="M57.9977 26.2085H58.303V26.5142C58.4709 26.4387 58.5858 26.2706 58.7781 26.2268C59.0508 26.1646 59.6247 26.238 59.6247 26.5651V28.3483H59.3195V26.7689C59.3195 26.7495 59.1882 26.6211 59.2116 26.5203C58.8412 26.454 58.535 26.5824 58.302 26.8708V28.3483H57.9967V26.2085H57.9977Z" fill="white" fill-opacity="0.7"/>
<path d="M25.7428 27.9407C25.8863 27.9285 25.9056 27.794 25.9504 27.69C26.1223 27.2875 26.2444 26.7098 26.3553 26.2736C26.3899 26.1371 26.5588 26.2288 26.6585 26.2084L26.048 28.2851C26.0124 28.4278 25.6563 28.387 25.5566 28.1792C25.287 27.6157 25.2473 26.7862 24.9298 26.2094C25.1272 26.1942 25.2239 26.1779 25.3195 26.3796C25.5067 26.776 25.6044 27.4964 25.7438 27.9417L25.7428 27.9407Z" fill="white" fill-opacity="0.7"/>
<path d="M54.6399 27.9407C54.7834 27.9285 54.8027 27.794 54.8475 27.69C55.0194 27.2875 55.1415 26.7098 55.2524 26.2736C55.287 26.1371 55.4559 26.2288 55.5556 26.2084L54.9451 28.2851C54.9095 28.4278 54.5534 28.387 54.4537 28.1792C54.184 27.6157 54.1444 26.7862 53.8269 26.2094C54.0243 26.1942 54.121 26.1779 54.2166 26.3796C54.4038 26.776 54.5015 27.4964 54.6409 27.9417L54.6399 27.9407Z" fill="white" fill-opacity="0.7"/>
<path d="M11.1925 26.5141L10.4447 26.5294L10.1231 26.8188C9.89316 27.6432 10.293 28.3544 11.1925 27.9407L11.1905 28.2423C10.1211 28.6265 9.63777 28.0222 9.7731 26.9767C9.83211 26.5192 10.059 26.2492 10.5271 26.2043C10.8008 26.1789 11.219 26.1442 11.1925 26.5131V26.5141Z" fill="white" fill-opacity="0.7"/>
<path d="M41.8194 25.3932V28.0426H42.2264L42.0667 28.3422L41.7818 28.3361L41.5142 28.0936V25.3932H41.8194Z" fill="white" fill-opacity="0.7"/>
<path d="M51.1804 25.3932V28.0426H51.5874L51.4276 28.3422L51.1427 28.3361L50.8751 28.0936V25.3932H51.1804Z" fill="white" fill-opacity="0.7"/>
<path d="M61.6607 26.2084V28.705C61.6607 28.867 61.2761 29.1299 61.1011 29.1635L61.1133 28.8527L61.3544 28.705V26.2084H61.6597H61.6607Z" fill="white" fill-opacity="0.7"/>
<path d="M21.7746 26.2084H22.0798V26.616C22.1104 26.6548 22.9213 25.7998 22.7921 26.4632C22.7473 26.5508 22.5957 26.507 22.4899 26.5651C21.8458 26.9197 22.1378 27.7288 22.0788 28.3483H21.7736V26.2084H21.7746Z" fill="white" fill-opacity="0.7"/>
<path d="M2.44209 26.2084H2.13684V28.3483H2.44209V26.2084Z" fill="white" fill-opacity="0.7"/>
<path d="M60.6431 26.2084H60.3379V28.3483H60.6431V26.2084Z" fill="white" fill-opacity="0.7"/>
<path d="M42.9387 26.2084H42.6334V28.3483H42.9387V26.2084Z" fill="white" fill-opacity="0.7"/>
<path d="M34.2899 2.77152C33.6824 3.54799 32.9956 4.26434 32.3566 5.01331L32.2549 4.91141C32.901 4.16856 33.5044 3.38088 34.1881 2.66962C34.2329 2.73381 34.2583 2.73891 34.2899 2.77152Z" fill="white" fill-opacity="0.7"/>
<path d="M19.3326 14.0824C18.7251 14.7661 18.1004 15.4468 17.501 16.1204L17.3993 16.0185C17.9518 15.3837 18.7627 14.6225 19.2308 13.9805L19.3326 14.0824Z" fill="white" fill-opacity="0.7"/>
<path d="M22.0798 16.6299C21.5334 17.2993 20.9188 17.9168 20.35 18.5659L20.2483 18.464C20.8252 17.817 21.4093 17.1658 21.978 16.528C21.9862 16.5922 22.0381 16.6013 22.0798 16.6299Z" fill="white" fill-opacity="0.7"/>
<path d="M11.1925 25.2913C11.2933 25.6663 10.8964 25.649 10.7265 25.8997C10.6227 25.9231 10.2147 25.5288 10.175 25.4442C10.1211 25.327 10.2106 25.2373 10.3266 25.2924C10.6736 25.4544 10.5647 25.8324 11.1915 25.2924L11.1925 25.2913Z" fill="white" fill-opacity="0.7"/>
<path d="M2.44209 25.3932H2.13684V25.8008H2.44209V25.3932Z" fill="white" fill-opacity="0.7"/>
<path d="M60.6431 25.3932H60.3379V25.8008H60.6431V25.3932Z" fill="white" fill-opacity="0.7"/>
<path d="M61.6608 25.3932H61.3556V25.8008H61.6608V25.3932Z" fill="white" fill-opacity="0.7"/>
<path d="M42.9387 25.3932H42.6334V25.8008H42.9387V25.3932Z" fill="white" fill-opacity="0.7"/>
<path d="M63.9502 29.8768C64.0164 29.8768 64.0164 29.9787 63.9502 29.9787C63.8841 29.9787 63.8841 29.8768 63.9502 29.8768Z" fill="white" fill-opacity="0.7"/>
</g>
<defs>
<clipPath id="clip0_2077_859">
<rect width="64.0938" height="29.9574" fill="white" transform="translate(0 0.0212708)"/>
</clipPath>
</defs>
</svg>
