<svg width="30" height="30" viewBox="0 0 30 30" fill="none" xmlns="http://www.w3.org/2000/svg">
<g opacity="0.56" clip-path="url(#clip0_2077_595)">
<path d="M15.5483 0L16.7096 0.0995729C26.3178 1.21346 32.4057 11.0241 29.0858 20.1648C25.6786 29.5459 14.0588 33.0423 6.00467 27.0048C2.41439 24.3124 0.168466 20.0367 0.0319659 15.5327C0.0219781 15.1928 0.0219781 14.8224 0.0319659 14.4826C0.266346 6.73179 6.59461 0.286106 14.3858 0.033191L14.463 0H15.5483ZM14.4883 0.86894C3.17945 1.31104 -3.07557 14.2303 3.61359 23.3731C9.74876 31.7591 22.5658 30.8271 27.4624 21.6976C32.6008 12.1167 25.361 0.443432 14.4883 0.86894Z" fill="white" fill-opacity="0.7"/>
<path d="M0.0319609 15.5327H0V14.4825H0.0319609C0.0219731 14.8224 0.0219731 15.1928 0.0319609 15.5327Z" fill="white" fill-opacity="0.7"/>
<path d="M14.4883 0.868938C25.361 0.443429 32.6015 12.1167 27.4624 21.6976C22.5658 30.8278 9.74877 31.7591 3.6136 23.3731C-3.07556 14.2303 3.17946 1.31104 14.4883 0.868938ZM17.1144 2.95864L17.2642 2.98586L17.3315 2.93939L17.3535 2.22645C16.0617 1.63764 15.0516 2.37647 15.1641 3.77248C15.2494 4.82862 16.2615 5.12137 17.1624 4.83991L17.2722 4.04266L17.0532 4.04664C17.0192 4.82862 15.9179 4.92421 15.6982 4.2272C15.547 3.7466 15.6422 2.3539 16.3014 2.26296C16.8294 2.18994 17.1397 2.41564 17.1144 2.95864ZM14.7154 4.42701C14.6028 4.40112 14.3991 4.53189 14.3192 4.45688L12.9162 2.14546L12.7444 2.17002L12.3096 4.84123L12.2684 4.90231L11.9408 4.96603L11.9754 5.18642L12.9489 4.99922L12.8803 4.77883L12.5793 4.83858L12.6752 4.13028L13.4988 3.95238L13.8564 4.56708L13.5042 4.6474L13.5361 4.86978L14.7467 4.64474L14.714 4.42701H14.7154ZM19.9257 3.24939C20.2506 3.31312 20.497 3.42929 20.465 3.80368C20.457 3.89662 20.3658 4.06855 20.433 4.12165C20.4663 4.14754 20.5815 4.18936 20.6088 4.13891L20.8672 3.341L18.7724 2.52782L18.3902 3.34167L18.5826 3.39212C18.799 2.95599 19.0561 2.79733 19.5095 3.07348L18.6772 5.21961L18.2803 5.09017C18.2664 5.14194 18.1831 5.2601 18.2297 5.29861L19.409 5.72611L19.4622 5.53692L19.0967 5.36432L19.9257 3.24939ZM10.5678 4.2969C10.6117 4.16414 10.7316 4.08581 10.7695 3.94109C10.8394 3.67424 10.7549 3.34233 10.5198 3.18235C10.0065 2.83252 8.98037 3.57334 8.46034 3.72403L8.55689 3.94641L8.90713 3.78709L9.86529 5.91928L9.54834 6.06598L9.65688 6.26646L10.7249 5.74137L10.6437 5.56679C10.5285 5.5482 10.336 5.74469 10.2648 5.6657L9.84665 4.7098C9.86928 4.67462 10.2442 4.5226 10.2994 4.52061C10.6563 4.508 10.8734 5.36698 11.1724 5.45991C11.3814 5.52497 12.0486 5.31719 11.765 5.0291C11.7097 5.06229 11.6351 5.11937 11.5705 5.12336C11.2789 5.14327 11.0139 4.17542 10.5671 4.29624L10.5678 4.2969ZM22.8201 5.13265C22.2042 5.21629 21.4904 5.98367 21.4551 6.60567C21.4165 7.28542 21.9998 7.7554 22.5564 8.02027C22.6457 8.01761 23.153 7.51709 23.1444 7.46863L23.0032 7.32259C22.6763 7.64786 22.2628 7.68703 21.9518 7.31861C21.591 6.88978 21.8693 6.46892 22.1722 6.11112C22.4752 5.75332 23.0252 5.2382 23.5146 5.47385C23.976 5.69623 24.0806 6.12573 23.727 6.50941L23.8675 6.65147L24.3596 6.09652C24.0573 5.48315 23.5519 5.03374 22.8201 5.13265ZM9.41384 6.42577C9.45712 6.3501 9.32129 6.25849 9.27468 6.20738L8.96972 6.44701L6.64056 5.16916C6.556 5.13066 6.49341 5.20633 6.45413 5.27404L7.4256 7.82776C7.43493 7.9353 6.97882 8.05346 7.29976 8.23866C7.39031 8.25592 7.92166 7.69632 8.04418 7.61998L7.87439 7.45071C7.81313 7.46133 7.70526 7.68371 7.62936 7.62463C7.60339 7.60405 7.38632 7.05574 7.37966 7.0106C7.373 6.96546 7.38166 6.95683 7.40496 6.92164C7.42827 6.88646 7.70127 6.65081 7.75787 6.60434C7.79715 6.57181 7.96295 6.43175 7.99158 6.4344L8.61948 6.79552L8.36712 7.02255L8.53625 7.19116L9.41451 6.42577H9.41384ZM14.4244 5.70686C8.05084 6.08722 4.07969 12.8761 6.70915 18.6633C9.56765 24.955 18.2277 25.9089 22.3753 20.3494C27.0576 14.073 22.2415 5.24019 14.4244 5.70686ZM5.68174 7.22634L4.91667 6.85659C4.78883 7.07831 3.71081 8.62368 3.73878 8.73055C3.74877 8.76773 4.28944 9.17067 4.35602 9.2012C4.38266 9.21315 4.4013 9.24501 4.43726 9.21647L4.53048 9.04189C4.2102 8.85137 4.07104 8.61239 4.28411 8.26522C4.32007 8.2068 4.36335 8.09329 4.43792 8.12781L6.33893 9.32401C6.27301 9.54108 5.9847 9.69243 6.35292 9.80196L6.97615 8.81419C7.03408 8.71529 6.89692 8.6582 6.81901 8.62501C6.74976 8.64094 6.65654 8.97418 6.54402 8.93036C6.34559 8.7518 4.69161 7.81979 4.66431 7.71093C4.64434 7.6306 4.89536 7.33388 4.98192 7.30467C5.26358 7.20974 5.466 7.44407 5.59717 7.41619L5.68174 7.22435V7.22634ZM25.8924 7.9884L25.2385 6.9721L25.0601 7.08494L25.2392 7.41619L23.3688 8.64027L23.2782 8.65355L23.0991 8.37209L22.9213 8.48428L24.1199 10.2819L24.9475 9.80594C25.0021 9.76545 24.8896 9.62405 24.851 9.61675C24.1865 9.9719 23.9075 9.69176 23.5918 9.12088C23.5765 9.093 23.5439 9.07308 23.5765 9.03857L25.4682 7.80187L25.7172 8.07868L25.893 7.9884H25.8924ZM27.0749 11.0446L27.2654 10.9968L27.2927 10.9397L26.9311 9.83913L26.752 9.91879L26.8159 10.2786C26.3145 10.4306 25.7885 10.5481 25.2938 10.718C24.6186 10.9497 24.3962 11.2285 24.6073 11.96C24.7651 12.5064 25.0774 12.7672 25.6706 12.6537L27.3519 12.1632L27.4092 12.1897L27.5197 12.4951L27.7101 12.442L27.4571 11.4901L27.2361 11.5737L27.3253 11.8631L27.2986 11.9202C26.732 12.0078 25.8544 12.4818 25.3018 12.4141C24.8563 12.3597 24.5753 11.4615 25.0827 11.2717L26.9617 10.6941L27.0749 11.0446ZM3.66487 10.1943C3.23606 10.2461 2.89314 10.5302 2.74066 10.9278C2.14073 12.4891 4.72091 13.4291 5.40208 12.1486C6.02065 10.9842 4.75021 10.0635 3.66553 10.1943H3.66487ZM2.17136 14.5941C2.12875 15.0103 2.20265 15.4916 2.17136 15.9151H2.39509V15.5652H4.72557L4.73955 15.9171C4.77684 15.9702 4.94464 15.9635 4.98126 15.8991V14.7375H4.72557V15.1192H3.64023V14.6578C3.64023 14.6498 3.71015 14.5277 3.72147 14.5157C3.86928 14.3637 4.43992 14.369 4.66365 14.3086C5.06382 14.2011 5.03186 13.8599 4.98259 13.516L4.77418 13.4636C4.83344 14.144 3.74011 13.6886 3.57631 14.2595L3.51305 14.2389C3.39453 13.7484 2.64278 13.5671 2.3578 14.0152C2.27523 14.144 2.18801 14.4427 2.17269 14.5941H2.17136ZM25.1266 13.5592V15.1344C25.1266 15.2393 25.3144 15.6104 25.3983 15.6914C25.7752 16.0538 26.497 15.8938 26.5635 15.3415C26.6608 15.4365 26.7034 15.5553 26.8179 15.6442C27.1255 15.8845 27.579 15.8288 27.7714 15.4796C27.8047 15.4185 27.9039 15.1251 27.9039 15.0707V13.5585H27.6802V13.9402H25.3497V13.5579H25.126L25.1266 13.5592ZM5.74433 18.8452L5.5206 18.9262L5.64844 19.2866L3.57764 20.2737L3.42649 19.9916L3.22407 20.0533L4.18157 21.9811C4.23684 22.0156 5.0252 21.6365 5.13574 21.5655L5.0292 21.3969C4.25548 21.7507 4.07836 21.3026 3.7987 20.6899L5.83222 19.6743C5.90147 19.6683 6.02265 19.9139 6.03397 19.9889L6.25703 19.8927L5.74366 18.8452H5.74433ZM25.2199 19.1957L24.8716 19.0337L24.2783 20.2113V20.3076L25.367 20.9349C25.5321 20.8532 25.4636 20.7563 25.4862 20.6521C25.6014 20.1151 25.9163 19.8987 26.4484 20.1522C26.9511 20.3912 26.995 20.8785 26.5802 21.2296C26.0708 20.5777 25.7086 21.6903 26.445 21.5728C27.1815 21.4553 27.4931 19.9869 26.5183 19.6683C25.8511 19.4506 25.3477 19.975 25.2398 20.593L24.7158 20.2558L25.2219 19.195L25.2199 19.1957ZM24.839 22.6309V21.8191C24.839 21.6578 24.6705 21.3026 24.5527 21.1812C23.8282 20.4357 22.8381 21.8563 23.3528 22.3136C23.5452 22.4842 23.8296 22.3634 23.8189 22.1065C23.8102 21.9001 23.6285 21.8987 23.4786 21.8363C23.6291 21.0086 24.3749 21.4135 24.5354 21.9937C24.6525 22.4159 24.5101 22.8978 24.5833 23.2828C24.5926 23.3326 24.6752 23.4388 24.7251 23.4269L25.7605 22.0999C25.7765 22.0501 25.7459 22.0255 25.7179 21.9923C25.5947 21.8476 25.3271 21.7162 25.2052 21.5496C24.9335 21.7739 25.1959 21.7866 25.2465 21.9538C25.3064 22.151 24.9755 22.4982 24.8377 22.6309H24.839ZM7.75787 21.9618C7.77118 21.914 7.74388 21.9087 7.72657 21.8828C7.59939 21.6943 7.22984 21.2236 7.0727 21.071C6.97083 20.9721 6.90358 21.0331 6.83566 21.146C6.86496 21.2363 7.08735 21.3836 7.02742 21.4699C6.44147 21.8948 5.90946 22.4344 5.28156 22.7883C5.10178 22.8341 4.922 22.6416 4.91667 22.4716C5.50329 22.4437 5.09911 21.6691 4.73955 22.0561C4.50384 22.3103 4.68962 22.763 4.93265 22.9489C5.24427 23.1872 5.57453 23.1407 5.88416 22.9429C6.37689 22.6283 6.83433 22.1317 7.33105 21.8065L7.37367 21.8032L7.55411 22.0554L7.7572 21.9611L7.75787 21.9618ZM9.28999 23.4594L9.27534 23.5218C8.98303 23.8776 8.72335 24.2659 8.42771 24.6184C8.13207 24.9709 7.90502 25.3041 7.39697 25.0121C7.05206 24.8136 6.91023 24.5062 7.17058 24.161L8.26857 22.7398C8.35047 22.6867 8.49696 22.9177 8.5722 22.9177C8.66076 22.8912 8.76397 22.7916 8.68606 22.7079L7.80581 22.0269L7.66997 22.2008L7.90302 22.4066L7.91367 22.4802L6.77307 23.9559C6.28899 24.7173 7.51416 25.7363 8.18801 25.2397C8.66476 24.8879 9.07226 24.1079 9.48043 23.6625L9.78406 23.8696L9.91989 23.6957L9.1455 23.0757L9.00301 23.2503L9.28933 23.4581L9.28999 23.4594ZM24.0067 24.2825L23.8655 24.0648L23.5592 24.2719L21.3572 22.8068C21.288 22.7584 21.1788 22.8215 21.1502 22.8872C21.0956 23.0126 21.8446 25.1959 21.9019 25.5146L21.6196 25.7662L21.7574 25.9381L22.5398 25.3513L22.4253 25.1747C22.348 25.1627 22.2402 25.2955 22.1716 25.336C22.1423 25.3533 22.1496 25.3904 22.1077 25.3367L21.9099 24.6503C22.095 24.5421 22.34 24.2692 22.5212 24.1869C22.5478 24.175 22.5658 24.1444 22.6011 24.173L23.1764 24.5885L22.89 24.8116L23.0325 24.9855L24.004 24.2832L24.0067 24.2825ZM20.465 23.5218L19.5381 23.9221L19.6047 24.1259L19.9836 24.0017L20.6568 25.4953L18.7491 24.2918L17.9108 24.637L18.026 24.8567C18.2177 24.8129 18.2943 24.6151 18.4175 24.8474C18.7478 25.4694 18.9728 26.1943 19.3151 26.817C19.1326 26.9292 18.8623 26.9152 19.078 27.1814C19.2878 27.0493 19.686 26.967 19.8704 26.8283C19.8984 26.8077 19.9257 26.7957 19.9223 26.7539L19.8577 26.5773C19.8291 26.5554 19.5728 26.7539 19.5235 26.6736L18.6772 24.795L21.041 26.3078L21.2587 26.2122L20.2133 23.9141L20.2419 23.857L20.5283 23.7435L20.4643 23.5218H20.465ZM11.1424 25.6228C11.4427 25.5929 11.701 25.4973 11.8189 25.1993C11.9993 24.7432 11.6551 24.4498 11.2909 24.2487C11.163 24.1783 10.081 23.6731 10.0258 23.7136L9.96051 23.9353L10.2775 24.082L9.36923 26.1326L9.31197 26.1598L9.02032 26.0377L8.93576 26.2395C9.56233 26.4851 10.9047 27.4124 11.3501 26.4831C11.5259 26.1167 11.4074 25.8876 11.1417 25.6228H11.1424ZM13.2498 24.795L12.0693 24.6051L12.0366 24.8269L12.3842 24.8946L12 27.0971C11.9547 27.2305 11.6611 27.0699 11.6211 27.1004L11.5892 27.3255L13.7139 27.6919L13.9217 26.7048L13.7286 26.7194C13.5248 27.5034 13.0827 27.4038 12.4208 27.2451L12.8363 24.9855L13.2192 25.0499L13.2518 24.795H13.2498ZM18.7724 27.0241C18.6492 26.9916 18.4428 27.1343 18.3576 27.0414L17.0012 24.7957C16.96 24.7512 16.8381 24.7459 16.7922 24.7777C16.6796 24.8561 16.4379 27.1688 16.3474 27.4775L15.9978 27.5658L16.0284 27.8193L16.9853 27.6275L16.9533 27.3733L16.6024 27.437C16.6636 27.3022 16.659 26.744 16.7695 26.6948C16.8341 26.6656 17.4946 26.5402 17.5273 26.5601L17.9108 27.1668L17.5606 27.2471L17.6132 27.4708L18.805 27.2465L18.7724 27.0248V27.0241ZM15.9319 24.9862C15.7581 25.034 14.7959 24.8919 14.7327 24.9842L14.7207 25.1754L15.1335 25.2092C15.1249 25.2683 15.1022 25.3214 15.1002 25.3825C15.0829 25.9387 15.1195 26.586 15.0656 27.1303C15.031 27.4821 14.9038 27.6441 14.5269 27.5319C14.8299 27.0825 14.1694 26.8575 14.0861 27.2372C13.9616 27.8047 15.0363 28.063 15.3945 27.4264C15.6203 27.0248 15.5137 25.9241 15.5477 25.415C15.5517 25.3513 15.5677 25.2915 15.5796 25.2298L15.9325 25.2411V24.9862H15.9319Z" fill="white" fill-opacity="0.14"/>
<path d="M14.4244 5.70685C22.2415 5.24085 27.0576 14.0736 22.3753 20.3494C18.2277 25.9089 9.56764 24.955 6.70913 18.6633C4.07968 12.8761 8.05082 6.08656 14.4244 5.70685ZM9.13084 9.03989H10.4559C11.3734 8.005 12.6199 7.09756 13.9403 6.65612C14.0249 6.62824 14.0155 6.6143 13.9356 6.61961C13.7472 6.63222 13.4955 6.68599 13.3077 6.72582C11.735 7.0637 10.2355 7.87754 9.1315 9.03923L9.13084 9.03989ZM20.9444 9.03989C19.9716 7.99438 18.6366 7.2197 17.2542 6.84597C17.0259 6.78423 16.7236 6.69462 16.4912 6.68267C16.4652 6.68134 16.374 6.67338 16.4266 6.71586C17.7163 7.14601 18.8523 8.03553 19.7465 9.03989H20.9437H20.9444ZM19.2838 9.03989C18.4275 8.14639 17.3228 7.31396 16.1156 6.9628C16.0131 6.93293 15.8573 6.88248 15.7561 6.87518C15.7195 6.87252 15.6868 6.8692 15.7234 6.9077C15.8213 7.00993 16.0351 7.13407 16.1556 7.24094C16.7489 7.77133 17.2649 8.37541 17.7037 9.03989H19.2838ZM10.9193 9.03989H12.3722C12.9349 8.30239 13.4975 7.55957 14.208 6.95483C14.2126 6.93027 14.1787 6.93558 14.16 6.9389C13.7752 6.99732 13.0254 7.41486 12.6778 7.62596C12.0466 8.01031 11.4187 8.4949 10.9193 9.03989ZM14.1114 9.03989H16.0271C15.786 8.30239 15.4418 7.60737 15.0529 6.9389C15.001 6.93094 14.989 6.9794 14.967 7.01259C14.8259 7.22567 14.6288 7.65981 14.5209 7.90476C14.467 8.02624 14.0675 8.99874 14.1114 9.04056V9.03989ZM12.8343 9.03989H13.7126L14.4783 7.19315C13.9323 7.64853 13.4349 8.1829 13.0128 8.75578C12.9881 8.78897 12.8157 9.0233 12.8343 9.03923V9.03989ZM17.2722 9.03989C16.8561 8.37873 16.3007 7.80519 15.6922 7.3206L16.378 9.03989H17.2722ZM10.121 9.38973H8.79591C8.16935 10.092 7.69526 10.9139 7.32504 11.7755L7.359 11.8405H8.54022C8.68471 11.5093 8.80457 11.1688 8.98968 10.8561C9.30596 10.3217 9.79669 9.92012 10.1203 9.38973H10.121ZM13.6327 9.38973H12.5473L12.5154 9.48465C12.8663 9.5975 13.1592 9.81922 13.4569 10.027L13.6327 9.38973ZM15.9592 11.8359L16.4119 10.487L16.1396 9.42092L13.9869 9.39304L13.7605 10.3582C14.0442 10.8063 14.3138 11.2956 14.3351 11.8412L15.9592 11.8366V11.8359ZM17.5599 9.51718V9.47005C17.5399 9.45478 17.49 9.38973 17.48 9.38973H16.5065L16.6024 9.83515C16.6843 9.84776 16.6523 9.82785 16.669 9.79001C16.7069 9.70703 16.7029 9.58622 16.7775 9.51651H17.5599V9.51718ZM19.6986 9.51718C19.6913 9.48797 19.5954 9.38973 19.5867 9.38973H17.9108C17.9188 9.41694 17.9754 9.51718 17.9907 9.51718H19.6986ZM21.3912 9.51718C21.3839 9.48797 21.288 9.38973 21.2793 9.38973H20.0502C20.0575 9.41893 20.1534 9.51718 20.162 9.51718H21.3912ZM10.2168 17.9198C11.2835 16.7409 12.53 15.5925 13.359 14.225C14.2686 12.7248 14.463 10.6052 12.5593 9.80793C10.7622 9.05582 9.1295 10.4366 8.7806 12.1585L9.30596 11.5212C10.4399 10.5567 12.1159 11.2139 12.283 12.6929C12.4794 14.4275 11.3887 15.9363 10.4206 17.248C9.83464 18.0419 9.20608 18.8067 8.58817 19.5747H13.9836L14.4623 17.0602L14.1887 17.5029C14.0362 17.7167 13.6526 17.9191 13.393 17.9191H10.2162L10.2168 17.9198ZM21.4231 11.8405H22.7642C22.6403 11.4847 22.4739 11.1303 22.2908 10.8003C22.2175 10.6696 21.6302 9.72429 21.5663 9.7077C21.5024 9.6911 21.5204 9.73558 21.5037 9.77142C21.3373 10.1372 21.2394 10.566 21.0716 10.9358L21.4225 11.8405H21.4231ZM21.1675 9.80328H16.9533L15.3253 14.5775C16.9187 14.5031 19.2305 14.9877 20.0142 16.5397C20.4597 17.4233 20.3884 18.6613 19.4336 19.1665C18.3476 19.7413 17.6298 18.889 16.7915 18.3838C16.35 18.1183 15.6316 17.8275 15.3512 18.4708C15.0363 19.1937 16.0098 19.6145 16.5638 19.7247C18.6559 20.1396 20.8472 19.0105 21.1901 16.8126C21.6342 13.9674 18.7125 12.6703 16.3147 12.7314L16.7602 11.4409L20.5888 11.4223L21.1675 9.80262V9.80328ZM9.41848 11.8405H10.9353L11.0658 11.4575C10.5231 11.2405 9.79203 11.3845 9.41848 11.8405ZM21.0396 11.8405L20.9118 11.427L20.7846 11.7131H19.0607V11.8405H21.0403H21.0396ZM11.5572 11.8405C11.5925 11.8107 11.4114 11.6182 11.3661 11.65L11.3335 11.8405H11.5565H11.5572ZM18.6772 11.7131H16.9852V11.8405H18.7091L18.6772 11.7131ZM8.41305 12.1592H7.18388C6.91954 12.9744 6.78038 13.8167 6.7371 14.6737H8.20597C8.20197 13.8977 8.34313 13.131 8.52225 12.3849L8.39906 12.3344C8.42703 12.27 8.49228 12.207 8.41371 12.1592H8.41305ZM10.8554 12.1592H9.14748C9.05693 12.2488 9.02097 12.3736 8.95505 12.4772C8.92775 12.5203 8.86583 12.5263 8.84452 12.5654C8.8079 12.6331 8.7553 12.9179 8.73199 13.0182C8.60748 13.5585 8.55288 14.1188 8.55687 14.6737H10.5365C10.5238 13.824 10.659 12.9817 10.8554 12.1592ZM11.685 14.6737C11.9447 13.8884 12.1991 12.9597 11.8136 12.1744H11.2369C10.9686 12.969 10.88 13.8327 10.8874 14.6737H11.6857H11.685ZM13.4096 14.6737H15.0057L15.8353 12.191L14.3644 12.1731C14.2566 13.0726 13.937 13.9316 13.4089 14.6737H13.4096ZM18.789 12.1904H17.0492L17.0538 12.4247L17.1024 12.4712C17.733 12.5409 18.3556 12.667 18.9482 12.8907C18.9881 12.8907 18.8363 12.2056 18.789 12.1897V12.1904ZM21.5823 14.6737C21.569 13.836 21.4571 12.9677 21.1515 12.191H19.1559L19.3776 13.0679C20.0635 13.453 20.7633 13.9449 21.1035 14.6737H21.5823ZM22.9233 12.1904H21.5503C21.7681 13.0009 21.9272 13.8293 21.9332 14.6731H23.3381C23.3295 13.8267 23.1524 12.9982 22.9233 12.1904ZM8.2053 15.0236H6.78437C6.70247 15.0236 6.76706 15.1902 6.76839 15.2307C6.78104 15.6688 6.82699 16.0897 6.91088 16.5205C6.94284 16.6838 7.10931 17.4226 7.18055 17.5169C7.2478 17.6065 7.43158 17.5368 7.51748 17.5361C7.87437 17.5328 8.23193 17.5421 8.58817 17.5374C8.3418 16.7256 8.182 15.8752 8.2053 15.0229V15.0236ZM10.5358 15.0236H8.55621C8.51692 15.8746 8.7007 16.7236 8.94373 17.5335L9.83265 17.5215L10.615 16.486C10.5624 16 10.5145 15.5141 10.5351 15.0236H10.5358ZM11.5259 15.0236H10.8874V15.8673C10.8874 15.8912 10.9406 15.9595 10.9193 16.0107C10.9539 16.0571 11.5139 15.1019 11.5259 15.0242V15.0236ZM16.8254 15.0236H13.2818C13.2704 15.8626 13.2884 16.7057 13.4129 17.5348C13.9743 17.651 14.0781 17.0303 14.3192 16.6791H14.8139L14.686 17.5388H16.6177C16.6516 17.5189 16.6576 17.4943 16.665 17.4585C16.7176 17.1996 16.7402 16.8086 16.7615 16.5357C16.8008 16.0346 16.8068 15.5267 16.8254 15.0242V15.0236ZM17.0172 17.5381H18.789C18.8922 17.3383 18.9442 17.0695 18.9875 16.8444C19.0227 16.6605 19.1386 16.0206 19.076 15.8832C19.0467 15.8195 18.6772 15.5878 18.5913 15.5387C18.1598 15.2917 17.6791 15.1291 17.193 15.0229L17.0172 17.5381ZM21.583 15.0236H21.2953C21.3832 15.3017 21.4924 15.5845 21.4871 15.8832C21.535 15.8686 21.547 15.7192 21.5503 15.6761C21.567 15.4623 21.5596 15.2386 21.583 15.0242V15.0236ZM23.3388 15.0236H21.9498C21.854 15.1782 21.9159 15.4232 21.9019 15.6124C21.8526 16.2543 21.7274 16.8989 21.519 17.5062H22.924C23.1584 16.699 23.3302 15.8693 23.3388 15.0236ZM13.058 17.5381L12.9302 15.3734C12.3536 16.0087 11.8116 16.6844 11.205 17.2971C11.1417 17.3722 11.1897 17.4558 11.2063 17.5374H13.058V17.5381ZM19.1879 17.5381H19.9383C19.9842 17.5381 19.9862 17.4399 19.9842 17.4C19.9749 17.2474 19.8737 16.9208 19.8104 16.7747C19.7712 16.6844 19.5102 16.2344 19.4283 16.233L19.1885 17.5381H19.1879ZM18.7091 17.8561H17.0012C16.942 17.9271 16.89 18.0858 16.9533 18.1581C17.4081 18.4144 17.8002 18.8199 18.3063 18.9726C18.3842 18.8472 18.7591 17.9052 18.7091 17.8561ZM19.9383 17.8561H19.108L18.6778 19.0191C18.6712 19.0735 18.6745 19.0676 18.7258 19.0669C19.2378 19.0576 19.6933 18.7098 19.883 18.2464C19.9123 18.1754 20.0275 17.8813 19.9383 17.8561ZM22.7642 17.8561H21.3912C21.0909 18.7595 20.6041 19.6006 19.9862 20.3228C20.2879 20.356 20.5942 20.3328 20.8971 20.3374C21.0496 20.3394 21.1781 20.429 21.3273 20.2916C21.5363 20.0998 21.8673 19.5906 22.0297 19.3371C22.3234 18.8784 22.5997 18.3772 22.7635 17.8561H22.7642ZM8.66807 17.8879H7.34302C7.54078 18.4933 7.86239 19.1127 8.26856 19.6066C8.26856 19.5641 8.26523 19.5196 8.28587 19.4798C8.36644 19.3231 8.6674 19.039 8.79258 18.8711C8.83653 18.812 8.96637 18.6613 8.9717 18.6015L8.66807 17.8873V17.8879ZM9.54633 17.8879H9.06758L9.24337 18.3008L9.54633 17.8879ZM15.5164 17.8879H14.5902L14.2373 19.8595L13.8557 19.8608L13.9549 20.3348L16.0717 20.3401L16.1862 19.9259C15.3812 19.7181 14.5822 18.9215 15.2454 18.1097L15.517 17.8873L15.5164 17.8879ZM17.9108 20.3388H19.5228C19.9483 19.8542 20.3505 19.3344 20.6241 18.7476C20.0335 19.3809 19.3464 19.7473 18.5114 19.967C18.2224 20.0434 18.018 19.9783 17.9108 20.3388ZM10.057 20.3388L9.69015 19.8615H8.46099C8.53024 20.0434 8.69603 20.1994 8.82787 20.3388H10.057ZM12.1005 20.3388L11.7969 19.8615H10.1849C10.2142 20.05 10.4159 20.1828 10.5198 20.3388H12.0999H12.1005ZM13.4729 19.8615H12.2277L12.4834 20.3388H13.6007L13.4729 19.8615ZM16.4426 20.3388H17.4959L17.6238 20.0845C17.2482 20.1011 16.8774 20.0659 16.5072 20.0215L16.4426 20.3394V20.3388ZM10.36 20.6893H9.1628C10.3227 21.9319 11.9214 22.7113 13.5841 23.0452C13.646 22.998 13.596 22.994 13.5594 22.9728C13.2891 22.8175 12.9162 22.7059 12.6212 22.5407C11.765 22.0607 11.0332 21.3922 10.36 20.6893ZM12.3076 20.6893H10.8547C11.7396 21.6392 12.8949 22.4822 14.1753 22.7896C13.4662 22.1769 12.7957 21.5011 12.3076 20.6893ZM13.7286 20.6893H12.7391C12.7544 20.7716 12.825 20.8532 12.8729 20.9223C13.3111 21.5549 13.9137 22.1596 14.5429 22.5997L14.0335 21.5482L13.7292 20.6899L13.7286 20.6893ZM15.9632 20.6893H14.0795C14.3192 21.4155 14.6454 22.1112 15.0529 22.7577C15.4451 22.1138 15.7454 21.4122 15.9632 20.6893ZM17.2083 20.6893H16.362L15.6282 22.5041C16.1216 22.08 16.5764 21.5887 16.9659 21.069C16.9959 21.0291 17.2316 20.7098 17.2083 20.6899V20.6893ZM19.1879 20.6893H17.6711L16.6177 22.0269L15.8353 22.8221C17.1058 22.4457 18.2883 21.6478 19.1872 20.6893H19.1879ZM20.9124 20.6893H19.6833C18.7471 21.6936 17.6118 22.5466 16.3147 23.0292C16.2921 23.0379 16.2168 23.0438 16.2674 23.077C17.996 22.8321 19.5501 22.0016 20.8172 20.8326C20.8585 20.7941 20.9204 20.753 20.9124 20.6893Z" fill="white" fill-opacity="0.7"/>
<path d="M11.1424 25.6228C11.4087 25.887 11.5266 26.1167 11.3508 26.4831C10.9053 27.4124 9.56363 26.4851 8.9364 26.2395L9.02096 26.0377L9.31261 26.1598L9.36987 26.1326L10.2781 24.0821L9.96115 23.9354L10.0264 23.7136C10.0817 23.6732 11.1637 24.1777 11.2915 24.2487C11.6551 24.4498 12 24.7432 11.8195 25.1993C11.7017 25.4973 11.4433 25.5936 11.143 25.6228H11.1424ZM10.6963 24.254L10.3154 25.1263C10.6403 25.3174 11.0518 25.5425 11.3088 25.1355C11.6631 24.5746 11.1337 24.4199 10.6963 24.254ZM10.1849 25.3679L9.77671 26.3397C10.1676 26.5628 10.6503 26.8402 10.9027 26.2906C11.1777 25.6912 10.6363 25.5471 10.1849 25.3679Z" fill="white" fill-opacity="0.7"/>
<path d="M2.17135 14.5941C2.18666 14.4427 2.27456 14.144 2.35646 14.0152C2.64211 13.5678 3.39386 13.749 3.51171 14.2389L3.57497 14.2595C3.73877 13.688 4.83276 14.144 4.77284 13.4636L4.98125 13.516C5.03052 13.8599 5.06248 14.2011 4.66231 14.3086C4.43858 14.369 3.86794 14.3637 3.72012 14.5157C3.7088 14.5277 3.63889 14.6492 3.63889 14.6578V15.1192H4.72423V14.7368H4.97992V15.8985C4.9433 15.9629 4.7755 15.9695 4.73821 15.9164L4.72423 15.5646H2.39374V15.9151H2.17002C2.20131 15.4916 2.1274 15.0103 2.17002 14.5941H2.17135ZM3.38453 15.1192V14.5941C3.38453 14.5556 3.29598 14.4062 3.25802 14.3697C3.1102 14.227 2.62813 14.1925 2.51093 14.3631C2.49029 14.3929 2.42637 14.539 2.42637 14.5622V15.1192H3.38387H3.38453Z" fill="white" fill-opacity="0.7"/>
<path d="M25.1266 13.5592H25.3503V13.9409H27.6808V13.5585H27.9046V15.0707C27.9046 15.1251 27.8053 15.4185 27.7721 15.4796C27.5796 15.8294 27.1262 15.8845 26.8185 15.6442C26.704 15.5546 26.6614 15.4364 26.5642 15.3415C26.4976 15.8938 25.7758 16.0538 25.399 15.6914C25.3151 15.6104 25.1273 15.2393 25.1273 15.1344V13.5592H25.1266ZM26.4357 14.3869H25.3503V14.9758C25.3503 15.0415 25.4522 15.2446 25.5115 15.2924C25.6646 15.4165 26.1048 15.4305 26.2612 15.3103C26.3258 15.2605 26.4364 15.0468 26.4364 14.9758V14.3869H26.4357ZM27.6808 14.3869H26.6914V14.8802C26.6914 14.8908 26.7386 15.0587 26.748 15.0786C26.8785 15.3621 27.4718 15.4066 27.6102 15.1278C27.6216 15.1052 27.6815 14.9233 27.6815 14.912V14.3869H27.6808Z" fill="white" fill-opacity="0.7"/>
<path d="M10.5678 4.2969C11.0145 4.17608 11.2796 5.14393 11.5712 5.12401C11.6358 5.11937 11.7097 5.06228 11.7656 5.02975C12.0493 5.31785 11.3821 5.52563 11.173 5.46057C10.874 5.36697 10.657 4.50865 10.3001 4.52127C10.2455 4.52326 9.86994 4.67527 9.8473 4.71045L10.2655 5.66635C10.3367 5.74601 10.5298 5.54886 10.6443 5.56745L10.7256 5.74203L9.65754 6.26711L9.549 6.06664L9.86595 5.91993L8.90779 3.78775L8.55755 3.94706L8.461 3.72468C8.98103 3.57333 10.0071 2.83317 10.5205 3.18301C10.7549 3.34299 10.8401 3.67423 10.7702 3.94175C10.7322 4.08646 10.6124 4.16479 10.5684 4.29756L10.5678 4.2969ZM9.70814 4.48608C10.1676 4.35199 10.5504 4.12231 10.2661 3.59524C10.0324 3.16243 9.65154 3.48903 9.32261 3.59723L9.70814 4.48608Z" fill="white" fill-opacity="0.7"/>
<path d="M20.465 23.5218L20.5289 23.7435L20.2426 23.857L20.214 23.9141L21.2593 26.2123L21.0416 26.3078L18.6778 24.795L19.5241 26.6736C19.5734 26.7546 19.8298 26.5554 19.8584 26.5774L19.923 26.7539C19.9263 26.7964 19.8983 26.8077 19.871 26.8283C19.6866 26.9663 19.2884 27.0487 19.0787 27.1814C18.8629 26.9152 19.1333 26.9292 19.3157 26.817C18.9735 26.1943 18.7484 25.4688 18.4182 24.8474C18.295 24.6151 18.2184 24.8129 18.0266 24.8567L17.9114 24.637L18.7497 24.2918L20.6574 25.4953L19.9842 24.0017L19.6054 24.1259L19.5388 23.9221L20.4656 23.5218H20.465Z" fill="white" fill-opacity="0.7"/>
<path d="M3.66487 10.1943C4.74954 10.0635 6.01999 10.9842 5.40141 12.1486C4.72091 13.4291 2.14006 12.4891 2.74 10.9278C2.89314 10.5302 3.23606 10.2461 3.6642 10.1943H3.66487ZM3.53769 10.6065C3.0656 10.6311 2.83388 11.0712 2.90713 11.5053C2.99169 12.0072 4.27545 12.3597 4.70892 12.3185C5.14239 12.2774 5.35014 11.8784 5.3002 11.4748C5.23428 10.9404 3.98514 10.5839 3.53769 10.6072V10.6065Z" fill="white" fill-opacity="0.7"/>
<path d="M27.0749 11.0446L26.9617 10.6941L25.0827 11.2717C24.5753 11.4622 24.8563 12.3597 25.3018 12.4141C25.8537 12.4818 26.7313 12.0072 27.2986 11.9202L27.3253 11.8631L27.2361 11.5737L27.4571 11.4901L27.7101 12.442L27.5197 12.4951L27.4092 12.1897L27.3519 12.1632L25.6706 12.6537C25.0774 12.7672 24.7651 12.5064 24.6073 11.96C24.3962 11.2285 24.6186 10.949 25.2938 10.718C25.7885 10.5481 26.3145 10.4306 26.8159 10.2786L26.752 9.9188L26.9311 9.83914L27.2927 10.9398L27.2654 10.9968L27.0749 11.0446Z" fill="white" fill-opacity="0.7"/>
<path d="M9.28998 23.4594L9.00366 23.2516L9.14615 23.077L9.92054 23.697L9.78471 23.871L9.48108 23.6639C9.07224 24.1093 8.66541 24.8893 8.18866 25.2411C7.51481 25.7383 6.28964 24.7187 6.77372 23.9573L7.91433 22.4816L7.90367 22.4079L7.67062 22.2021L7.80646 22.0282L8.68672 22.7093C8.76462 22.7929 8.66141 22.8932 8.57285 22.919C8.49761 22.919 8.35113 22.688 8.26923 22.7411L7.17123 24.1624C6.91089 24.5076 7.05271 24.8149 7.39762 25.0134C7.90567 25.3061 8.1294 24.9756 8.42836 24.6198C8.72733 24.2639 8.98369 23.8789 9.27599 23.5231L9.29064 23.4607L9.28998 23.4594Z" fill="white" fill-opacity="0.7"/>
<path d="M18.7724 27.0241L18.805 27.2458L17.6131 27.4702L17.5605 27.2465L17.9108 27.1662L17.5272 26.5594C17.4946 26.5395 16.8341 26.665 16.7695 26.6942C16.659 26.7433 16.6636 27.3016 16.6024 27.4363L16.9533 27.3726L16.9852 27.6269L16.0284 27.8187L15.9978 27.5651L16.3473 27.4768C16.4379 27.1682 16.6796 24.8547 16.7921 24.7771C16.8381 24.7452 16.9606 24.7505 17.0012 24.795L18.3576 27.0407C18.4428 27.1336 18.6492 26.9909 18.7724 27.0234V27.0241ZM16.9526 25.5591C16.8687 25.5518 16.9 25.5557 16.8907 25.6075C16.8387 25.8863 16.8194 26.1724 16.7622 26.4499L17.3688 26.3224L16.9533 25.5591H16.9526Z" fill="white" fill-opacity="0.7"/>
<path d="M9.41381 6.42578L8.53555 7.19117L8.36643 7.02256L8.61878 6.79553L7.99088 6.43441C7.96159 6.43176 7.79646 6.57116 7.75717 6.60435C7.70057 6.65148 7.42691 6.88714 7.40427 6.92166C7.38163 6.95617 7.37231 6.9648 7.37897 7.01061C7.38562 7.05641 7.60269 7.60406 7.62866 7.62464C7.70457 7.68372 7.81244 7.46134 7.87369 7.45072L8.04349 7.61999C7.92097 7.69633 7.38962 8.25593 7.29906 8.23867C6.97812 8.05413 7.43423 7.93597 7.42491 7.82777L6.45343 5.27406C6.49272 5.20635 6.55597 5.13067 6.63987 5.16917L8.96902 6.44703L9.27398 6.20739C9.32059 6.25784 9.45709 6.34944 9.41315 6.42578H9.41381ZM7.24779 6.71587C7.2964 6.72915 7.30106 6.70326 7.3277 6.68467C7.38296 6.64617 7.7352 6.32488 7.72654 6.28704L6.92818 5.85689L7.24779 6.71587Z" fill="white" fill-opacity="0.7"/>
<path d="M24.0067 24.2825L23.0352 24.9849L22.8927 24.8109L23.179 24.5879L22.6037 24.1723C22.5684 24.1445 22.5504 24.1743 22.5238 24.1863C22.342 24.2686 22.0977 24.5408 21.9125 24.6496L22.1103 25.336C22.1523 25.3891 22.1449 25.3526 22.1742 25.3354C22.2428 25.2949 22.3507 25.1621 22.4279 25.174L22.5424 25.3506L21.7601 25.9374L21.6222 25.7655L21.9046 25.5139C21.8466 25.1953 21.0982 23.0113 21.1528 22.8865C21.1814 22.8201 21.2906 22.7577 21.3599 22.8062L23.5619 24.2713L23.8682 24.0641L24.0093 24.2819L24.0067 24.2825ZM21.583 23.5225C21.6715 23.7515 21.7075 24.0907 21.804 24.3044C21.8193 24.339 21.8333 24.3927 21.8852 24.3808L22.3487 24.0157L21.583 23.5225Z" fill="white" fill-opacity="0.7"/>
<path d="M14.7154 4.42703L14.748 4.64476L13.5375 4.86979L13.5055 4.64741L13.8577 4.56709L13.5002 3.95239L12.6765 4.1303L12.5806 4.83859L12.8816 4.77885L12.9502 4.99924L11.9767 5.18643L11.9421 4.96605L12.2697 4.90232L12.311 4.84125L12.7458 2.17004L12.9176 2.14548L14.3205 4.4569C14.4004 4.53191 14.6042 4.40114 14.7167 4.42703H14.7154ZM13.3457 3.72338L12.8669 2.92812L12.7391 3.85083L13.3457 3.72338Z" fill="white" fill-opacity="0.7"/>
<path d="M19.9257 3.2494L19.0967 5.36433L19.4622 5.53693L19.409 5.72611L18.2297 5.29861C18.1831 5.26011 18.2664 5.14129 18.2803 5.09018L18.6772 5.21962L19.5095 3.07349C19.0561 2.79734 18.799 2.95533 18.5826 3.39212L18.3902 3.34167L18.7724 2.52783L20.8672 3.34101L20.6088 4.13892C20.5815 4.18937 20.4663 4.14822 20.433 4.12166C20.3658 4.06856 20.457 3.89663 20.465 3.80369C20.4976 3.4293 20.2513 3.31313 19.9257 3.2494Z" fill="white" fill-opacity="0.7"/>
<path d="M5.68171 7.22634L5.59714 7.41818C5.46597 7.44606 5.26355 7.21173 4.9819 7.30666C4.89534 7.33587 4.64431 7.63193 4.66429 7.71292C4.69159 7.82112 6.34556 8.75312 6.54399 8.93235C6.65652 8.97617 6.74974 8.64293 6.81899 8.627C6.89689 8.66019 7.03406 8.71728 6.97613 8.81619L6.35289 9.80395C5.98467 9.69442 6.27299 9.54307 6.3389 9.326L4.43789 8.1298C4.36332 8.09461 4.32004 8.20813 4.28408 8.26721C4.07101 8.61438 4.21017 8.85336 4.53045 9.04388L4.43723 9.21846C4.40127 9.247 4.38263 9.21514 4.35599 9.20319C4.28874 9.17266 3.74874 8.77038 3.73875 8.73254C3.71012 8.62567 4.7888 7.0803 4.91664 6.85858L5.68171 7.22833V7.22634Z" fill="white" fill-opacity="0.7"/>
<path d="M25.2199 19.1957L24.7138 20.2565L25.2378 20.5937C25.3457 19.9763 25.8491 19.4512 26.5163 19.669C27.4911 19.9869 27.1715 21.4566 26.443 21.5735C25.7146 21.6903 26.0695 20.5777 26.5782 21.2303C26.993 20.8785 26.9491 20.3919 26.4464 20.1529C25.9143 19.8993 25.5994 20.1164 25.4842 20.6528C25.4616 20.757 25.5301 20.8539 25.365 20.9355L24.277 20.3082V20.212L24.8703 19.0344L25.2185 19.1963L25.2199 19.1957Z" fill="white" fill-opacity="0.7"/>
<path d="M17.1144 2.95866C17.1391 2.41499 16.8294 2.18995 16.3014 2.26297C15.6429 2.35392 15.547 3.74661 15.6982 4.22722C15.9172 4.92423 17.0192 4.82864 17.0532 4.04666L17.2722 4.04267L17.1624 4.83992C16.2608 5.12204 15.2487 4.82864 15.1641 3.7725C15.0516 2.37582 16.0617 1.63765 17.3535 2.22646L17.3315 2.93941L17.2642 2.98587L17.1144 2.95866Z" fill="white" fill-opacity="0.7"/>
<path d="M22.8201 5.13265C23.5519 5.03374 24.0573 5.48248 24.3596 6.09652L23.8675 6.65147L23.727 6.50941C24.0812 6.12573 23.9767 5.69623 23.5146 5.47385C23.0252 5.2382 22.4706 5.7593 22.1722 6.11112C21.8739 6.46295 21.5903 6.88978 21.9519 7.31861C22.2621 7.68703 22.6763 7.64786 23.0032 7.32259L23.1444 7.46863C23.1531 7.51643 22.6457 8.01761 22.5564 8.02027C21.9998 7.75607 21.4165 7.28542 21.4551 6.60567C21.4904 5.98367 22.2042 5.21629 22.8201 5.13265Z" fill="white" fill-opacity="0.7"/>
<path d="M5.74432 18.8452L6.25769 19.8927L6.03463 19.9889C6.02331 19.9139 5.90213 19.6683 5.83288 19.6743L3.79936 20.6899C4.07902 21.3026 4.25614 21.7507 5.02986 21.3969L5.13639 21.5655C5.02586 21.6365 4.23816 22.0156 4.18223 21.9811L3.22473 20.0533L3.42715 19.9916L3.5783 20.2737L5.6491 19.2866L5.52126 18.9262L5.74498 18.8452H5.74432Z" fill="white" fill-opacity="0.7"/>
<path d="M13.2498 24.795L13.2172 25.0499L12.8343 24.9855L12.4188 27.2451C13.0807 27.4031 13.5228 27.5034 13.7265 26.7194L13.9196 26.7048L13.7119 27.6919L11.5872 27.3255L11.6191 27.1004C11.6591 27.0699 11.9527 27.2305 11.998 27.0971L12.3822 24.8946L12.0346 24.8268L12.0672 24.6051L13.2478 24.795H13.2498Z" fill="white" fill-opacity="0.7"/>
<path d="M25.8924 7.98841L25.7166 8.07869L25.4675 7.80188L23.5759 9.03858C23.5432 9.07243 23.5759 9.09301 23.5912 9.12089C23.9068 9.69178 24.1864 9.97191 24.8503 9.61676C24.8889 9.62407 25.0014 9.76546 24.9468 9.80595L24.1192 10.2819L22.9207 8.48429L23.0984 8.3721L23.2776 8.65356L23.3681 8.64029L25.2385 7.4162L25.0594 7.08496L25.2378 6.97211L25.8917 7.98841H25.8924Z" fill="white" fill-opacity="0.7"/>
<path d="M24.839 22.631C24.9761 22.4975 25.3071 22.1503 25.2478 21.9539C25.1972 21.7859 24.9342 21.7733 25.2065 21.5496C25.3284 21.7162 25.5967 21.8476 25.7192 21.9924C25.7472 22.0249 25.7778 22.0501 25.7619 22.0999L24.7265 23.4269C24.6765 23.4388 24.5946 23.3333 24.5846 23.2828C24.5114 22.8978 24.6532 22.4159 24.5367 21.9937C24.3762 21.4135 23.6305 21.0086 23.48 21.8364C23.6291 21.8988 23.8116 21.9001 23.8202 22.1065C23.8309 22.3634 23.5466 22.4842 23.3541 22.3136C22.8394 21.8563 23.8296 20.4364 24.554 21.1812C24.6719 21.3026 24.8403 21.6578 24.8403 21.8191V22.631H24.839Z" fill="white" fill-opacity="0.7"/>
<path d="M7.75785 21.9618L7.55476 22.0561L7.37432 21.8038L7.3317 21.8071C6.83431 22.1324 6.37754 22.6289 5.8848 22.9436C5.57518 23.1414 5.24425 23.1879 4.9333 22.9496C4.69026 22.7637 4.50449 22.311 4.7402 22.0567C5.09976 21.6691 5.50394 22.4444 4.91732 22.4723C4.92265 22.6422 5.10243 22.8341 5.28221 22.7889C5.90944 22.4351 6.44146 21.8947 7.02807 21.4706C7.088 21.3843 6.86561 21.2369 6.83631 21.1466C6.90423 21.0338 6.97214 20.9727 7.07335 21.0716C7.23049 21.2243 7.60004 21.6949 7.72722 21.8835C7.74453 21.9094 7.77183 21.9147 7.75851 21.9625L7.75785 21.9618Z" fill="white" fill-opacity="0.7"/>
<path d="M15.9319 24.9862V25.2411L15.579 25.2298C15.5676 25.2915 15.5517 25.3513 15.547 25.415C15.513 25.9248 15.6202 27.0254 15.3939 27.4264C15.0356 28.063 13.9609 27.8048 14.0855 27.2372C14.1687 26.8575 14.8299 27.0825 14.5262 27.5319C14.9031 27.6441 15.0303 27.4821 15.0649 27.1303C15.1182 26.586 15.0822 25.9388 15.0995 25.3825C15.1015 25.3214 15.1242 25.2683 15.1328 25.2092L14.72 25.1754L14.732 24.9842C14.7953 24.8919 15.7574 25.0333 15.9312 24.9862H15.9319Z" fill="white" fill-opacity="0.7"/>
<path d="M21.1675 9.80328L20.5888 11.423L16.7602 11.4416L16.3147 12.7321C18.7125 12.671 21.6349 13.9674 21.1901 16.8132C20.8465 19.0111 18.6559 20.1403 16.5637 19.7254C16.0098 19.6159 15.0363 19.1943 15.3512 18.4714C15.6309 17.8282 16.35 18.119 16.7915 18.3845C17.6298 18.889 18.3476 19.742 19.4336 19.1671C20.3884 18.662 20.4603 17.4233 20.0142 16.5404C19.2305 14.9877 16.9193 14.5038 15.3253 14.5781L16.9533 9.80395H21.1675V9.80328Z" fill="white" fill-opacity="0.14"/>
<path d="M10.2168 17.9198H13.3936C13.6533 17.9198 14.0368 17.7173 14.1893 17.5036L14.463 17.0608L13.9842 19.5754H8.58884C9.20675 18.8067 9.83531 18.042 10.4213 17.2487C11.3894 15.937 12.4801 14.4281 12.2837 12.6936C12.1159 11.2146 10.4406 10.5574 9.30663 11.5219L8.78127 12.1592C9.13018 10.4372 10.7622 9.05582 12.56 9.8086C14.4643 10.6058 14.2692 12.7254 13.3597 14.2257C12.5307 15.5938 11.2842 16.7415 10.2175 17.9205L10.2168 17.9198Z" fill="white" fill-opacity="0.14"/>
<path d="M10.1849 25.3679C10.6363 25.5478 11.1777 25.6918 10.9027 26.2906C10.6503 26.8402 10.1676 26.5627 9.7767 26.3397L10.1849 25.3679Z" fill="white" fill-opacity="0.14"/>
<path d="M10.6963 24.254C11.1337 24.4199 11.6631 24.5746 11.3089 25.1355C11.0518 25.5424 10.6403 25.3174 10.3154 25.1262L10.6963 24.254Z" fill="white" fill-opacity="0.14"/>
<path d="M3.38453 15.1192H2.42703V14.5622C2.42703 14.539 2.49095 14.3929 2.5116 14.3631C2.62945 14.1925 3.11086 14.227 3.25868 14.3697C3.29664 14.4062 3.38519 14.5556 3.38519 14.5941V15.1192H3.38453Z" fill="white" fill-opacity="0.14"/>
<path d="M26.4357 14.387V14.9758C26.4357 15.0468 26.3251 15.2612 26.2606 15.3103C26.1041 15.4305 25.664 15.4165 25.5108 15.2924C25.4515 15.2446 25.3497 15.0408 25.3497 14.9758V14.387H26.435H26.4357Z" fill="white" fill-opacity="0.14"/>
<path d="M27.6808 14.387V14.912C27.6808 14.9233 27.6209 15.1052 27.6096 15.1278C27.4711 15.4066 26.8778 15.3628 26.7473 15.0787C26.738 15.0587 26.6907 14.8901 26.6907 14.8802V14.387H27.6802H27.6808Z" fill="white" fill-opacity="0.14"/>
<path d="M9.70813 4.48608L9.3226 3.59723C9.65153 3.48903 10.0324 3.16243 10.2661 3.59524C10.5504 4.12231 10.1682 4.35133 9.70813 4.48608Z" fill="white" fill-opacity="0.14"/>
<path d="M3.53767 10.6065C3.98579 10.5833 5.23493 10.9397 5.30018 11.4741C5.35012 11.8777 5.14171 12.2767 4.7089 12.3178C4.2761 12.359 2.99167 12.0072 2.90711 11.5047C2.83386 11.0705 3.06558 10.6304 3.53767 10.6058V10.6065Z" fill="white" fill-opacity="0.14"/>
<path d="M16.9526 25.559L17.3681 26.3224L16.7615 26.4499C16.8188 26.1724 16.8381 25.8856 16.89 25.6075C16.8993 25.5557 16.868 25.5517 16.9519 25.559H16.9526Z" fill="white" fill-opacity="0.14"/>
<path d="M7.2478 6.71585L6.92819 5.85687L7.72655 6.28703C7.73521 6.32487 7.38297 6.64615 7.3277 6.68466C7.3004 6.70324 7.29641 6.72913 7.2478 6.71585Z" fill="white" fill-opacity="0.14"/>
<path d="M21.5829 23.5225L22.3487 24.0157L21.8852 24.3808C21.834 24.3927 21.82 24.339 21.804 24.3044C21.7075 24.0907 21.6715 23.7515 21.5829 23.5225Z" fill="white" fill-opacity="0.14"/>
<path d="M13.3457 3.72336L12.7391 3.85148L12.8669 2.92877L13.3457 3.72336Z" fill="white" fill-opacity="0.14"/>
</g>
<defs>
<clipPath id="clip0_2077_595">
<rect width="30" height="30" fill="white"/>
</clipPath>
</defs>
</svg>
